<svg xmlns="http://www.w3.org/2000/svg" xmlns:xlink="http://www.w3.org/1999/xlink" width="1920" zoomAndPan="magnify" viewBox="0 0 1440 809.999993" height="1080" preserveAspectRatio="xMidYMid meet" version="1.0"><defs><g/><clipPath id="5f11837280"><path d="M 0 215 L 428 215 L 428 573.628906 L 0 573.628906 Z M 0 215 " clip-rule="nonzero"/></clipPath><clipPath id="5f81f90df9"><path d="M 0 151 L 478 151 L 478 573.628906 L 0 573.628906 Z M 0 151 " clip-rule="nonzero"/></clipPath><clipPath id="7e586f9d11"><path d="M 10 297 L 463 297 L 463 573.628906 L 10 573.628906 Z M 10 297 " clip-rule="nonzero"/></clipPath><clipPath id="5da4bcf05a"><path d="M 0 277 L 379 277 L 379 573.628906 L 0 573.628906 Z M 0 277 " clip-rule="nonzero"/></clipPath><clipPath id="dfc6861207"><path d="M 0 140.871094 L 336 140.871094 L 336 446 L 0 446 Z M 0 140.871094 " clip-rule="nonzero"/></clipPath><clipPath id="25c5f0bce8"><path d="M 0 140.871094 L 294 140.871094 L 294 424 L 0 424 Z M 0 140.871094 " clip-rule="nonzero"/></clipPath><clipPath id="07f2873807"><path d="M 403 209.425781 L 1298 209.425781 L 1298 398 L 403 398 Z M 403 209.425781 " clip-rule="nonzero"/></clipPath><clipPath id="1843d6f4e0"><path d="M 602 209.425781 L 1357 209.425781 L 1357 398 L 602 398 Z M 602 209.425781 " clip-rule="nonzero"/></clipPath><clipPath id="12f2300e8b"><path d="M 364.894531 209.425781 L 614 209.425781 L 614 499.691406 L 364.894531 499.691406 Z M 364.894531 209.425781 " clip-rule="nonzero"/></clipPath><clipPath id="5869e95a2d"><path d="M 364.894531 209.425781 L 788 209.425781 L 788 499.691406 L 364.894531 499.691406 Z M 364.894531 209.425781 " clip-rule="nonzero"/></clipPath><clipPath id="a18790746d"><path d="M 486 209.425781 L 953 209.425781 L 953 499.691406 L 486 499.691406 Z M 486 209.425781 " clip-rule="nonzero"/></clipPath><clipPath id="02888e6dba"><path d="M 774 209.425781 L 1343 209.425781 L 1343 499.691406 L 774 499.691406 Z M 774 209.425781 " clip-rule="nonzero"/></clipPath><clipPath id="4c03868e94"><path d="M 944 209.425781 L 1420.398438 209.425781 L 1420.398438 499.691406 L 944 499.691406 Z M 944 209.425781 " clip-rule="nonzero"/></clipPath><clipPath id="f651abb5ce"><path d="M 642 209.425781 L 1006 209.425781 L 1006 499.691406 L 642 499.691406 Z M 642 209.425781 " clip-rule="nonzero"/></clipPath><clipPath id="b49b229f6a"><path d="M 620 209.425781 L 991 209.425781 L 991 499.691406 L 620 499.691406 Z M 620 209.425781 " clip-rule="nonzero"/></clipPath><clipPath id="48857c77a0"><path d="M 655 209.425781 L 1122 209.425781 L 1122 499.691406 L 655 499.691406 Z M 655 209.425781 " clip-rule="nonzero"/></clipPath></defs><path fill="#1fb3ae" d="M 275.140625 477.804688 C 275.140625 477.804688 129.910156 384.269531 100.058594 366.683594 C 98.023438 371.132812 96.546875 375.761719 95.632812 380.566406 C 88.546875 401.945312 58.515625 423.585938 43.457031 443.511719 C 40.84375 446.949219 64.097656 483.621094 64.097656 483.621094 C 64.097656 483.621094 67.328125 505.660156 67.90625 510.773438 C 68.203125 517.390625 69.148438 523.914062 70.742188 530.34375 C 75.613281 551.5 77.03125 560.933594 99.308594 558.113281 C 110.511719 556.703125 121.941406 551.5 126.5 567.8125 C 126.8125 568.957031 129.824219 569.96875 131.59375 570.015625 C 144.882812 570.015625 157.816406 570.015625 171.457031 570.015625 C 171.191406 566.488281 166.316406 561.550781 160.027344 559.480469 C 147.183594 561.023438 135.226562 564.8125 125.925781 550.664062 C 123.488281 546.960938 113.703125 547.402344 107.28125 547.183594 C 101.25 547.523438 95.226562 547.421875 89.210938 546.875 C 88.234375 546.59375 87.316406 546.191406 86.445312 545.667969 C 85.578125 545.144531 84.792969 544.519531 84.089844 543.792969 C 83.386719 543.066406 82.789062 542.261719 82.296875 541.378906 C 81.808594 540.496094 81.4375 539.566406 81.191406 538.585938 C 77.695312 519.148438 75.125 480.710938 75.125 480.710938 C 75.125 480.710938 56.125 446.464844 54.617188 446.421875 C 57.054688 442.234375 100.015625 408.117188 105.109375 381.40625 C 125.21875 392.820312 139.566406 402.472656 156.617188 412.257812 C 158.167969 413.140625 264.507812 482.078125 267.875 485.738281 C 272.925781 485.078125 275.140625 477.804688 275.140625 477.804688 Z M 275.140625 477.804688 " fill-opacity="1" fill-rule="nonzero"/><g clip-path="url(#5f11837280)"><path stroke-linecap="butt" transform="matrix(4.42901, 0, 0, 4.407795, -131.399723, 140.871767)" fill="none" stroke-linejoin="miter" d="M 91.79034 76.440249 C 91.79034 76.440249 58.999611 55.219851 52.259604 51.230115 C 51.800098 52.239513 51.466714 53.289677 51.260333 54.37972 C 49.660441 59.22997 42.879863 64.139597 39.479872 68.660175 C 38.889835 69.440043 44.140196 77.759822 44.140196 77.759822 C 44.140196 77.759822 44.869585 82.759842 45.000116 83.919896 C 45.067146 85.421143 45.280582 86.901121 45.640426 88.359829 C 46.740241 93.159565 47.060396 95.299772 52.090266 94.659926 C 54.619753 94.340002 57.200395 93.159565 58.229652 96.860395 C 58.30021 97.120056 58.980208 97.349586 59.37974 97.36022 C 62.380199 97.36022 65.300398 97.36022 68.380234 97.36022 C 68.320261 96.559969 67.219563 95.439794 65.799593 94.970101 C 62.899679 95.320155 60.199971 96.179783 58.100003 92.969915 C 57.549654 92.129784 55.340322 92.229926 53.890365 92.180298 C 52.528604 92.257399 51.168608 92.234358 49.810376 92.110288 C 49.589883 92.04648 49.382621 91.9552 49.185942 91.836447 C 48.990144 91.717695 48.812869 91.5759 48.654114 91.411065 C 48.49536 91.246229 48.360418 91.063669 48.24929 90.863384 C 48.139044 90.6631 48.055257 90.452181 47.999693 90.229741 C 47.210331 85.81994 46.629995 77.099592 46.629995 77.099592 C 46.629995 77.099592 42.340098 69.330153 41.999658 69.320404 C 42.550006 68.370383 52.249902 60.630188 53.39999 54.570256 C 57.940367 57.159774 61.179839 59.349609 65.029634 61.569575 C 65.379776 61.76986 89.38962 77.409767 90.149877 78.24015 C 91.290263 78.09038 91.79034 76.440249 91.79034 76.440249 Z M 91.79034 76.440249 " stroke="#1fb3ae" stroke-width="2.43" stroke-opacity="1" stroke-miterlimit="10"/></g><path fill="#1fb3ae" d="M 325.363281 432.757812 L 287.671875 480.710938 L 100.058594 357.292969 L 125.96875 303.078125 C 198.515625 338.078125 262.78125 383.652344 325.363281 432.757812 Z M 112.195312 353.59375 L 285.8125 467.972656 L 312.121094 434.296875 C 254.542969 389.382812 195.992188 348.523438 130.53125 315.773438 Z M 112.195312 353.59375 " fill-opacity="1" fill-rule="nonzero"/><g clip-path="url(#5f81f90df9)"><path stroke-linecap="butt" transform="matrix(4.42901, 0, 0, 4.407795, -131.399723, 140.871767)" fill="none" stroke-linejoin="miter" d="M 103.129816 66.220427 L 94.619696 77.099592 L 52.259604 49.099656 L 58.109705 36.79989 C 74.489634 44.740369 88.999789 55.079829 103.129816 66.220427 Z M 54.999882 48.260411 L 94.199879 74.209648 L 100.139941 66.569596 C 87.139717 56.379905 73.919882 47.110105 59.139844 39.680086 Z M 54.999882 48.260411 " stroke="#1fb3ae" stroke-width="2.43" stroke-opacity="1" stroke-miterlimit="10"/></g><path stroke-linecap="butt" transform="matrix(4.42901, 0, 0, 4.407795, -131.399723, 140.871767)" fill-opacity="1" fill="#1fb3ae" fill-rule="nonzero" stroke-linejoin="miter" d="M 64.249973 37.490251 C 73.799934 34.220121 82.25008 36.689999 90.099605 42.269604 C 96.610301 46.919569 101.100405 52.64983 100.660303 61.599707 C 88.210427 53.330443 76.570199 45.670007 64.249973 37.490251 Z M 98.579738 57.229785 C 97.000131 47.000215 79.820255 35.719595 70.309983 38.279868 Z M 98.579738 57.229785 " stroke="#1fb3ae" stroke-width="2.43" stroke-opacity="1" stroke-miterlimit="10"/><path fill="#1fb3ae" d="M 310.484375 567.148438 C 308.003906 564.550781 298.835938 552.074219 296.441406 549.519531 C 279.347656 530.695312 282.3125 486.003906 279.699219 484.460938 C 260.433594 473.21875 224.027344 449.992188 218.800781 448.535156 C 219.195312 450.117188 219.476562 451.71875 219.644531 453.339844 C 224.382812 458.101562 231.601562 465.417969 231.027344 463.125 C 246.882812 473.132812 271.464844 494.289062 270.886719 516.546875 C 270.53125 532.152344 281.03125 548.769531 292.234375 561.289062 L 197.101562 561.289062 C 191.253906 561.289062 181.199219 563.492188 177.878906 558.113281 C 172.917969 550.136719 180.84375 528.976562 185.761719 527.257812 C 183.792969 528.148438 181.734375 528.710938 179.582031 528.945312 C 177.433594 529.179688 175.300781 529.074219 173.183594 528.625 C 164.945312 534.003906 160.738281 550.355469 163.304688 560.671875 C 164.191406 564.242188 169.464844 569.484375 172.785156 569.484375 C 218.667969 570.101562 264.554688 569.882812 310.304688 569.882812 C 310.4375 568.03125 310.703125 567.371094 310.484375 567.148438 Z M 310.484375 567.148438 " fill-opacity="1" fill-rule="nonzero"/><g clip-path="url(#7e586f9d11)"><path stroke-linecap="butt" transform="matrix(4.42901, 0, 0, 4.407795, -131.399723, 140.871767)" fill="none" stroke-linejoin="miter" d="M 99.770396 96.709739 C 99.210345 96.120407 97.140364 93.289839 96.599717 92.710255 C 92.74022 88.439589 93.409635 78.300412 92.819597 77.950358 C 88.469726 75.399834 80.249774 70.130404 79.0697 69.799846 C 79.158779 70.158763 79.22228 70.522111 79.260205 70.88989 C 80.330033 71.970185 81.959912 73.630064 81.830263 73.109856 C 85.410175 75.380337 90.960407 80.180073 90.829875 85.229721 C 90.749616 88.770146 93.120349 92.540101 95.649836 95.380418 L 74.170361 95.380418 C 72.850054 95.380418 70.579865 95.880243 69.830192 94.659926 C 68.710091 92.850276 70.499606 88.049654 71.610005 87.65972 C 71.165493 87.861777 70.700695 87.989392 70.21473 88.042565 C 69.729647 88.095737 69.248092 88.07181 68.770065 87.969895 C 66.909992 89.190212 65.960111 92.899904 66.539565 95.240396 C 66.739772 96.050396 67.93043 97.239695 68.680104 97.239695 C 79.039713 97.379717 89.400203 97.330089 99.729825 97.330089 C 99.759812 96.910023 99.819786 96.760253 99.770396 96.709739 Z M 99.770396 96.709739 " stroke="#1fb3ae" stroke-width="2.43" stroke-opacity="1" stroke-miterlimit="10"/></g><path fill="#1fb3ae" d="M 226.375 480.007812 C 226.359375 481.644531 226.261719 483.277344 226.082031 484.90625 C 225.90625 486.535156 225.648438 488.152344 225.308594 489.753906 C 224.972656 491.359375 224.558594 492.941406 224.066406 494.503906 C 223.574219 496.066406 223.003906 497.601562 222.359375 499.109375 C 221.71875 500.617188 221 502.089844 220.210938 503.527344 C 219.425781 504.96875 218.566406 506.363281 217.640625 507.71875 C 216.714844 509.070312 215.726562 510.378906 214.671875 511.636719 C 213.617188 512.894531 212.503906 514.097656 211.332031 515.246094 C 210.15625 516.394531 208.929688 517.484375 207.652344 518.515625 C 206.371094 519.546875 205.042969 520.511719 203.667969 521.414062 C 202.292969 522.3125 200.878906 523.144531 199.421875 523.90625 C 197.964844 524.671875 196.472656 525.359375 194.949219 525.976562 C 193.425781 526.59375 191.875 527.136719 190.296875 527.605469 C 188.71875 528.070312 187.121094 528.457031 185.503906 528.769531 C 183.890625 529.082031 182.261719 529.3125 180.625 529.464844 C 178.984375 529.617188 177.34375 529.6875 175.695312 529.679688 C 174.050781 529.675781 172.410156 529.585938 170.769531 529.417969 C 169.132812 529.25 167.507812 529.003906 165.894531 528.679688 C 164.28125 528.351562 162.6875 527.949219 161.117188 527.46875 C 159.542969 526.988281 157.996094 526.429688 156.476562 525.796875 C 154.957031 525.167969 153.476562 524.460938 152.027344 523.6875 C 150.574219 522.910156 149.167969 522.066406 147.800781 521.152344 C 146.433594 520.238281 145.117188 519.261719 143.847656 518.21875 C 142.578125 517.175781 141.359375 516.074219 140.199219 514.914062 C 139.039062 513.753906 137.933594 512.542969 136.890625 511.273438 C 135.851562 510.003906 134.871094 508.691406 133.960938 507.328125 C 133.046875 505.964844 132.203125 504.5625 131.425781 503.117188 C 130.652344 501.671875 129.949219 500.191406 129.320312 498.675781 C 128.691406 497.164062 128.136719 495.625 127.660156 494.054688 C 127.179688 492.488281 126.78125 490.902344 126.460938 489.292969 C 126.136719 487.6875 125.894531 486.070312 125.734375 484.441406 C 125.570312 482.808594 125.488281 481.175781 125.484375 479.539062 C 125.484375 477.898438 125.5625 476.265625 125.722656 474.632812 C 125.878906 473.003906 126.117188 471.386719 126.4375 469.777344 C 126.753906 468.171875 127.148438 466.582031 127.625 465.015625 C 128.097656 463.445312 128.648438 461.902344 129.273438 460.386719 C 129.898438 458.875 130.597656 457.390625 131.371094 455.945312 C 132.140625 454.5 132.984375 453.09375 133.890625 451.726562 C 134.800781 450.363281 135.777344 449.042969 136.816406 447.773438 C 137.855469 446.503906 138.953125 445.289062 140.113281 444.125 C 141.273438 442.960938 142.484375 441.855469 143.753906 440.8125 C 145.019531 439.765625 146.335938 438.785156 147.703125 437.871094 C 149.066406 436.953125 150.472656 436.105469 151.917969 435.324219 C 153.367188 434.546875 154.847656 433.839844 156.367188 433.203125 C 157.882812 432.566406 159.429688 432.007812 161 431.523438 C 162.570312 431.039062 164.164062 430.628906 165.777344 430.300781 C 167.390625 429.96875 169.015625 429.71875 170.652344 429.546875 C 172.289062 429.375 173.929688 429.285156 175.574219 429.273438 C 177.238281 429.285156 178.898438 429.375 180.554688 429.546875 C 182.210938 429.71875 183.855469 429.96875 185.484375 430.300781 C 187.117188 430.632812 188.726562 431.042969 190.320312 431.527344 C 191.910156 432.015625 193.472656 432.582031 195.007812 433.222656 C 196.542969 433.859375 198.042969 434.574219 199.511719 435.359375 C 200.976562 436.144531 202.398438 437 203.78125 437.925781 C 205.160156 438.847656 206.496094 439.839844 207.78125 440.894531 C 209.0625 441.945312 210.292969 443.058594 211.46875 444.234375 C 212.644531 445.40625 213.757812 446.636719 214.8125 447.917969 C 215.867188 449.199219 216.855469 450.527344 217.78125 451.90625 C 218.703125 453.285156 219.558594 454.703125 220.34375 456.167969 C 221.128906 457.628906 221.839844 459.125 222.476562 460.652344 C 223.113281 462.183594 223.675781 463.742188 224.160156 465.328125 C 224.644531 466.910156 225.050781 468.515625 225.378906 470.140625 C 225.707031 471.765625 225.953125 473.402344 226.121094 475.050781 C 226.285156 476.699219 226.371094 478.351562 226.375 480.007812 Z M 215.65625 480.625 C 215.648438 479.335938 215.574219 478.054688 215.4375 476.773438 C 215.300781 475.492188 215.101562 474.222656 214.839844 472.960938 C 214.578125 471.699219 214.257812 470.453125 213.875 469.222656 C 213.492188 467.992188 213.050781 466.785156 212.550781 465.597656 C 212.050781 464.410156 211.492188 463.25 210.875 462.117188 C 210.261719 460.980469 209.59375 459.882812 208.871094 458.8125 C 208.148438 457.746094 207.375 456.714844 206.554688 455.71875 C 205.730469 454.726562 204.859375 453.773438 203.945312 452.867188 C 203.027344 451.957031 202.070312 451.09375 201.070312 450.277344 C 200.070312 449.460938 199.03125 448.695312 197.957031 447.980469 C 196.878906 447.261719 195.773438 446.601562 194.632812 445.992188 C 193.492188 445.382812 192.324219 444.832031 191.128906 444.335938 C 189.933594 443.839844 188.71875 443.40625 187.480469 443.027344 C 186.246094 442.648438 184.992188 442.332031 183.722656 442.078125 C 182.457031 441.820312 181.179688 441.628906 179.890625 441.496094 C 178.605469 441.363281 177.3125 441.292969 176.019531 441.285156 C 174.726562 441.277344 173.433594 441.332031 172.144531 441.453125 C 170.859375 441.570312 169.578125 441.75 168.308594 441.992188 C 167.035156 442.234375 165.78125 442.535156 164.539062 442.898438 C 163.296875 443.265625 162.078125 443.6875 160.878906 444.167969 C 159.675781 444.652344 158.503906 445.191406 157.355469 445.785156 C 156.210938 446.382812 155.09375 447.03125 154.011719 447.734375 C 152.925781 448.4375 151.878906 449.195312 150.871094 450 C 149.859375 450.804688 148.894531 451.65625 147.96875 452.554688 C 147.039062 453.453125 146.160156 454.394531 145.324219 455.378906 C 144.492188 456.363281 143.707031 457.386719 142.972656 458.449219 C 142.238281 459.507812 141.558594 460.601562 140.933594 461.726562 C 140.304688 462.855469 139.734375 464.007812 139.21875 465.191406 C 138.707031 466.371094 138.25 467.574219 137.855469 468.800781 C 137.457031 470.027344 137.121094 471.269531 136.847656 472.527344 C 136.570312 473.785156 136.359375 475.054688 136.207031 476.332031 C 136.058594 477.613281 135.96875 478.894531 135.945312 480.183594 C 135.917969 481.46875 135.957031 482.757812 136.058594 484.039062 C 136.15625 485.324219 136.320312 486.597656 136.546875 487.867188 C 136.773438 489.136719 137.058594 490.390625 137.40625 491.628906 C 137.753906 492.871094 138.164062 494.089844 138.628906 495.292969 C 139.097656 496.492188 139.625 497.667969 140.207031 498.816406 C 140.789062 499.96875 141.425781 501.085938 142.117188 502.175781 C 142.808594 503.261719 143.554688 504.3125 144.347656 505.328125 C 145.144531 506.347656 145.988281 507.320312 146.878906 508.253906 C 147.765625 509.191406 148.703125 510.078125 149.679688 510.921875 C 150.65625 511.765625 151.671875 512.5625 152.726562 513.304688 C 153.78125 514.050781 154.871094 514.742188 155.996094 515.382812 C 157.117188 516.023438 158.269531 516.605469 159.449219 517.136719 C 160.628906 517.664062 161.832031 518.132812 163.058594 518.546875 C 164.285156 518.957031 165.527344 519.308594 166.789062 519.597656 C 168.050781 519.890625 169.320312 520.121094 170.605469 520.285156 C 171.886719 520.453125 173.175781 520.558594 174.46875 520.601562 C 175.800781 520.628906 177.136719 520.589844 178.464844 520.484375 C 179.796875 520.378906 181.121094 520.207031 182.433594 519.972656 C 183.746094 519.738281 185.046875 519.4375 186.332031 519.074219 C 187.613281 518.710938 188.878906 518.28125 190.117188 517.792969 C 191.359375 517.304688 192.574219 516.757812 193.761719 516.148438 C 194.949219 515.539062 196.101562 514.875 197.222656 514.152344 C 198.34375 513.429688 199.425781 512.65625 200.46875 511.824219 C 201.511719 510.996094 202.511719 510.117188 203.46875 509.191406 C 204.421875 508.261719 205.332031 507.289062 206.191406 506.273438 C 207.046875 505.257812 207.855469 504.199219 208.609375 503.101562 C 209.363281 502.003906 210.058594 500.875 210.699219 499.707031 C 211.339844 498.542969 211.921875 497.347656 212.445312 496.125 C 212.964844 494.902344 213.425781 493.65625 213.824219 492.386719 C 214.222656 491.121094 214.554688 489.835938 214.824219 488.535156 C 215.09375 487.234375 215.300781 485.921875 215.4375 484.601562 C 215.578125 483.277344 215.652344 481.953125 215.65625 480.625 Z M 215.65625 480.625 " fill-opacity="1" fill-rule="nonzero"/><g clip-path="url(#5da4bcf05a)"><path stroke-linecap="butt" transform="matrix(4.42901, 0, 0, 4.407795, -131.399723, 140.871767)" fill="none" stroke-linejoin="miter" d="M 80.779838 76.940074 C 80.77631 77.311397 80.754261 77.681835 80.71369 78.051386 C 80.674001 78.420938 80.615791 78.78783 80.53906 79.151178 C 80.463211 79.515412 80.369722 79.874329 80.258594 80.228814 C 80.147466 80.5833 80.018698 80.931582 79.873173 81.273661 C 79.728531 81.61574 79.566248 81.949842 79.38809 82.275969 C 79.210815 82.602982 79.016781 82.919361 78.807755 83.226877 C 78.598728 83.533507 78.37559 83.830389 78.137458 84.11575 C 77.899327 84.401111 77.647965 84.674065 77.383375 84.934612 C 77.117902 85.195159 76.840964 85.442412 76.55256 85.676373 C 76.263274 85.910333 75.963405 86.129228 75.652951 86.333944 C 75.342498 86.537773 75.023226 86.726537 74.694251 86.899348 C 74.365277 87.073046 74.028364 87.22902 73.684396 87.369042 C 73.340429 87.509064 72.990287 87.632247 72.633971 87.738593 C 72.277656 87.844053 71.91693 87.931788 71.551795 88.002685 C 71.187542 88.073582 70.819761 88.125869 70.450216 88.160431 C 70.079789 88.194993 69.709362 88.210945 69.337171 88.209173 C 68.965862 88.208287 68.595435 88.187904 68.225008 88.149797 C 67.855463 88.111689 67.488564 88.055858 67.124311 87.982302 C 66.760057 87.90786 66.400214 87.81658 66.045662 87.707576 C 65.690229 87.598571 65.340969 87.471843 64.997883 87.328276 C 64.654797 87.185596 64.320531 87.025191 63.99332 86.84972 C 63.665228 86.673364 63.347719 86.481941 63.03903 86.274567 C 62.730341 86.067193 62.433117 85.84564 62.146477 85.609021 C 61.859837 85.372401 61.584663 85.122489 61.322718 84.859283 C 61.060773 84.596078 60.811176 84.321351 60.57569 84.033332 C 60.341086 83.745312 60.119712 83.447544 59.914213 83.138255 C 59.707833 82.828967 59.517327 82.510816 59.341815 82.182917 C 59.167186 81.855017 59.008431 81.519142 58.866434 81.175291 C 58.724437 80.832326 58.599197 80.483158 58.491597 80.1269 C 58.383115 79.771528 58.293154 79.411725 58.220833 79.046605 C 58.147629 78.682371 58.092947 78.315478 58.056786 77.945927 C 58.019744 77.575489 58.001222 77.205052 58.00034 76.833728 C 58.00034 76.461518 58.01798 76.091081 58.054141 75.720643 C 58.089419 75.351092 58.143219 74.984199 58.215541 74.619079 C 58.28698 74.254845 58.376059 73.894156 58.48366 73.538784 C 58.590378 73.182526 58.714735 72.832471 58.85585 72.48862 C 58.996966 72.145655 59.154838 71.808894 59.329468 71.480995 C 59.503216 71.153095 59.693721 70.834058 59.898338 70.523883 C 60.103837 70.214595 60.324329 69.915054 60.558933 69.627035 C 60.793537 69.339015 61.04137 69.063402 61.303315 68.799311 C 61.565259 68.535219 61.83867 68.28442 62.12531 68.047801 C 62.411068 67.810296 62.708291 67.587856 63.016981 67.380482 C 63.324788 67.172221 63.642297 66.979913 63.968625 66.80267 C 64.295836 66.626313 64.630102 66.465909 64.973188 66.321456 C 65.315392 66.177003 65.664652 66.050274 66.019203 65.940384 C 66.373755 65.830493 66.733598 65.737441 67.097851 65.662999 C 67.462105 65.58767 67.829004 65.530953 68.198549 65.491959 C 68.568094 65.452966 68.938521 65.432583 69.30983 65.429924 C 69.685549 65.432583 70.060386 65.452966 70.43434 65.491959 C 70.808295 65.530953 71.179604 65.58767 71.547385 65.662999 C 71.916048 65.738327 72.27942 65.831379 72.639263 65.94127 C 72.998225 66.052047 73.351012 66.180548 73.697626 66.325887 C 74.04424 66.47034 74.382916 66.632517 74.714536 66.810646 C 75.045275 66.988775 75.366312 67.182856 75.678529 67.392889 C 75.989864 67.602035 76.291497 67.827134 76.581665 68.066411 C 76.870951 68.304803 77.148771 68.557374 77.414244 68.824125 C 77.679716 69.089989 77.931078 69.369146 78.169209 69.659824 C 78.407341 69.950503 78.630479 70.251816 78.839506 70.564649 C 79.04765 70.877483 79.240802 71.199178 79.418077 71.531509 C 79.595353 71.862953 79.755872 72.202373 79.899633 72.548883 C 80.043393 72.896279 80.170397 73.249878 80.279761 73.609681 C 80.389125 73.968598 80.48085 74.332832 80.554936 74.701497 C 80.629021 75.070162 80.684585 75.441486 80.72251 75.815468 C 80.759552 76.18945 80.778956 76.564319 80.779838 76.940074 Z M 78.359715 77.080096 C 78.357951 76.787645 78.341193 76.496967 78.310324 76.206288 C 78.279455 75.91561 78.234475 75.627591 78.175383 75.341343 C 78.116291 75.055096 78.04397 74.772394 77.957537 74.493236 C 77.871104 74.214079 77.771441 73.940239 77.658549 73.67083 C 77.545657 73.401421 77.419536 73.138215 77.280184 72.881213 C 77.141715 72.623325 76.990899 72.374298 76.827734 72.131476 C 76.66457 71.889539 76.48994 71.655579 76.304727 71.429594 C 76.118631 71.204496 75.921952 70.988259 75.715571 70.782658 C 75.508309 70.57617 75.292226 70.380317 75.066442 70.195098 C 74.840658 70.009879 74.606054 69.836181 74.363513 69.674004 C 74.120089 69.510941 73.870492 69.36117 73.612957 69.222921 C 73.355422 69.084671 73.091713 68.959715 72.821831 68.847166 C 72.551948 68.734617 72.277656 68.636247 71.998072 68.550284 C 71.719369 68.464322 71.436257 68.392538 71.149617 68.334934 C 70.863859 68.276444 70.575455 68.23302 70.284406 68.202888 C 69.994238 68.172757 69.702306 68.156805 69.410374 68.155033 C 69.118443 68.15326 68.826511 68.165667 68.535461 68.19314 C 68.245293 68.219726 67.956007 68.260492 67.669367 68.315438 C 67.381845 68.370383 67.098733 68.438621 66.818267 68.521039 C 66.537801 68.604343 66.262627 68.700055 65.991862 68.809059 C 65.720216 68.918949 65.455625 69.041247 65.196326 69.175952 C 64.937909 69.311542 64.685666 69.458654 64.441361 69.618172 C 64.196173 69.777691 63.959805 69.949617 63.732257 70.132177 C 63.503827 70.314737 63.285981 70.507931 63.076954 70.711761 C 62.867046 70.91559 62.668603 71.129168 62.479861 71.352494 C 62.292002 71.575819 62.114726 71.808008 61.948916 72.049058 C 61.783106 72.289222 61.629643 72.537362 61.488528 72.792592 C 61.346531 73.048707 61.217764 73.310141 61.101344 73.578663 C 60.985806 73.8463 60.882615 74.119254 60.793537 74.397525 C 60.703576 74.675797 60.627726 74.957613 60.565988 75.242974 C 60.503369 75.528335 60.455742 75.816354 60.421346 76.106146 C 60.387831 76.396824 60.367545 76.687503 60.362254 76.979953 C 60.35608 77.271518 60.3649 77.563968 60.387831 77.854647 C 60.40988 78.146211 60.446923 78.435117 60.498077 78.723137 C 60.549231 79.011156 60.613615 79.295631 60.69211 79.576561 C 60.770605 79.858377 60.863212 80.134876 60.968166 80.40783 C 61.074003 80.679897 61.193069 80.946648 61.324482 81.207195 C 61.455895 81.468628 61.599656 81.722085 61.755765 81.969339 C 61.911873 82.215707 62.080329 82.454098 62.259369 82.684514 C 62.439291 82.915816 62.629796 83.136483 62.830885 83.348288 C 63.031092 83.56098 63.242765 83.76215 63.463257 83.953573 C 63.683749 84.144995 63.913061 84.325782 64.151193 84.494163 C 64.389324 84.66343 64.635394 84.82029 64.889401 84.965629 C 65.142526 85.110968 65.402707 85.243014 65.669062 85.363539 C 65.935416 85.483178 66.207063 85.589524 66.484001 85.683463 C 66.760939 85.776515 67.041405 85.856274 67.326281 85.921854 C 67.611157 85.98832 67.897797 86.040607 68.187965 86.077828 C 68.477251 86.115935 68.768301 86.139863 69.060233 86.149611 C 69.360984 86.155815 69.662618 86.146953 69.962487 86.123025 C 70.263238 86.099097 70.562226 86.060104 70.858568 86.006931 C 71.154909 85.953758 71.448605 85.885519 71.738773 85.803101 C 72.028059 85.720684 72.313817 85.6232 72.593401 85.512423 C 72.873867 85.401646 73.148159 85.277576 73.416278 85.139327 C 73.684396 85.001078 73.944577 84.850421 74.197702 84.686472 C 74.450828 84.522522 74.695133 84.347052 74.930619 84.158288 C 75.166105 83.970411 75.391889 83.771012 75.607971 83.56098 C 75.823171 83.350061 76.02867 83.129393 76.222703 82.898978 C 76.415855 82.668562 76.598422 82.428398 76.768642 82.179372 C 76.938862 81.930346 77.095853 81.67423 77.240496 81.409252 C 77.385139 81.14516 77.516552 80.873978 77.634736 80.596593 C 77.752038 80.319208 77.85611 80.036506 77.946071 79.748486 C 78.036032 79.461353 78.110999 79.169789 78.171855 78.874679 C 78.232711 78.57957 78.279455 78.281802 78.310324 77.982262 C 78.342075 77.681835 78.358833 77.381408 78.359715 77.080096 Z M 78.359715 77.080096 " stroke="#1fb3ae" stroke-width="2.43" stroke-opacity="1" stroke-miterlimit="10"/></g><path fill="#1fb3ae" d="M 182.617188 164.980469 C 188.375 218.800781 170.835938 261.25 128.894531 294.351562 C 112.195312 258.117188 142.003906 186.140625 182.617188 164.980469 Z M 133.898438 274.738281 C 159.1875 257.8125 178.984375 210.117188 171.988281 183.582031 C 168.945312 186.535156 166.0625 189.636719 163.335938 192.878906 C 160.609375 196.125 158.054688 199.496094 155.671875 203 C 153.289062 206.5 151.089844 210.113281 149.074219 213.839844 C 147.058594 217.5625 145.238281 221.375 143.613281 225.285156 C 141.984375 229.191406 140.558594 233.171875 139.339844 237.222656 C 138.117188 241.273438 137.101562 245.375 136.296875 249.527344 C 135.492188 253.679688 134.902344 257.863281 134.523438 262.074219 C 134.144531 266.285156 133.980469 270.507812 134.03125 274.738281 Z M 133.898438 274.738281 " fill-opacity="1" fill-rule="nonzero"/><g clip-path="url(#dfc6861207)"><path stroke-linecap="butt" transform="matrix(4.42901, 0, 0, 4.407795, -131.399723, 140.871767)" fill="none" stroke-linejoin="miter" d="M 70.90002 5.469561 C 72.200043 17.67982 68.240001 27.310309 58.770299 34.820088 C 54.999882 26.599565 61.730188 10.270183 70.90002 5.469561 Z M 59.900102 30.370406 C 65.60997 26.53044 70.079789 15.709766 68.500182 9.689713 C 67.813128 10.359691 67.162235 11.063345 66.546621 11.798903 C 65.931006 12.535347 65.354199 13.300149 64.816197 14.095083 C 64.278196 14.889131 63.781648 15.708879 63.326552 16.554328 C 62.871456 17.39889 62.460458 18.263835 62.093559 19.150935 C 61.725778 20.037149 61.403859 20.940202 61.128685 21.859206 C 60.852628 22.77821 60.623316 23.708735 60.441631 24.65078 C 60.259945 25.592826 60.126768 26.541961 60.041217 27.4973 C 59.955666 28.452639 59.918623 29.410636 59.930089 30.370406 Z M 59.900102 30.370406 " stroke="#1fb3ae" stroke-width="2.43" stroke-opacity="1" stroke-miterlimit="10"/></g><path fill="#1fb3ae" d="M 116.226562 272.445312 C 115.167969 270.027344 114.1875 267.582031 113.285156 265.105469 C 112.382812 262.628906 111.558594 260.125 110.8125 257.59375 C 110.070312 255.066406 109.402344 252.515625 108.820312 249.945312 C 108.238281 247.375 107.734375 244.789062 107.3125 242.1875 C 106.894531 239.585938 106.554688 236.972656 106.300781 234.351562 C 106.042969 231.726562 105.871094 229.097656 105.78125 226.464844 C 105.691406 223.832031 105.683594 221.199219 105.761719 218.5625 C 105.839844 215.929688 105.996094 213.300781 106.242188 210.675781 C 106.484375 208.050781 106.808594 205.4375 107.214844 202.832031 C 107.625 200.230469 108.113281 197.640625 108.683594 195.066406 C 109.257812 192.496094 109.90625 189.941406 110.640625 187.410156 C 111.371094 184.878906 112.183594 182.371094 113.074219 179.886719 C 113.964844 177.40625 114.933594 174.957031 115.980469 172.535156 C 117.023438 170.113281 118.144531 167.726562 119.34375 165.375 C 120.539062 163.023438 121.808594 160.714844 123.148438 158.441406 C 124.492188 156.167969 125.90625 153.941406 127.386719 151.757812 C 132.347656 163.527344 137.351562 174.0625 141.027344 185.082031 C 141.4375 187.179688 141.449219 189.277344 141.058594 191.378906 C 140.667969 193.480469 139.90625 195.433594 138.769531 197.246094 C 135.308594 202.902344 132.226562 208.753906 129.523438 214.804688 C 126.820312 220.855469 124.515625 227.050781 122.613281 233.394531 C 120.710938 239.742188 119.226562 246.179688 118.15625 252.714844 C 117.089844 259.25 116.445312 265.828125 116.226562 272.445312 Z M 116.226562 272.445312 " fill-opacity="1" fill-rule="nonzero"/><g clip-path="url(#25c5f0bce8)"><path stroke-linecap="butt" transform="matrix(4.42901, 0, 0, 4.407795, -131.399723, 140.871767)" fill="none" stroke-linejoin="miter" d="M 55.910074 29.850199 C 55.67106 29.301632 55.449686 28.746862 55.245951 28.185002 C 55.042216 27.623142 54.856121 27.055079 54.687665 26.480812 C 54.52009 25.907432 54.369274 25.328734 54.23786 24.745605 C 54.106447 24.162476 53.992673 23.575802 53.89742 22.985584 C 53.80305 22.395365 53.726318 21.802488 53.66899 21.207838 C 53.61078 20.612302 53.571974 20.01588 53.551688 19.418572 C 53.531403 18.821264 53.529639 18.223955 53.547279 17.625761 C 53.564918 17.028452 53.600197 16.43203 53.655761 15.836494 C 53.710443 15.240958 53.783646 14.648081 53.875371 14.056976 C 53.967978 13.466758 54.078224 12.879198 54.206991 12.295182 C 54.336641 11.712054 54.483048 11.13247 54.648858 10.558203 C 54.813786 9.983936 54.997236 9.414987 55.198325 8.851354 C 55.399414 8.288608 55.618142 7.732952 55.85451 7.183499 C 56.089995 6.634047 56.343121 6.09257 56.613885 5.559069 C 56.883768 5.025568 57.170408 4.501815 57.472923 3.986039 C 57.77632 3.470262 58.095593 2.96512 58.429859 2.469726 C 59.54996 5.139889 60.679763 7.530009 61.509695 10.030019 C 61.602302 10.505916 61.604948 10.981813 61.516751 11.458596 C 61.428554 11.93538 61.25657 12.378487 60.999917 12.78969 C 60.218493 14.072928 59.522619 15.400477 58.912296 16.773223 C 58.301974 18.145968 57.781612 19.551504 57.352093 20.990716 C 56.922574 22.430814 56.587426 23.891295 56.345766 25.373931 C 56.104989 26.856567 55.959464 28.348952 55.910074 29.850199 Z M 55.910074 29.850199 " stroke="#1fb3ae" stroke-width="2.43" stroke-opacity="1" stroke-miterlimit="10"/></g><g clip-path="url(#07f2873807)"><path stroke-linecap="butt" transform="matrix(7.381337, 0, 0, 7.378265, 365.877146, -574.719263)" fill="none" stroke-linejoin="miter" d="M 91.79001 76.439744 C 91.79001 76.439744 58.999859 55.219796 52.259888 51.230037 C 51.800008 52.239653 51.466608 53.289506 51.260217 54.380125 C 49.659898 59.230202 42.880236 64.140105 39.480086 68.65982 C 38.890021 69.440195 44.139747 77.760134 44.139747 77.760134 C 44.139747 77.760134 44.870052 82.760039 45.000236 83.920013 C 45.067446 85.420937 45.280716 86.901214 45.640047 88.359785 C 46.739737 93.160096 47.059907 95.300038 52.090013 94.659961 C 54.620148 94.340188 57.200029 93.160096 58.229864 96.860258 C 58.300249 97.120207 58.97975 97.349978 59.379829 97.360037 C 62.3799 97.360037 65.30006 97.360037 68.380041 97.360037 C 68.32024 96.560074 67.220021 95.439807 65.80016 94.970205 C 62.90011 95.320156 60.200099 96.179945 58.100209 92.970032 C 57.549834 92.129832 55.339869 92.229893 53.889844 92.180127 C 52.528196 92.257423 51.168136 92.234129 49.810192 92.110243 C 49.590042 92.046182 49.382064 91.955121 49.186258 91.836529 C 48.990452 91.717938 48.813168 91.576581 48.654406 91.4114 C 48.495644 91.246219 48.360696 91.064096 48.249563 90.863443 C 48.138959 90.66332 48.055344 90.452079 47.999778 90.230249 C 47.210202 85.820125 46.630192 77.099939 46.630192 77.099939 C 46.630192 77.099939 42.339916 69.330074 42.000166 69.320015 C 42.550011 68.370224 52.249833 60.630006 53.399798 54.570189 C 57.939859 57.160144 61.180189 59.349853 65.030165 61.569739 C 65.37997 61.769862 89.390059 77.410183 90.15 78.239795 C 91.28991 78.089967 91.79001 76.439744 91.79001 76.439744 Z M 91.79001 76.439744 " stroke="#1fb3ae" stroke-width="2.43" stroke-opacity="1" stroke-miterlimit="10"/></g><g clip-path="url(#1843d6f4e0)"><path stroke-linecap="butt" transform="matrix(7.381337, 0, 0, 7.378265, 365.877146, -574.719263)" fill="none" stroke-linejoin="miter" d="M 99.769911 96.709901 C 99.210011 96.12012 97.139756 93.289805 96.599966 92.710083 C 92.739935 88.440257 93.40991 78.300149 92.819845 77.950198 C 88.46977 75.39995 80.250138 70.130038 79.070008 69.800205 C 79.158914 70.158627 79.222419 70.522343 79.259993 70.889765 C 80.330048 71.969795 81.960003 73.630077 81.829818 73.11018 C 85.409899 75.379832 90.960214 80.180143 90.83003 85.229814 C 90.75012 88.77009 93.119905 92.540137 95.650041 95.379982 L 74.170087 95.379982 C 72.850246 95.379982 70.579951 95.87976 69.830066 94.659961 C 68.709736 92.849852 70.500041 88.05007 71.609787 87.659883 C 71.165253 87.862124 70.70061 87.989715 70.214799 88.042658 C 69.729517 88.095601 69.247939 88.071247 68.770066 87.970127 C 66.909906 89.189926 65.95998 92.900147 66.539991 95.240213 C 66.74003 96.050236 67.930215 97.239857 68.680101 97.239857 C 79.039843 97.380155 89.400114 97.32986 99.730221 97.32986 C 99.759857 96.910025 99.820186 96.760197 99.769911 96.709901 Z M 99.769911 96.709901 " stroke="#1fb3ae" stroke-width="2.43" stroke-opacity="1" stroke-miterlimit="10"/></g><path fill="#343434" d="M 372.003906 454.253906 L 372.003906 432.117188 L 394.148438 432.117188 L 394.148438 249.210938 L 372.003906 249.210938 L 372.003906 227.078125 L 440.871094 227.078125 L 440.871094 249.210938 L 418.726562 249.210938 L 418.726562 432.265625 L 440.871094 432.265625 L 440.871094 454.402344 Z M 372.003906 454.253906 " fill-opacity="1" fill-rule="nonzero"/><g clip-path="url(#12f2300e8b)"><path stroke-linecap="butt" transform="matrix(7.381337, 0, 0, 7.378265, 365.877146, -574.719263)" fill="none" stroke-linejoin="miter" d="M 0.830034 139.460042 L 0.830034 136.459782 L 3.830104 136.459782 L 3.830104 111.669909 L 0.830034 111.669909 L 0.830034 108.670178 L 10.159941 108.670178 L 10.159941 111.669909 L 7.15987 111.669909 L 7.15987 136.4799 L 10.159941 136.4799 L 10.159941 139.48016 Z M 0.830034 139.460042 " stroke="#343434" stroke-width="1.65" stroke-opacity="1" stroke-miterlimit="10"/></g><path fill="#343434" d="M 554.542969 293.113281 C 559.753906 293.074219 564.898438 293.625 569.984375 294.757812 C 575.066406 295.890625 579.960938 297.582031 584.660156 299.828125 C 589.230469 301.949219 593.398438 304.679688 597.167969 308.019531 C 600.9375 311.363281 604.148438 315.171875 606.804688 319.453125 C 609.609375 324.058594 611.710938 328.964844 613.105469 334.171875 C 614.496094 339.382812 615.128906 344.683594 614.996094 350.074219 L 614.996094 454.253906 L 592.113281 454.253906 L 592.113281 360.03125 C 592.113281 329.265625 578.386719 313.769531 550.851562 313.769531 C 549.125 313.664062 547.394531 313.664062 545.664062 313.773438 C 543.933594 313.886719 542.21875 314.101562 540.515625 314.429688 C 538.8125 314.753906 537.136719 315.183594 535.488281 315.722656 C 533.839844 316.257812 532.230469 316.894531 530.664062 317.636719 C 529.097656 318.375 527.582031 319.207031 526.117188 320.136719 C 524.652344 321.066406 523.253906 322.082031 521.921875 323.1875 C 520.585938 324.292969 519.324219 325.476562 518.136719 326.742188 C 516.953125 328.007812 515.851562 329.339844 514.832031 330.742188 C 512.695312 334.121094 510.832031 337.644531 509.238281 341.3125 C 507.644531 344.980469 506.339844 348.746094 505.324219 352.617188 C 504.308594 356.484375 503.597656 360.40625 503.1875 364.382812 C 502.777344 368.359375 502.671875 372.347656 502.875 376.339844 L 502.875 454.253906 L 480.214844 454.253906 L 480.214844 298.5 L 502.875 298.5 L 502.875 324.46875 C 505.285156 319.726562 508.28125 315.390625 511.863281 311.460938 C 515.445312 307.527344 519.488281 304.140625 523.984375 301.300781 C 528.585938 298.515625 533.484375 296.425781 538.679688 295.03125 C 543.878906 293.640625 549.164062 293 554.542969 293.113281 Z M 554.542969 293.113281 " fill-opacity="1" fill-rule="nonzero"/><g clip-path="url(#5869e95a2d)"><path stroke-linecap="butt" transform="matrix(7.381337, 0, 0, 7.378265, 365.877146, -574.719263)" fill="none" stroke-linejoin="miter" d="M 25.559844 117.620135 C 26.265805 117.614841 26.962769 117.68949 27.651796 117.843024 C 28.340293 117.996558 29.003389 118.225799 29.640024 118.53022 C 30.259195 118.817698 30.823858 119.187767 31.334542 119.640427 C 31.845227 120.093616 32.280234 120.609807 32.640094 121.190059 C 33.020065 121.814253 33.304777 122.479213 33.493704 123.184938 C 33.682102 123.891194 33.767833 124.609625 33.74984 125.340234 L 33.74984 139.460042 L 30.64975 139.460042 L 30.64975 126.689743 C 30.64975 122.519979 28.790119 120.419743 25.059744 120.419743 C 24.825834 120.405449 24.591396 120.405449 24.356958 120.420273 C 24.122519 120.435626 23.890198 120.464744 23.659464 120.509216 C 23.42873 120.553159 23.2017 120.611396 22.978375 120.684456 C 22.75505 120.756988 22.537017 120.843284 22.324806 120.943876 C 22.112594 121.043937 21.907262 121.156705 21.708809 121.282709 C 21.510357 121.408712 21.320901 121.546363 21.140442 121.696191 C 20.959453 121.846019 20.78852 122.006435 20.627641 122.177969 C 20.467291 122.349503 20.318055 122.530038 20.179932 122.720102 C 19.890457 123.178056 19.638025 123.655599 19.422109 124.15273 C 19.206193 124.649862 19.029438 125.160229 18.891844 125.684891 C 18.754251 126.209023 18.657935 126.740568 18.602369 127.279524 C 18.546802 127.81848 18.532513 128.359025 18.560032 128.900099 L 18.560032 139.460042 L 15.490106 139.460042 L 15.490106 118.350215 L 18.560032 118.350215 L 18.560032 121.869843 C 18.886552 121.227119 19.292454 120.639455 19.777736 120.106852 C 20.263018 119.573719 20.810746 119.114707 21.419863 118.729813 C 22.043268 118.352332 22.706892 118.069089 23.410737 117.880084 C 24.11511 117.691608 24.831126 117.604782 25.559844 117.620135 Z M 25.559844 117.620135 " stroke="#343434" stroke-width="1.65" stroke-opacity="1" stroke-miterlimit="10"/></g><path fill="#343434" d="M 755.316406 454.253906 L 700.695312 374.050781 L 681.722656 392.351562 L 681.722656 454.253906 L 659.0625 454.253906 L 659.0625 212.542969 L 681.722656 212.542969 L 681.722656 363.648438 L 749.707031 298.5 L 779.230469 298.5 L 716.34375 359 L 780.5625 454.253906 Z M 755.316406 454.253906 " fill-opacity="1" fill-rule="nonzero"/><g clip-path="url(#a18790746d)"><path stroke-linecap="butt" transform="matrix(7.381337, 0, 0, 7.378265, 365.877146, -574.719263)" fill="none" stroke-linejoin="miter" d="M 52.759988 139.460042 L 45.360097 128.589855 L 42.789742 131.070219 L 42.789742 139.460042 L 39.719816 139.460042 L 39.719816 106.700182 L 42.789742 106.700182 L 42.789742 127.179992 L 52.000048 118.350215 L 55.999789 118.350215 L 47.480097 126.549974 L 56.180248 139.460042 Z M 52.759988 139.460042 " stroke="#343434" stroke-width="1.65" stroke-opacity="1" stroke-miterlimit="10"/></g><path fill="#1fb3ae" d="M 1065.40625 293.113281 C 1070.628906 293.070312 1075.785156 293.617188 1080.882812 294.75 C 1085.980469 295.886719 1090.882812 297.578125 1095.597656 299.828125 C 1100.164062 301.949219 1104.335938 304.679688 1108.105469 308.019531 C 1111.875 311.363281 1115.085938 315.171875 1117.738281 319.453125 C 1120.546875 324.058594 1122.644531 328.964844 1124.039062 334.171875 C 1125.433594 339.382812 1126.066406 344.683594 1125.933594 350.074219 L 1125.933594 454.253906 L 1103.050781 454.253906 L 1103.050781 360.03125 C 1103.050781 329.265625 1089.25 313.769531 1061.789062 313.769531 C 1060.058594 313.660156 1058.328125 313.660156 1056.597656 313.765625 C 1054.867188 313.875 1053.148438 314.089844 1051.445312 314.414062 C 1049.742188 314.738281 1048.066406 315.167969 1046.417969 315.703125 C 1044.769531 316.238281 1043.160156 316.878906 1041.589844 317.617188 C 1040.023438 318.355469 1038.507812 319.191406 1037.042969 320.121094 C 1035.582031 321.050781 1034.183594 322.070312 1032.847656 323.175781 C 1031.511719 324.28125 1030.253906 325.46875 1029.070312 326.734375 C 1027.882812 328 1026.785156 329.335938 1025.769531 330.742188 C 1023.632812 334.121094 1021.765625 337.644531 1020.171875 341.3125 C 1018.578125 344.980469 1017.273438 348.746094 1016.261719 352.617188 C 1015.246094 356.484375 1014.535156 360.40625 1014.125 364.382812 C 1013.710938 368.359375 1013.609375 372.347656 1013.8125 376.339844 L 1013.8125 454.253906 L 991.078125 454.253906 L 991.078125 298.5 L 1013.8125 298.5 L 1013.8125 324.46875 C 1016.222656 319.726562 1019.21875 315.390625 1022.800781 311.460938 C 1026.382812 307.527344 1030.421875 304.140625 1034.921875 301.300781 C 1039.511719 298.519531 1044.398438 296.433594 1049.582031 295.039062 C 1054.765625 293.648438 1060.039062 293.003906 1065.40625 293.113281 Z M 1065.40625 293.113281 " fill-opacity="1" fill-rule="nonzero"/><g clip-path="url(#02888e6dba)"><path stroke-linecap="butt" transform="matrix(7.381337, 0, 0, 7.378265, 365.877146, -574.719263)" fill="none" stroke-linejoin="miter" d="M 94.76997 117.620135 C 95.477519 117.614312 96.176072 117.688431 96.866686 117.841965 C 97.5573 117.996028 98.221454 118.22527 98.860206 118.53022 C 99.478848 118.817698 100.04404 119.187767 100.554724 119.640427 C 101.065408 120.093616 101.500416 120.609807 101.859747 121.190059 C 102.240246 121.814253 102.52443 122.479213 102.713357 123.184938 C 102.902283 123.891194 102.988015 124.609625 102.970022 125.340234 L 102.970022 139.460042 L 99.869931 139.460042 L 99.869931 126.689743 C 99.869931 122.519979 98.000246 120.419743 94.279925 120.419743 C 94.045487 120.404919 93.811049 120.404919 93.57661 120.419214 C 93.342172 120.434038 93.109321 120.463156 92.878587 120.507099 C 92.647853 120.551041 92.420824 120.609278 92.197499 120.681809 C 91.974174 120.754341 91.756141 120.841167 91.5434 120.941228 C 91.331188 121.04129 91.125856 121.154587 90.927404 121.280591 C 90.729481 121.406594 90.540025 121.544775 90.359036 121.694602 C 90.178048 121.84443 90.007643 122.005376 89.847294 122.17691 C 89.686415 122.348444 89.537708 122.529508 89.400114 122.720102 C 89.110638 123.178056 88.857678 123.655599 88.641762 124.15273 C 88.425846 124.649862 88.249091 125.160229 88.112026 125.684891 C 87.974433 126.209023 87.878117 126.740568 87.82255 127.279524 C 87.766455 127.81848 87.752695 128.359025 87.780214 128.900099 L 87.780214 139.460042 L 84.700233 139.460042 L 84.700233 118.350215 L 87.780214 118.350215 L 87.780214 121.869843 C 88.106734 121.227119 88.512635 120.639455 88.997918 120.106852 C 89.4832 119.573719 90.030399 119.114707 90.640045 118.729813 C 91.261862 118.352862 91.923899 118.070148 92.626156 117.881143 C 93.328413 117.692667 94.042841 117.605311 94.76997 117.620135 Z M 94.76997 117.620135 " stroke="#1fb3ae" stroke-width="2.07" stroke-opacity="1" stroke-miterlimit="10"/></g><path fill="#1fb3ae" d="M 1237.242188 293.113281 C 1243.933594 292.992188 1250.507812 293.796875 1256.96875 295.527344 C 1263.429688 297.257812 1269.527344 299.847656 1275.257812 303.292969 C 1280.875 306.695312 1285.9375 310.78125 1290.449219 315.550781 C 1294.960938 320.320312 1298.753906 325.605469 1301.832031 331.40625 C 1305.121094 337.496094 1307.59375 343.90625 1309.242188 350.628906 C 1310.894531 357.355469 1311.671875 364.175781 1311.574219 371.101562 C 1311.574219 375.378906 1311.574219 378.480469 1311.203125 380.839844 L 1182.992188 380.839844 C 1183.121094 384.5625 1183.550781 388.25 1184.289062 391.902344 C 1185.023438 395.554688 1186.054688 399.125 1187.378906 402.605469 C 1188.703125 406.089844 1190.304688 409.441406 1192.179688 412.660156 C 1194.058594 415.878906 1196.1875 418.921875 1198.566406 421.789062 C 1199.761719 423.1875 1201.027344 424.511719 1202.375 425.765625 C 1203.71875 427.019531 1205.128906 428.191406 1206.609375 429.285156 C 1208.085938 430.378906 1209.621094 431.382812 1211.210938 432.300781 C 1212.804688 433.222656 1214.445312 434.046875 1216.128906 434.78125 C 1217.816406 435.511719 1219.539062 436.148438 1221.296875 436.683594 C 1223.054688 437.222656 1224.835938 437.65625 1226.644531 437.992188 C 1228.453125 438.328125 1230.273438 438.558594 1232.105469 438.6875 C 1233.941406 438.816406 1235.777344 438.839844 1237.613281 438.757812 C 1243.363281 438.972656 1249.042969 438.457031 1254.660156 437.207031 C 1260.273438 435.957031 1265.640625 434.015625 1270.753906 431.382812 C 1275.128906 428.890625 1279.109375 425.871094 1282.6875 422.332031 C 1286.269531 418.792969 1289.328125 414.847656 1291.867188 410.5 L 1309.875 422.527344 C 1306.289062 428.214844 1302.039062 433.351562 1297.121094 437.9375 C 1292.207031 442.527344 1286.789062 446.417969 1280.867188 449.605469 C 1274.304688 453.035156 1267.417969 455.589844 1260.203125 457.265625 C 1252.988281 458.9375 1245.679688 459.679688 1238.277344 459.492188 C 1231.183594 459.605469 1224.207031 458.753906 1217.347656 456.933594 C 1210.492188 455.117188 1204.007812 452.402344 1197.902344 448.792969 C 1192.03125 445.25 1186.753906 440.96875 1182.078125 435.957031 C 1177.398438 430.941406 1173.496094 425.382812 1170.367188 419.28125 C 1166.945312 412.636719 1164.382812 405.675781 1162.683594 398.394531 C 1160.984375 391.117188 1160.199219 383.738281 1160.332031 376.265625 C 1160.199219 368.828125 1160.964844 361.484375 1162.625 354.234375 C 1164.285156 346.980469 1166.792969 340.039062 1170.148438 333.398438 C 1173.21875 327.292969 1177.078125 321.734375 1181.722656 316.714844 C 1186.363281 311.699219 1191.609375 307.421875 1197.457031 303.882812 C 1203.457031 300.273438 1209.839844 297.550781 1216.597656 295.722656 C 1223.359375 293.890625 1230.242188 293.019531 1237.242188 293.113281 Z M 1288.914062 362.394531 C 1288.65625 359 1288.109375 355.65625 1287.273438 352.355469 C 1286.4375 349.058594 1285.324219 345.855469 1283.933594 342.75 C 1282.542969 339.644531 1280.898438 336.679688 1278.996094 333.859375 C 1277.089844 331.035156 1274.960938 328.398438 1272.601562 325.945312 C 1270.191406 323.839844 1267.605469 321.984375 1264.835938 320.378906 C 1262.070312 318.777344 1259.175781 317.453125 1256.152344 316.410156 C 1253.125 315.367188 1250.03125 314.621094 1246.863281 314.179688 C 1243.695312 313.734375 1240.511719 313.597656 1237.316406 313.769531 C 1234.042969 313.65625 1230.789062 313.875 1227.558594 314.421875 C 1224.324219 314.972656 1221.183594 315.84375 1218.132812 317.039062 C 1215.078125 318.230469 1212.175781 319.71875 1209.429688 321.503906 C 1206.679688 323.292969 1204.144531 325.335938 1201.8125 327.640625 C 1199.503906 330 1197.390625 332.519531 1195.472656 335.203125 C 1193.554688 337.886719 1191.859375 340.703125 1190.378906 343.652344 C 1188.902344 346.601562 1187.660156 349.648438 1186.65625 352.792969 C 1185.652344 355.933594 1184.898438 359.132812 1184.394531 362.394531 Z M 1288.914062 362.394531 " fill-opacity="1" fill-rule="nonzero"/><g clip-path="url(#4c03868e94)"><path stroke-linecap="butt" transform="matrix(7.381337, 0, 0, 7.378265, 365.877146, -574.719263)" fill="none" stroke-linejoin="miter" d="M 118.049755 117.620135 C 118.956285 117.603723 119.846939 117.712785 120.722247 117.947321 C 121.597554 118.181857 122.423645 118.532867 123.19999 118.999821 C 123.960989 119.460952 124.64684 120.014732 125.258074 120.661162 C 125.869307 121.307592 126.383166 122.023906 126.800181 122.810104 C 127.245772 123.63548 127.58076 124.50427 127.804085 125.415413 C 128.027939 126.327085 128.133251 127.251464 128.120021 128.190138 C 128.120021 128.76986 128.120021 129.190225 128.069747 129.509998 L 110.700138 129.509998 C 110.717602 130.014542 110.775815 130.514321 110.875835 131.009334 C 110.975325 131.504348 111.115036 131.988244 111.294437 132.459963 C 111.473838 132.932212 111.690812 133.38646 111.944831 133.822708 C 112.199379 134.258955 112.487797 134.671378 112.810083 135.059978 C 112.972021 135.249512 113.143483 135.428988 113.32606 135.598934 C 113.508107 135.76888 113.69915 135.927708 113.899719 136.075947 C 114.099759 136.224187 114.307737 136.360249 114.523124 136.484665 C 114.73904 136.609609 114.961307 136.721318 115.189395 136.820851 C 115.418012 136.919853 115.651392 137.00615 115.889535 137.078681 C 116.127678 137.151742 116.368996 137.210509 116.614018 137.256039 C 116.859041 137.30157 117.105651 137.332806 117.353849 137.350277 C 117.602576 137.367748 117.851303 137.370925 118.10003 137.359807 C 118.879021 137.388925 119.648487 137.319041 120.409486 137.149624 C 121.169955 136.980208 121.897085 136.717083 122.589816 136.360249 C 123.182527 136.022475 123.721788 135.613228 124.206541 135.133568 C 124.691823 134.653907 125.106191 134.119186 125.450176 133.529935 L 127.889817 135.160039 C 127.404005 135.930884 126.828229 136.62708 126.161958 137.248627 C 125.496217 137.870704 124.762207 138.398012 123.959931 138.830025 C 123.070864 139.294861 122.137873 139.641106 121.160429 139.86823 C 120.182985 140.094825 119.19284 140.195416 118.189995 140.170003 C 117.228956 140.185357 116.283794 140.069942 115.354507 139.823229 C 114.42575 139.577046 113.547268 139.209094 112.720118 138.719904 C 111.924721 138.239714 111.209764 137.659462 110.576304 136.980208 C 109.942315 136.300424 109.413638 135.54705 108.989743 134.720086 C 108.526159 133.819531 108.178999 132.876093 107.948795 131.889242 C 107.71859 130.90292 107.612219 129.902833 107.630212 128.89004 C 107.612219 127.882011 107.715944 126.886689 107.940856 125.904074 C 108.165769 124.920928 108.50552 123.980137 108.960108 123.080112 C 109.376064 122.252618 109.89892 121.499244 110.528146 120.818931 C 111.156843 120.139147 111.867567 119.559425 112.659789 119.079764 C 113.47265 118.590574 114.337373 118.221564 115.2529 117.973792 C 116.168956 117.725491 117.101417 117.607429 118.049755 117.620135 Z M 125.050096 127.010046 C 125.015168 126.549974 124.941079 126.096785 124.827829 125.649419 C 124.714579 125.202583 124.563755 124.768453 124.375358 124.347559 C 124.18696 123.926665 123.964164 123.52483 123.706441 123.142584 C 123.448188 122.759809 123.159771 122.402446 122.84013 122.069966 C 122.51361 121.784605 122.163275 121.533127 121.788068 121.315533 C 121.41339 121.098468 121.021248 120.918992 120.611643 120.777636 C 120.201508 120.636279 119.782376 120.535158 119.35319 120.475333 C 118.924004 120.414978 118.492701 120.396448 118.05981 120.419743 C 117.616335 120.40439 117.175506 120.434038 116.737853 120.508157 C 116.29967 120.582807 115.874188 120.700869 115.460878 120.862873 C 115.047038 121.024348 114.653838 121.22606 114.281806 121.468008 C 113.909245 121.710485 113.56579 121.987375 113.249854 122.299737 C 112.937093 122.619511 112.650792 122.960991 112.390952 123.324707 C 112.131112 123.688423 111.901436 124.07014 111.700867 124.469857 C 111.500827 124.869574 111.33254 125.282527 111.196534 125.708715 C 111.060528 126.134374 110.958391 126.567975 110.890123 127.010046 Z M 125.050096 127.010046 " stroke="#1fb3ae" stroke-width="2.07" stroke-opacity="1" stroke-miterlimit="10"/></g><path stroke-linecap="butt" transform="matrix(7.381337, 0, 0, 7.378265, 365.877146, -574.719263)" fill-opacity="1" fill="#1fb3ae" fill-rule="nonzero" stroke-linejoin="miter" d="M 133.750247 139.460042 L 133.750247 121.149822 L 130.140002 121.149822 L 130.140002 118.350215 L 133.750247 118.350215 L 133.750247 111.350136 L 136.820173 111.350136 L 136.820173 118.350215 L 141.699984 118.350215 L 141.699984 121.149822 L 136.820173 121.149822 L 136.820173 139.460042 Z M 133.750247 139.460042 " stroke="#1fb3ae" stroke-width="2.07" stroke-opacity="1" stroke-miterlimit="10"/><g clip-path="url(#f651abb5ce)"><path stroke-linecap="butt" transform="matrix(7.381337, 0, 0, 7.378265, 365.877146, -574.719263)" fill="none" stroke-linejoin="miter" d="M 63.290135 135.180157 C 62.671493 134.55914 62.174568 133.852355 61.79989 133.059804 C 61.471782 132.368373 61.227289 131.648882 61.066939 130.900273 C 60.90659 130.152193 60.834088 129.395113 60.849965 128.630091 C 60.835147 127.879364 60.907648 127.137108 61.068527 126.403852 C 61.228876 125.670596 61.47284 124.96593 61.79989 124.289852 C 62.25977 123.289765 62.12006 123.059994 62.849835 122.429976 " stroke="#1fb3ae" stroke-width="1.65" stroke-opacity="1" stroke-miterlimit="10"/></g><g clip-path="url(#b49b229f6a)"><path stroke-linecap="butt" transform="matrix(7.381337, 0, 0, 7.378265, 365.877146, -574.719263)" fill="none" stroke-linejoin="miter" d="M 60.870074 120.429802 C 60.161996 121.145058 59.575636 121.948198 59.109934 122.839752 C 58.889255 123.292941 58.695037 123.757249 58.527278 124.232144 C 58.35952 124.70704 58.218751 125.189877 58.105501 125.681185 C 57.992251 126.171963 57.907578 126.667507 57.850423 127.168344 C 57.793269 127.669182 57.765221 128.171078 57.765221 128.675093 C 57.765221 129.178577 57.793269 129.681003 57.850423 130.181841 C 57.907578 130.682149 57.992251 131.178222 58.105501 131.669 C 58.218751 132.159779 58.35952 132.643145 58.527278 133.118041 C 58.695037 133.592936 58.889255 134.057244 59.109934 134.509903 C 59.676714 135.597346 60.413899 136.55402 61.3199 137.379925 " stroke="#1fb3ae" stroke-width="1.65" stroke-opacity="1" stroke-miterlimit="10"/></g><path fill="#343434" d="M 926.859375 298.5 L 926.859375 321.738281 C 923.777344 317.328125 920.222656 313.335938 916.195312 309.769531 C 912.164062 306.203125 907.773438 303.160156 903.015625 300.636719 C 898.199219 298.132812 893.148438 296.257812 887.863281 295.007812 C 882.582031 293.757812 877.222656 293.175781 871.792969 293.261719 C 864.804688 293.15625 857.9375 294.015625 851.1875 295.832031 C 844.441406 297.648438 838.070312 300.359375 832.082031 303.957031 L 829.574219 305.582031 L 845.148438 321.148438 C 849.160156 318.703125 853.429688 316.855469 857.957031 315.601562 C 862.484375 314.347656 867.097656 313.738281 871.792969 313.769531 C 876.828125 313.683594 881.773438 314.316406 886.621094 315.671875 C 891.472656 317.03125 896.027344 319.050781 900.285156 321.738281 C 904.527344 324.429688 908.3125 327.65625 911.636719 331.417969 C 914.964844 335.183594 917.699219 339.335938 919.847656 343.875 C 921 346.402344 922.011719 348.980469 922.886719 351.617188 C 923.761719 354.25 924.496094 356.925781 925.085938 359.640625 C 925.675781 362.351562 926.117188 365.089844 926.414062 367.847656 C 926.710938 370.609375 926.859375 373.378906 926.859375 376.15625 C 926.859375 378.929688 926.710938 381.699219 926.414062 384.460938 C 926.117188 387.222656 925.675781 389.957031 925.085938 392.671875 C 924.496094 395.382812 923.761719 398.058594 922.886719 400.691406 C 922.011719 403.328125 921 405.90625 919.847656 408.433594 C 917.679688 412.960938 914.933594 417.105469 911.609375 420.863281 C 908.285156 424.625 904.511719 427.859375 900.285156 430.570312 C 896.027344 433.257812 891.472656 435.277344 886.621094 436.636719 C 881.773438 437.992188 876.828125 438.625 871.792969 438.539062 C 866.851562 438.613281 862.003906 437.972656 857.253906 436.617188 C 852.5 435.257812 848.046875 433.242188 843.890625 430.570312 L 841.457031 428.871094 L 827.285156 445.03125 C 828.980469 446.210938 830.679688 447.390625 832.523438 448.5 C 838.570312 452.097656 844.988281 454.808594 851.785156 456.625 C 858.582031 458.445312 865.496094 459.300781 872.53125 459.195312 C 877.867188 459.269531 883.125 458.683594 888.3125 457.433594 C 893.5 456.183594 898.449219 454.3125 903.164062 451.820312 C 907.828125 449.324219 912.160156 446.347656 916.160156 442.886719 C 920.15625 439.425781 923.722656 435.566406 926.859375 431.308594 L 926.859375 454.253906 L 949.003906 454.253906 L 949.003906 298.5 Z M 926.859375 298.5 " fill-opacity="1" fill-rule="nonzero"/><g clip-path="url(#48857c77a0)"><path stroke-linecap="butt" transform="matrix(7.381337, 0, 0, 7.378265, 365.877146, -574.719263)" fill="none" stroke-linejoin="miter" d="M 76.000082 118.350215 L 76.000082 121.499773 C 75.582538 120.902051 75.100961 120.360977 74.555349 119.87761 C 74.009208 119.394244 73.41438 118.98182 72.769807 118.639811 C 72.117296 118.300448 71.433032 118.046324 70.717016 117.876907 C 70.001529 117.707491 69.275458 117.628606 68.539861 117.640253 C 67.593111 117.625959 66.662766 117.742433 65.748298 117.988616 C 64.834359 118.2348 63.971223 118.602222 63.15995 119.089824 L 62.8202 119.310065 L 64.930145 121.41983 C 65.47364 121.088409 66.052062 120.83799 66.665412 120.668044 C 67.278762 120.498098 67.903755 120.415508 68.539861 120.419743 C 69.222008 120.408096 69.891983 120.493863 70.548728 120.677574 C 71.206002 120.861814 71.823057 121.135528 72.399892 121.499773 C 72.97461 121.864548 73.487411 122.301855 73.937765 122.811693 C 74.388649 123.32206 74.759093 123.88484 75.050157 124.500034 C 75.206273 124.842573 75.343337 125.191995 75.461879 125.549358 C 75.580421 125.906191 75.679912 126.268849 75.759822 126.6368 C 75.839733 127.004222 75.899533 127.37535 75.939753 127.749125 C 75.979972 128.12343 76.000082 128.498793 76.000082 128.875216 C 76.000082 129.251109 75.979972 129.626472 75.939753 130.000777 C 75.899533 130.375081 75.839733 130.74568 75.759822 131.113632 C 75.679912 131.481054 75.580421 131.843711 75.461879 132.200544 C 75.343337 132.557907 75.206273 132.907329 75.050157 133.249868 C 74.756447 133.863473 74.384415 134.425195 73.934061 134.934503 C 73.483706 135.444341 72.972493 135.882707 72.399892 136.250129 C 71.823057 136.614374 71.206002 136.888088 70.548728 137.072328 C 69.891983 137.256039 69.222008 137.341806 68.539861 137.330159 C 67.870415 137.340218 67.21367 137.253392 66.570155 137.069681 C 65.926111 136.885441 65.322816 136.612256 64.759741 136.250129 L 64.430045 136.019828 L 62.510085 138.210066 C 62.73976 138.369953 62.969965 138.52984 63.21975 138.680197 C 64.038962 139.167799 64.908448 139.535221 65.829266 139.781404 C 66.750085 140.028117 67.686781 140.144061 68.639881 140.129767 C 69.362777 140.139826 70.075088 140.060412 70.777874 139.890996 C 71.48066 139.721579 72.151165 139.467984 72.789917 139.130209 C 73.421789 138.791906 74.008679 138.388483 74.550586 137.919411 C 75.091964 137.450339 75.575129 136.927265 76.000082 136.35019 L 76.000082 139.460042 L 79.000152 139.460042 L 79.000152 118.350215 Z M 76.000082 118.350215 " stroke="#343434" stroke-width="1.65" stroke-opacity="1" stroke-miterlimit="10"/></g><g fill="#323232" fill-opacity="1"><g transform="translate(371.290853, 559.768109)"><g><path d="M 15.761719 -19.175781 C 21.035156 -17.917969 24.628906 -16.539062 26.546875 -14.980469 C 27.863281 -13.902344 28.523438 -12.523438 28.523438 -10.847656 C 28.523438 -9.167969 28.164062 -7.789062 27.445312 -6.832031 C 25.648438 -4.316406 22.410156 -3.054688 17.855469 -3.054688 C 11.503906 -3.054688 7.910156 -5.214844 7.132812 -9.527344 L 2.21875 -9.527344 C 3.65625 -2.636719 8.867188 0.777344 17.855469 0.777344 C 21.871094 0.777344 25.226562 -0.0585938 27.925781 -1.859375 C 31.160156 -3.953125 32.839844 -7.070312 32.839844 -11.144531 C 32.839844 -14.5 31.519531 -17.078125 28.882812 -18.875 C 27.027344 -20.195312 24.03125 -21.394531 19.894531 -22.472656 C 15.699219 -23.550781 13.003906 -24.449219 11.746094 -25.109375 C 8.988281 -26.488281 7.609375 -28.402344 7.671875 -30.921875 C 7.671875 -32.238281 7.910156 -33.378906 8.507812 -34.214844 C 10.066406 -36.554688 12.824219 -37.753906 16.777344 -37.753906 C 22.351562 -37.753906 25.527344 -35.953125 26.367188 -32.480469 L 30.921875 -32.480469 C 29.421875 -38.351562 24.6875 -41.347656 16.777344 -41.347656 C 13.183594 -41.347656 10.007812 -40.390625 7.371094 -38.472656 C 4.675781 -36.554688 3.296875 -33.738281 3.296875 -29.902344 C 3.296875 -24.6875 7.492188 -21.09375 15.761719 -19.175781 Z M 15.761719 -19.175781 "/></g></g></g><g fill="#323232" fill-opacity="1"><g transform="translate(405.687489, 559.768109)"><g><path d="M 30.261719 -13.78125 C 30.261719 -17.378906 28.824219 -20.492188 26.066406 -23.191406 C 23.371094 -25.765625 20.132812 -27.085938 16.480469 -27.085938 C 12.644531 -27.085938 9.40625 -25.707031 6.710938 -23.011719 C 4.015625 -20.3125 2.695312 -17.078125 2.695312 -13.304688 C 2.695312 -9.46875 4.015625 -6.230469 6.710938 -3.59375 C 7.96875 -2.335938 9.40625 -1.378906 11.085938 -0.660156 C 12.765625 0.0585938 14.742188 0.417969 17.078125 0.417969 C 19.414062 0.417969 21.691406 -0.300781 23.96875 -1.738281 C 26.246094 -3.175781 27.925781 -5.214844 29.0625 -7.730469 L 24.269531 -7.730469 C 23.308594 -6.472656 22.171875 -5.511719 20.792969 -4.792969 C 19.414062 -4.074219 17.976562 -3.773438 16.480469 -3.773438 C 14.203125 -3.773438 12.164062 -4.496094 10.367188 -5.992188 C 8.570312 -7.429688 7.429688 -9.289062 7.070312 -11.566406 L 30.261719 -11.566406 Z M 25.828125 -15.160156 L 7.132812 -15.160156 C 7.371094 -16.238281 7.789062 -17.257812 8.390625 -18.21875 C 10.308594 -21.332031 13.003906 -22.890625 16.480469 -22.890625 C 18.695312 -22.890625 20.671875 -22.171875 22.410156 -20.734375 C 24.210938 -19.234375 25.289062 -17.378906 25.828125 -15.160156 Z M 25.828125 -15.160156 "/></g></g></g><g fill="#323232" fill-opacity="1"><g transform="translate(438.346292, 559.768109)"><g><path d="M 18.039062 -20.914062 L 18.039062 -26.367188 C 17.199219 -26.726562 16.300781 -26.90625 15.402344 -26.90625 C 12.402344 -26.90625 10.246094 -25.226562 8.867188 -21.992188 L 8.6875 -20.914062 L 8.6875 -26.367188 L 4.496094 -26.367188 L 4.496094 0 L 8.6875 0 L 8.6875 -13.183594 C 8.6875 -15.339844 9.167969 -17.257812 10.1875 -18.996094 C 10.667969 -19.894531 11.324219 -20.671875 12.105469 -21.273438 C 12.882812 -21.871094 13.84375 -22.230469 14.921875 -22.230469 C 16 -22.230469 17.019531 -21.753906 18.039062 -20.914062 Z M 18.039062 -20.914062 "/></g></g></g><g fill="#323232" fill-opacity="1"><g transform="translate(456.982797, 559.768109)"><g><path d="M 12.765625 2.515625 L 24.867188 -26.367188 L 20.3125 -26.367188 L 12.765625 -6.769531 L 5.152344 -26.367188 L 0.597656 -26.367188 Z M 12.765625 2.515625 "/></g></g></g><g fill="#323232" fill-opacity="1"><g transform="translate(482.450701, 559.768109)"><g><path d="M 8.75 -35.476562 C 8.210938 -35.953125 7.550781 -36.253906 6.832031 -36.253906 C 6.113281 -36.253906 5.453125 -35.953125 4.972656 -35.476562 C 4.433594 -34.9375 4.195312 -34.277344 4.195312 -33.558594 C 4.195312 -32.839844 4.433594 -32.179688 4.972656 -31.699219 C 5.453125 -31.160156 6.113281 -30.921875 6.832031 -30.921875 C 7.550781 -30.921875 8.210938 -31.160156 8.75 -31.699219 C 9.226562 -32.179688 9.527344 -32.839844 9.527344 -33.558594 C 9.527344 -34.277344 9.226562 -34.9375 8.75 -35.476562 Z M 8.988281 0 L 8.988281 -26.367188 L 4.792969 -26.367188 L 4.792969 0 Z M 8.988281 0 "/></g></g></g><g fill="#323232" fill-opacity="1"><g transform="translate(496.17339, 559.768109)"><g><path d="M 29.125 -16.898438 C 28.285156 -19.835938 26.667969 -22.230469 24.328125 -24.089844 C 21.871094 -25.945312 19.175781 -26.90625 16.179688 -26.90625 C 12.402344 -26.90625 9.167969 -25.527344 6.589844 -22.832031 C 3.953125 -20.132812 2.695312 -16.898438 2.695312 -13.183594 C 2.695312 -9.40625 3.953125 -6.230469 6.589844 -3.476562 C 7.789062 -2.21875 9.167969 -1.199219 10.847656 -0.480469 C 12.464844 0.238281 14.140625 0.597656 15.820312 0.597656 C 17.496094 0.597656 18.996094 0.417969 20.3125 -0.0585938 C 24.507812 -1.558594 27.386719 -4.375 28.882812 -8.628906 L 24.148438 -8.628906 C 23.308594 -7.132812 22.230469 -5.933594 20.792969 -5.09375 C 19.355469 -4.195312 17.855469 -3.773438 16.179688 -3.773438 C 13.601562 -3.773438 11.445312 -4.675781 9.648438 -6.53125 C 7.851562 -8.390625 7.011719 -10.605469 7.011719 -13.183594 C 7.011719 -15.640625 7.851562 -17.855469 9.648438 -19.714844 C 10.488281 -20.554688 11.445312 -21.273438 12.585938 -21.753906 C 13.664062 -22.230469 15.039062 -22.53125 16.597656 -22.53125 C 18.15625 -22.53125 19.65625 -21.992188 21.214844 -20.972656 C 22.710938 -19.894531 23.851562 -18.578125 24.570312 -16.898438 Z M 29.125 -16.898438 "/></g></g></g><g fill="#323232" fill-opacity="1"><g transform="translate(527.394044, 559.768109)"><g><path d="M 8.75 -35.476562 C 8.210938 -35.953125 7.550781 -36.253906 6.832031 -36.253906 C 6.113281 -36.253906 5.453125 -35.953125 4.972656 -35.476562 C 4.433594 -34.9375 4.195312 -34.277344 4.195312 -33.558594 C 4.195312 -32.839844 4.433594 -32.179688 4.972656 -31.699219 C 5.453125 -31.160156 6.113281 -30.921875 6.832031 -30.921875 C 7.550781 -30.921875 8.210938 -31.160156 8.75 -31.699219 C 9.226562 -32.179688 9.527344 -32.839844 9.527344 -33.558594 C 9.527344 -34.277344 9.226562 -34.9375 8.75 -35.476562 Z M 8.988281 0 L 8.988281 -26.367188 L 4.792969 -26.367188 L 4.792969 0 Z M 8.988281 0 "/></g></g></g><g fill="#323232" fill-opacity="1"><g transform="translate(541.116733, 559.768109)"><g><path d="M 26.066406 -13.304688 C 26.066406 -10.667969 25.109375 -8.449219 23.25 -6.589844 C 21.332031 -4.675781 19.117188 -3.773438 16.480469 -3.773438 C 13.84375 -3.773438 11.566406 -4.675781 9.707031 -6.589844 C 7.789062 -8.449219 6.890625 -10.667969 6.890625 -13.304688 C 6.890625 -15.941406 7.789062 -18.15625 9.707031 -20.074219 C 11.566406 -21.933594 13.84375 -22.890625 16.480469 -22.890625 C 19.117188 -22.890625 21.332031 -21.933594 23.25 -20.074219 C 25.109375 -18.15625 26.066406 -15.941406 26.066406 -13.304688 Z M 30.261719 -13.304688 C 30.261719 -17.078125 28.882812 -20.3125 26.1875 -23.011719 C 23.488281 -25.707031 20.253906 -27.085938 16.480469 -27.085938 C 12.644531 -27.085938 9.40625 -25.707031 6.710938 -23.011719 C 4.015625 -20.3125 2.695312 -17.078125 2.695312 -13.304688 C 2.695312 -9.46875 4.015625 -6.230469 6.710938 -3.59375 C 9.40625 -0.898438 12.703125 0.417969 16.480469 0.417969 C 20.195312 0.417969 23.488281 -0.898438 26.1875 -3.59375 C 28.882812 -6.230469 30.261719 -9.46875 30.261719 -13.304688 Z M 30.261719 -13.304688 "/></g></g></g><g fill="#323232" fill-opacity="1"><g transform="translate(574.07522, 559.768109)"><g><path d="M 8.269531 -3.714844 C 7.25 -4.433594 6.472656 -5.632812 6.050781 -7.371094 L 1.617188 -7.371094 C 2.515625 -1.917969 5.992188 0.777344 12.105469 0.777344 C 13.542969 0.777344 14.859375 0.660156 16.121094 0.300781 C 17.378906 -0.0585938 18.457031 -0.539062 19.476562 -1.199219 C 21.511719 -2.578125 22.53125 -4.675781 22.53125 -7.492188 C 22.53125 -10.367188 21.214844 -12.402344 18.457031 -13.722656 C 17.316406 -14.261719 16.058594 -14.679688 14.679688 -14.980469 C 13.363281 -15.28125 12.105469 -15.640625 10.964844 -16 C 9.769531 -16.359375 8.808594 -16.839844 8.03125 -17.378906 C 7.25 -17.917969 6.832031 -18.757812 6.832031 -19.953125 C 6.832031 -21.152344 7.3125 -22.050781 8.269531 -22.589844 C 9.226562 -23.191406 10.367188 -23.488281 11.625 -23.488281 C 12.945312 -23.488281 14.082031 -23.191406 14.980469 -22.710938 C 15.878906 -22.230469 16.597656 -21.273438 17.019531 -19.835938 L 21.511719 -19.835938 C 20.972656 -22.472656 19.835938 -24.328125 18.15625 -25.347656 C 16.417969 -26.425781 14.320312 -26.964844 11.746094 -26.964844 C 9.226562 -26.964844 7.011719 -26.246094 5.152344 -24.929688 C 3.355469 -23.550781 2.398438 -21.574219 2.398438 -18.9375 C 2.398438 -17.675781 2.757812 -16.539062 3.414062 -15.582031 C 4.132812 -14.5625 5.152344 -13.78125 6.472656 -13.183594 C 7.671875 -12.644531 8.929688 -12.222656 10.246094 -11.863281 C 11.566406 -11.566406 12.824219 -11.207031 14.023438 -10.847656 C 16.71875 -9.949219 18.097656 -8.628906 18.097656 -6.953125 C 18.097656 -4.074219 16.179688 -2.695312 12.34375 -2.695312 C 10.726562 -2.695312 9.347656 -2.996094 8.269531 -3.714844 Z M 8.269531 -3.714844 "/></g></g></g><g fill="#323232" fill-opacity="1"><g transform="translate(598.164866, 559.768109)"><g/></g></g><g fill="#323232" fill-opacity="1"><g transform="translate(614.344464, 559.768109)"><g><path d="M 1.199219 -36.972656 L 11.085938 -36.972656 L 11.085938 -0.121094 L 15.28125 -0.121094 L 15.28125 -36.972656 L 25.167969 -36.972656 L 25.167969 -40.867188 L 1.199219 -40.867188 Z M 1.199219 -36.972656 "/></g></g></g><g fill="#323232" fill-opacity="1"><g transform="translate(640.711268, 559.768109)"><g><path d="M 8.6875 0 L 8.6875 -40.75 L 4.496094 -40.75 L 4.496094 0 Z M 8.6875 0 "/></g></g></g><g fill="#323232" fill-opacity="1"><g transform="translate(653.894632, 559.768109)"><g><path d="M 41.886719 -12.464844 L 37.273438 -12.464844 C 35.835938 -9.828125 33.855469 -7.671875 31.339844 -6.113281 C 28.824219 -4.496094 26.007812 -3.714844 23.011719 -3.714844 C 18.515625 -3.714844 14.679688 -5.332031 11.503906 -8.6875 C 8.390625 -11.863281 6.890625 -15.761719 6.890625 -20.3125 C 6.890625 -24.867188 8.390625 -28.761719 11.503906 -32 C 12.945312 -33.496094 14.679688 -34.695312 16.660156 -35.59375 C 18.578125 -36.492188 20.492188 -36.972656 22.410156 -36.972656 C 24.269531 -36.972656 25.886719 -36.734375 27.324219 -36.3125 C 31.699219 -34.996094 34.996094 -32.359375 37.210938 -28.34375 L 41.828125 -28.34375 C 40.269531 -32.179688 37.8125 -35.296875 34.394531 -37.691406 C 30.921875 -40.089844 27.144531 -41.289062 23.011719 -41.289062 C 17.316406 -41.289062 12.523438 -39.191406 8.570312 -35.054688 C 6.710938 -33.136719 5.273438 -30.859375 4.253906 -28.34375 C 3.175781 -25.828125 2.695312 -23.128906 2.695312 -20.3125 C 2.695312 -14.5625 4.613281 -9.707031 8.570312 -5.632812 C 12.523438 -1.4375 17.316406 0.597656 23.011719 0.597656 C 27.144531 0.597656 30.921875 -0.597656 34.457031 -2.996094 C 37.871094 -5.394531 40.328125 -8.507812 41.886719 -12.464844 Z M 41.886719 -12.464844 "/></g></g></g><g fill="#323232" fill-opacity="1"><g transform="translate(697.579575, 559.768109)"><g/></g></g><g fill="#323232" fill-opacity="1"><g transform="translate(713.759173, 559.768109)"><g><path d="M 7.851562 14.980469 L 26.066406 -26.367188 L 21.394531 -26.367188 L 13.84375 -8.6875 L 5.394531 -26.367188 L 0.597656 -26.367188 L 11.625 -4.316406 L 2.757812 14.980469 Z M 7.851562 14.980469 "/></g></g></g><g fill="#323232" fill-opacity="1"><g transform="translate(739.227077, 559.768109)"><g/></g></g><g fill="#323232" fill-opacity="1"><g transform="translate(755.406675, 559.768109)"><g><path d="M 15.761719 -19.175781 C 21.035156 -17.917969 24.628906 -16.539062 26.546875 -14.980469 C 27.863281 -13.902344 28.523438 -12.523438 28.523438 -10.847656 C 28.523438 -9.167969 28.164062 -7.789062 27.445312 -6.832031 C 25.648438 -4.316406 22.410156 -3.054688 17.855469 -3.054688 C 11.503906 -3.054688 7.910156 -5.214844 7.132812 -9.527344 L 2.21875 -9.527344 C 3.65625 -2.636719 8.867188 0.777344 17.855469 0.777344 C 21.871094 0.777344 25.226562 -0.0585938 27.925781 -1.859375 C 31.160156 -3.953125 32.839844 -7.070312 32.839844 -11.144531 C 32.839844 -14.5 31.519531 -17.078125 28.882812 -18.875 C 27.027344 -20.195312 24.03125 -21.394531 19.894531 -22.472656 C 15.699219 -23.550781 13.003906 -24.449219 11.746094 -25.109375 C 8.988281 -26.488281 7.609375 -28.402344 7.671875 -30.921875 C 7.671875 -32.238281 7.910156 -33.378906 8.507812 -34.214844 C 10.066406 -36.554688 12.824219 -37.753906 16.777344 -37.753906 C 22.351562 -37.753906 25.527344 -35.953125 26.367188 -32.480469 L 30.921875 -32.480469 C 29.421875 -38.351562 24.6875 -41.347656 16.777344 -41.347656 C 13.183594 -41.347656 10.007812 -40.390625 7.371094 -38.472656 C 4.675781 -36.554688 3.296875 -33.738281 3.296875 -29.902344 C 3.296875 -24.6875 7.492188 -21.09375 15.761719 -19.175781 Z M 15.761719 -19.175781 "/></g></g></g><g fill="#323232" fill-opacity="1"><g transform="translate(789.803311, 559.768109)"><g><path d="M 30.261719 -13.78125 C 30.261719 -17.378906 28.824219 -20.492188 26.066406 -23.191406 C 23.371094 -25.765625 20.132812 -27.085938 16.480469 -27.085938 C 12.644531 -27.085938 9.40625 -25.707031 6.710938 -23.011719 C 4.015625 -20.3125 2.695312 -17.078125 2.695312 -13.304688 C 2.695312 -9.46875 4.015625 -6.230469 6.710938 -3.59375 C 7.96875 -2.335938 9.40625 -1.378906 11.085938 -0.660156 C 12.765625 0.0585938 14.742188 0.417969 17.078125 0.417969 C 19.414062 0.417969 21.691406 -0.300781 23.96875 -1.738281 C 26.246094 -3.175781 27.925781 -5.214844 29.0625 -7.730469 L 24.269531 -7.730469 C 23.308594 -6.472656 22.171875 -5.511719 20.792969 -4.792969 C 19.414062 -4.074219 17.976562 -3.773438 16.480469 -3.773438 C 14.203125 -3.773438 12.164062 -4.496094 10.367188 -5.992188 C 8.570312 -7.429688 7.429688 -9.289062 7.070312 -11.566406 L 30.261719 -11.566406 Z M 25.828125 -15.160156 L 7.132812 -15.160156 C 7.371094 -16.238281 7.789062 -17.257812 8.390625 -18.21875 C 10.308594 -21.332031 13.003906 -22.890625 16.480469 -22.890625 C 18.695312 -22.890625 20.671875 -22.171875 22.410156 -20.734375 C 24.210938 -19.234375 25.289062 -17.378906 25.828125 -15.160156 Z M 25.828125 -15.160156 "/></g></g></g><g fill="#323232" fill-opacity="1"><g transform="translate(822.462113, 559.768109)"><g><path d="M 25.828125 -13.183594 C 25.828125 -10.605469 24.929688 -8.328125 23.128906 -6.472656 C 21.332031 -4.554688 19.117188 -3.59375 16.539062 -3.59375 C 13.960938 -3.59375 11.746094 -4.554688 9.949219 -6.472656 C 8.148438 -8.328125 7.25 -10.546875 7.25 -13.183594 C 7.25 -15.761719 8.148438 -17.976562 9.949219 -19.894531 C 11.746094 -21.8125 13.960938 -22.769531 16.539062 -22.769531 C 19.117188 -22.769531 21.332031 -21.8125 23.128906 -19.894531 C 24.929688 -17.976562 25.828125 -15.699219 25.828125 -13.183594 Z M 7.132812 3.59375 L 2.816406 3.59375 C 3.296875 6.410156 4.554688 8.867188 6.710938 10.964844 C 9.347656 13.664062 12.585938 14.980469 16.359375 14.980469 C 20.074219 14.980469 23.308594 13.664062 26.007812 10.964844 C 28.644531 8.328125 30.023438 5.09375 30.023438 1.316406 L 30.023438 -26.367188 L 25.828125 -26.367188 L 25.828125 -21.933594 C 25.585938 -22.171875 25.347656 -22.472656 25.109375 -22.769531 C 22.472656 -25.527344 19.414062 -26.964844 15.941406 -26.964844 C 12.222656 -26.964844 9.167969 -25.527344 6.652344 -22.769531 C 4.253906 -20.015625 3.054688 -16.839844 3.054688 -13.183594 C 3.054688 -9.46875 4.253906 -6.292969 6.652344 -3.59375 C 9.167969 -0.777344 12.222656 0.597656 15.941406 0.597656 C 19.535156 0.597656 22.589844 -0.777344 25.109375 -3.59375 C 25.347656 -3.835938 25.585938 -4.132812 25.828125 -4.375 L 25.828125 1.316406 C 25.828125 3.953125 24.867188 6.171875 23.011719 8.03125 C 21.152344 9.886719 18.9375 10.785156 16.359375 10.785156 C 13.722656 10.785156 11.503906 9.886719 9.648438 8.03125 C 8.328125 6.710938 7.492188 5.273438 7.132812 3.59375 Z M 7.132812 3.59375 "/></g></g></g><g fill="#323232" fill-opacity="1"><g transform="translate(856.978608, 559.768109)"><g><path d="M 22.710938 -4.496094 L 22.710938 0 L 26.90625 0 L 26.90625 -26.367188 L 22.710938 -26.367188 L 22.710938 -15.339844 C 22.710938 -11.625 21.992188 -8.808594 20.613281 -6.710938 C 19.296875 -4.675781 16.957031 -3.65625 13.722656 -3.65625 C 11.925781 -3.65625 10.605469 -4.253906 9.828125 -5.453125 C 9.046875 -6.652344 8.6875 -8.148438 8.6875 -9.886719 L 8.6875 -26.367188 L 4.496094 -26.367188 L 4.496094 -9.886719 C 4.496094 -6.832031 5.273438 -4.316406 6.953125 -2.335938 C 8.628906 -0.417969 10.90625 0.539062 13.902344 0.539062 C 17.796875 0.539062 20.734375 -1.136719 22.710938 -4.496094 Z M 22.710938 -4.496094 "/></g></g></g><g fill="#323232" fill-opacity="1"><g transform="translate(887.480187, 559.768109)"><g><path d="M 18.039062 -20.914062 L 18.039062 -26.367188 C 17.199219 -26.726562 16.300781 -26.90625 15.402344 -26.90625 C 12.402344 -26.90625 10.246094 -25.226562 8.867188 -21.992188 L 8.6875 -20.914062 L 8.6875 -26.367188 L 4.496094 -26.367188 L 4.496094 0 L 8.6875 0 L 8.6875 -13.183594 C 8.6875 -15.339844 9.167969 -17.257812 10.1875 -18.996094 C 10.667969 -19.894531 11.324219 -20.671875 12.105469 -21.273438 C 12.882812 -21.871094 13.84375 -22.230469 14.921875 -22.230469 C 16 -22.230469 17.019531 -21.753906 18.039062 -20.914062 Z M 18.039062 -20.914062 "/></g></g></g><g fill="#323232" fill-opacity="1"><g transform="translate(906.116692, 559.768109)"><g><path d="M 8.75 -35.476562 C 8.210938 -35.953125 7.550781 -36.253906 6.832031 -36.253906 C 6.113281 -36.253906 5.453125 -35.953125 4.972656 -35.476562 C 4.433594 -34.9375 4.195312 -34.277344 4.195312 -33.558594 C 4.195312 -32.839844 4.433594 -32.179688 4.972656 -31.699219 C 5.453125 -31.160156 6.113281 -30.921875 6.832031 -30.921875 C 7.550781 -30.921875 8.210938 -31.160156 8.75 -31.699219 C 9.226562 -32.179688 9.527344 -32.839844 9.527344 -33.558594 C 9.527344 -34.277344 9.226562 -34.9375 8.75 -35.476562 Z M 8.988281 0 L 8.988281 -26.367188 L 4.792969 -26.367188 L 4.792969 0 Z M 8.988281 0 "/></g></g></g><g fill="#323232" fill-opacity="1"><g transform="translate(919.839381, 559.768109)"><g><path d="M 25.46875 -13.183594 C 25.46875 -10.605469 24.570312 -8.328125 22.769531 -6.472656 C 20.972656 -4.554688 18.757812 -3.59375 16.179688 -3.59375 C 13.542969 -3.59375 11.324219 -4.554688 9.527344 -6.472656 C 7.730469 -8.328125 6.890625 -10.605469 6.890625 -13.183594 C 6.890625 -15.699219 7.730469 -17.976562 9.527344 -19.894531 C 11.324219 -21.8125 13.542969 -22.769531 16.179688 -22.769531 C 18.757812 -22.769531 20.972656 -21.8125 22.769531 -19.894531 C 24.570312 -17.976562 25.46875 -15.699219 25.46875 -13.183594 Z M 29.664062 0 L 29.664062 -44.941406 L 25.46875 -44.941406 L 25.46875 -21.8125 C 25.226562 -22.171875 24.929688 -22.472656 24.6875 -22.769531 C 22.171875 -25.527344 19.117188 -26.964844 15.519531 -26.964844 C 11.863281 -26.964844 8.808594 -25.527344 6.292969 -22.769531 C 3.894531 -20.015625 2.695312 -16.839844 2.695312 -13.183594 C 2.695312 -9.46875 3.894531 -6.292969 6.292969 -3.59375 C 8.808594 -0.777344 11.863281 0.597656 15.519531 0.597656 C 19.117188 0.597656 22.171875 -0.777344 24.6875 -3.59375 C 24.929688 -3.835938 25.226562 -4.132812 25.46875 -4.496094 L 25.46875 0 Z M 29.664062 0 "/></g></g></g><g fill="#323232" fill-opacity="1"><g transform="translate(953.9963, 559.768109)"><g><path d="M 25.46875 -13.183594 C 25.46875 -10.605469 24.570312 -8.328125 22.769531 -6.472656 C 20.972656 -4.554688 18.757812 -3.59375 16.179688 -3.59375 C 13.542969 -3.59375 11.324219 -4.554688 9.527344 -6.472656 C 7.730469 -8.328125 6.890625 -10.605469 6.890625 -13.183594 C 6.890625 -15.699219 7.730469 -17.976562 9.527344 -19.894531 C 11.324219 -21.8125 13.542969 -22.769531 16.179688 -22.769531 C 18.757812 -22.769531 20.972656 -21.8125 22.769531 -19.894531 C 24.570312 -17.976562 25.46875 -15.699219 25.46875 -13.183594 Z M 29.664062 0 L 29.664062 -26.367188 L 25.46875 -26.367188 L 25.46875 -21.8125 C 25.226562 -22.171875 24.929688 -22.472656 24.6875 -22.769531 C 22.171875 -25.527344 19.117188 -26.964844 15.519531 -26.964844 C 11.863281 -26.964844 8.808594 -25.527344 6.292969 -22.769531 C 3.894531 -20.015625 2.695312 -16.839844 2.695312 -13.183594 C 2.695312 -9.46875 3.894531 -6.292969 6.292969 -3.59375 C 8.808594 -0.777344 11.863281 0.597656 15.519531 0.597656 C 19.117188 0.597656 22.171875 -0.777344 24.6875 -3.59375 C 24.929688 -3.835938 25.226562 -4.132812 25.46875 -4.496094 L 25.46875 0 Z M 29.664062 0 "/></g></g></g><g fill="#323232" fill-opacity="1"><g transform="translate(988.153219, 559.768109)"><g><path d="M 25.46875 -13.183594 C 25.46875 -10.605469 24.570312 -8.328125 22.769531 -6.472656 C 20.972656 -4.554688 18.757812 -3.59375 16.179688 -3.59375 C 13.542969 -3.59375 11.324219 -4.554688 9.527344 -6.472656 C 7.730469 -8.328125 6.890625 -10.605469 6.890625 -13.183594 C 6.890625 -15.699219 7.730469 -17.976562 9.527344 -19.894531 C 11.324219 -21.8125 13.542969 -22.769531 16.179688 -22.769531 C 18.757812 -22.769531 20.972656 -21.8125 22.769531 -19.894531 C 24.570312 -17.976562 25.46875 -15.699219 25.46875 -13.183594 Z M 29.664062 0 L 29.664062 -44.941406 L 25.46875 -44.941406 L 25.46875 -21.8125 C 25.226562 -22.171875 24.929688 -22.472656 24.6875 -22.769531 C 22.171875 -25.527344 19.117188 -26.964844 15.519531 -26.964844 C 11.863281 -26.964844 8.808594 -25.527344 6.292969 -22.769531 C 3.894531 -20.015625 2.695312 -16.839844 2.695312 -13.183594 C 2.695312 -9.46875 3.894531 -6.292969 6.292969 -3.59375 C 8.808594 -0.777344 11.863281 0.597656 15.519531 0.597656 C 19.117188 0.597656 22.171875 -0.777344 24.6875 -3.59375 C 24.929688 -3.835938 25.226562 -4.132812 25.46875 -4.496094 L 25.46875 0 Z M 29.664062 0 "/></g></g></g><g fill="#323232" fill-opacity="1"><g transform="translate(1022.310138, 559.768109)"><g/></g></g><g fill="#323232" fill-opacity="1"><g transform="translate(1038.489735, 559.768109)"><g><path d="M 8.6875 0 L 8.6875 -40.75 L 4.496094 -40.75 L 4.496094 0 Z M 8.6875 0 "/></g></g></g><g fill="#323232" fill-opacity="1"><g transform="translate(1051.673099, 559.768109)"><g><path d="M 22.710938 0 L 26.90625 0 L 26.90625 -16.480469 C 26.90625 -19.535156 26.066406 -21.992188 24.507812 -23.851562 C 23.671875 -24.808594 22.710938 -25.527344 21.574219 -26.066406 C 20.375 -26.605469 18.875 -26.90625 17.019531 -26.90625 C 15.101562 -26.90625 13.484375 -26.367188 12.042969 -25.40625 C 10.667969 -24.507812 9.527344 -23.308594 8.6875 -21.8125 L 8.6875 -26.367188 L 4.496094 -26.367188 L 4.496094 0 L 8.6875 0 L 8.6875 -11.027344 C 8.6875 -14.382812 9.289062 -17.019531 10.546875 -18.996094 C 11.265625 -20.074219 12.164062 -20.972656 13.304688 -21.691406 C 14.382812 -22.351562 15.878906 -22.710938 17.675781 -22.710938 C 19.476562 -22.710938 20.734375 -22.050781 21.511719 -20.855469 C 22.292969 -19.65625 22.710938 -18.15625 22.710938 -16.480469 Z M 22.710938 0 "/></g></g></g><g fill="#323232" fill-opacity="1"><g transform="translate(1082.174678, 559.768109)"><g><path d="M 18.636719 -41.046875 L 18.636719 -44.941406 L 15.640625 -44.941406 C 12.644531 -44.941406 10.546875 -44.164062 9.289062 -42.726562 C 8.03125 -41.289062 7.429688 -39.191406 7.429688 -36.554688 L 7.429688 -26.367188 L 2.097656 -26.367188 L 2.097656 -22.472656 L 7.429688 -22.472656 L 7.429688 0 L 11.625 0 L 11.625 -22.472656 L 18.636719 -22.472656 L 18.636719 -26.367188 L 11.625 -26.367188 L 11.625 -37.753906 C 11.625 -38.652344 11.804688 -39.429688 12.285156 -40.089844 C 12.703125 -40.6875 13.601562 -41.046875 15.039062 -41.046875 Z M 18.636719 -41.046875 "/></g></g></g><g fill="#323232" fill-opacity="1"><g transform="translate(1102.608908, 559.768109)"><g><path d="M 26.066406 -13.304688 C 26.066406 -10.667969 25.109375 -8.449219 23.25 -6.589844 C 21.332031 -4.675781 19.117188 -3.773438 16.480469 -3.773438 C 13.84375 -3.773438 11.566406 -4.675781 9.707031 -6.589844 C 7.789062 -8.449219 6.890625 -10.667969 6.890625 -13.304688 C 6.890625 -15.941406 7.789062 -18.15625 9.707031 -20.074219 C 11.566406 -21.933594 13.84375 -22.890625 16.480469 -22.890625 C 19.117188 -22.890625 21.332031 -21.933594 23.25 -20.074219 C 25.109375 -18.15625 26.066406 -15.941406 26.066406 -13.304688 Z M 30.261719 -13.304688 C 30.261719 -17.078125 28.882812 -20.3125 26.1875 -23.011719 C 23.488281 -25.707031 20.253906 -27.085938 16.480469 -27.085938 C 12.644531 -27.085938 9.40625 -25.707031 6.710938 -23.011719 C 4.015625 -20.3125 2.695312 -17.078125 2.695312 -13.304688 C 2.695312 -9.46875 4.015625 -6.230469 6.710938 -3.59375 C 9.40625 -0.898438 12.703125 0.417969 16.480469 0.417969 C 20.195312 0.417969 23.488281 -0.898438 26.1875 -3.59375 C 28.882812 -6.230469 30.261719 -9.46875 30.261719 -13.304688 Z M 30.261719 -13.304688 "/></g></g></g><g fill="#323232" fill-opacity="1"><g transform="translate(1135.567395, 559.768109)"><g><path d="M 18.039062 -20.914062 L 18.039062 -26.367188 C 17.199219 -26.726562 16.300781 -26.90625 15.402344 -26.90625 C 12.402344 -26.90625 10.246094 -25.226562 8.867188 -21.992188 L 8.6875 -20.914062 L 8.6875 -26.367188 L 4.496094 -26.367188 L 4.496094 0 L 8.6875 0 L 8.6875 -13.183594 C 8.6875 -15.339844 9.167969 -17.257812 10.1875 -18.996094 C 10.667969 -19.894531 11.324219 -20.671875 12.105469 -21.273438 C 12.882812 -21.871094 13.84375 -22.230469 14.921875 -22.230469 C 16 -22.230469 17.019531 -21.753906 18.039062 -20.914062 Z M 18.039062 -20.914062 "/></g></g></g><g fill="#323232" fill-opacity="1"><g transform="translate(1154.2039, 559.768109)"><g><path d="M 37.933594 -0.121094 L 42.125 -0.121094 L 42.125 -16.597656 C 42.125 -19.535156 41.347656 -21.992188 39.910156 -23.910156 C 39.191406 -24.867188 38.230469 -25.585938 37.152344 -26.1875 C 36.015625 -26.785156 34.515625 -27.085938 32.71875 -27.085938 C 30.859375 -27.085938 29.242188 -26.546875 27.863281 -25.585938 C 26.605469 -24.628906 25.585938 -23.488281 24.75 -22.050781 C 24.449219 -22.710938 24.089844 -23.308594 23.671875 -23.910156 C 22.949219 -24.867188 21.992188 -25.585938 20.914062 -26.1875 C 19.773438 -26.785156 18.277344 -27.085938 16.480469 -27.085938 C 14.621094 -27.085938 13.003906 -26.546875 11.625 -25.585938 C 10.425781 -24.6875 9.46875 -23.609375 8.6875 -22.230469 L 8.6875 -26.488281 L 4.496094 -26.488281 L 4.496094 -0.121094 L 8.6875 -0.121094 L 8.6875 -13.601562 C 8.867188 -15.699219 9.40625 -17.558594 10.308594 -19.054688 C 10.90625 -20.132812 11.804688 -21.09375 12.882812 -21.8125 C 13.960938 -22.53125 15.101562 -22.890625 16.359375 -22.890625 C 17.558594 -22.890625 18.515625 -22.652344 19.117188 -22.292969 C 20.792969 -21.214844 21.691406 -19.296875 21.691406 -16.597656 L 21.691406 -0.121094 L 25.886719 -0.121094 L 25.886719 -16.597656 C 25.886719 -16.898438 25.828125 -17.257812 25.828125 -17.558594 C 26.007812 -18.097656 26.246094 -18.578125 26.546875 -19.054688 C 27.144531 -20.132812 28.042969 -21.09375 29.125 -21.8125 C 30.203125 -22.53125 31.339844 -22.890625 32.597656 -22.890625 C 33.796875 -22.890625 34.757812 -22.652344 35.355469 -22.292969 C 37.03125 -21.214844 37.933594 -19.296875 37.933594 -16.597656 Z M 37.933594 -0.121094 "/></g></g></g><g fill="#323232" fill-opacity="1"><g transform="translate(1199.926285, 559.768109)"><g><path d="M 25.46875 -13.183594 C 25.46875 -10.605469 24.570312 -8.328125 22.769531 -6.472656 C 20.972656 -4.554688 18.757812 -3.59375 16.179688 -3.59375 C 13.542969 -3.59375 11.324219 -4.554688 9.527344 -6.472656 C 7.730469 -8.328125 6.890625 -10.605469 6.890625 -13.183594 C 6.890625 -15.699219 7.730469 -17.976562 9.527344 -19.894531 C 11.324219 -21.8125 13.542969 -22.769531 16.179688 -22.769531 C 18.757812 -22.769531 20.972656 -21.8125 22.769531 -19.894531 C 24.570312 -17.976562 25.46875 -15.699219 25.46875 -13.183594 Z M 29.664062 0 L 29.664062 -26.367188 L 25.46875 -26.367188 L 25.46875 -21.8125 C 25.226562 -22.171875 24.929688 -22.472656 24.6875 -22.769531 C 22.171875 -25.527344 19.117188 -26.964844 15.519531 -26.964844 C 11.863281 -26.964844 8.808594 -25.527344 6.292969 -22.769531 C 3.894531 -20.015625 2.695312 -16.839844 2.695312 -13.183594 C 2.695312 -9.46875 3.894531 -6.292969 6.292969 -3.59375 C 8.808594 -0.777344 11.863281 0.597656 15.519531 0.597656 C 19.117188 0.597656 22.171875 -0.777344 24.6875 -3.59375 C 24.929688 -3.835938 25.226562 -4.132812 25.46875 -4.496094 L 25.46875 0 Z M 22.652344 -40.808594 L 17.496094 -40.808594 L 12.703125 -32.238281 L 16.058594 -32.238281 Z M 22.652344 -40.808594 "/></g></g></g><g fill="#323232" fill-opacity="1"><g transform="translate(1234.083204, 559.768109)"><g><path d="M 1.199219 -22.472656 L 7.789062 -22.472656 L 7.789062 0 L 11.984375 0 L 11.984375 -22.472656 L 18.515625 -22.472656 L 18.515625 -26.367188 L 11.984375 -26.367188 L 11.984375 -36.613281 L 7.789062 -36.613281 L 7.789062 -26.367188 L 1.199219 -26.367188 Z M 1.199219 -22.472656 "/></g></g></g><g fill="#323232" fill-opacity="1"><g transform="translate(1253.798359, 559.768109)"><g><path d="M 8.75 -35.476562 C 8.210938 -35.953125 7.550781 -36.253906 6.832031 -36.253906 C 6.113281 -36.253906 5.453125 -35.953125 4.972656 -35.476562 C 4.433594 -34.9375 4.195312 -34.277344 4.195312 -33.558594 C 4.195312 -32.839844 4.433594 -32.179688 4.972656 -31.699219 C 5.453125 -31.160156 6.113281 -30.921875 6.832031 -30.921875 C 7.550781 -30.921875 8.210938 -31.160156 8.75 -31.699219 C 9.226562 -32.179688 9.527344 -32.839844 9.527344 -33.558594 C 9.527344 -34.277344 9.226562 -34.9375 8.75 -35.476562 Z M 8.988281 0 L 8.988281 -26.367188 L 4.792969 -26.367188 L 4.792969 0 Z M 8.988281 0 "/></g></g></g><g fill="#323232" fill-opacity="1"><g transform="translate(1267.521049, 559.768109)"><g><path d="M 29.125 -16.898438 C 28.285156 -19.835938 26.667969 -22.230469 24.328125 -24.089844 C 21.871094 -25.945312 19.175781 -26.90625 16.179688 -26.90625 C 12.402344 -26.90625 9.167969 -25.527344 6.589844 -22.832031 C 3.953125 -20.132812 2.695312 -16.898438 2.695312 -13.183594 C 2.695312 -9.40625 3.953125 -6.230469 6.589844 -3.476562 C 7.789062 -2.21875 9.167969 -1.199219 10.847656 -0.480469 C 12.464844 0.238281 14.140625 0.597656 15.820312 0.597656 C 17.496094 0.597656 18.996094 0.417969 20.3125 -0.0585938 C 24.507812 -1.558594 27.386719 -4.375 28.882812 -8.628906 L 24.148438 -8.628906 C 23.308594 -7.132812 22.230469 -5.933594 20.792969 -5.09375 C 19.355469 -4.195312 17.855469 -3.773438 16.179688 -3.773438 C 13.601562 -3.773438 11.445312 -4.675781 9.648438 -6.53125 C 7.851562 -8.390625 7.011719 -10.605469 7.011719 -13.183594 C 7.011719 -15.640625 7.851562 -17.855469 9.648438 -19.714844 C 10.488281 -20.554688 11.445312 -21.273438 12.585938 -21.753906 C 13.664062 -22.230469 15.039062 -22.53125 16.597656 -22.53125 C 18.15625 -22.53125 19.65625 -21.992188 21.214844 -20.972656 C 22.710938 -19.894531 23.851562 -18.578125 24.570312 -16.898438 Z M 29.125 -16.898438 "/></g></g></g><g fill="#323232" fill-opacity="1"><g transform="translate(1298.741702, 559.768109)"><g><path d="M 25.46875 -13.183594 C 25.46875 -10.605469 24.570312 -8.328125 22.769531 -6.472656 C 20.972656 -4.554688 18.757812 -3.59375 16.179688 -3.59375 C 13.542969 -3.59375 11.324219 -4.554688 9.527344 -6.472656 C 7.730469 -8.328125 6.890625 -10.605469 6.890625 -13.183594 C 6.890625 -15.699219 7.730469 -17.976562 9.527344 -19.894531 C 11.324219 -21.8125 13.542969 -22.769531 16.179688 -22.769531 C 18.757812 -22.769531 20.972656 -21.8125 22.769531 -19.894531 C 24.570312 -17.976562 25.46875 -15.699219 25.46875 -13.183594 Z M 29.664062 0 L 29.664062 -26.367188 L 25.46875 -26.367188 L 25.46875 -21.8125 C 25.226562 -22.171875 24.929688 -22.472656 24.6875 -22.769531 C 22.171875 -25.527344 19.117188 -26.964844 15.519531 -26.964844 C 11.863281 -26.964844 8.808594 -25.527344 6.292969 -22.769531 C 3.894531 -20.015625 2.695312 -16.839844 2.695312 -13.183594 C 2.695312 -9.46875 3.894531 -6.292969 6.292969 -3.59375 C 8.808594 -0.777344 11.863281 0.597656 15.519531 0.597656 C 19.117188 0.597656 22.171875 -0.777344 24.6875 -3.59375 C 24.929688 -3.835938 25.226562 -4.132812 25.46875 -4.496094 L 25.46875 0 Z M 29.664062 0 "/></g></g></g></svg>