<svg xmlns="http://www.w3.org/2000/svg" viewBox="0 0 142.73 165.23">
  <defs>
    <style>
      .cls-1, .cls-3 {
        fill: #1fb3ae;
      }

      .cls-1, .cls-3, .cls-5 {
        stroke: #1fb3ae;
      }

      .cls-1, .cls-2, .cls-3, .cls-4, .cls-5 {
        stroke-miterlimit: 10;
      }

      .cls-1 {
        stroke-width: 2.43px;
      }

      .cls-2 {
        fill: #343434;
        stroke: #343434;
      }

      .cls-2, .cls-5 {
        stroke-width: 1.65px;
      }

      .cls-3 {
        stroke-width: 2.07px;
      }

      .cls-4, .cls-5 {
        fill: none;
      }

      .cls-4 {
        stroke: #000;
        stroke-width: 1.24px;
      }
    </style>
  </defs>
  <g id="Capa_2" data-name="Capa 2">
    <g id="Capa_2-2" data-name="Capa 2">
      <g>
        <g>
          <path class="cls-1" d="M91.79,76.44S59,55.22,52.26,51.23a13.77,13.77,0,0,0-1,3.15c-1.6,4.85-8.38,9.76-11.78,14.28-.59.78,4.66,9.1,4.66,9.1s.73,5,.86,6.16a22.84,22.84,0,0,0,.64,4.44c1.1,4.8,1.42,6.94,6.45,6.3,2.53-.32,5.11-1.5,6.14,2.2.07.26.75.49,1.15.5,3,0,5.92,0,9,0-.06-.8-1.16-1.92-2.58-2.39-2.9.35-5.6,1.21-7.7-2-.55-.84-2.76-.74-4.21-.79a27.62,27.62,0,0,1-4.08-.07A2.62,2.62,0,0,1,48,90.23c-.79-4.41-1.37-13.13-1.37-13.13S42.34,69.33,42,69.32c.55-.95,10.25-8.69,11.4-14.75,4.54,2.59,7.78,4.78,11.63,7,.35.2,24.36,15.84,25.12,16.67C91.29,78.09,91.79,76.44,91.79,76.44Z"/>
          <path class="cls-1" d="M103.13,66.22,94.62,77.1l-42.36-28,5.85-12.3C74.49,44.74,89,55.08,103.13,66.22ZM55,48.26,94.2,74.21l5.94-7.64c-13-10.19-26.22-19.46-41-26.89Z"/>
          <path class="cls-1" d="M64.25,37.49c9.55-3.27,18-.8,25.85,4.78,6.51,4.65,11,10.38,10.56,19.33C88.21,53.33,76.57,45.67,64.25,37.49ZM98.58,57.23C97,47,79.82,35.72,70.31,38.28Z"/>
          <path class="cls-1" d="M99.77,96.71c-.56-.59-2.63-3.42-3.17-4-3.86-4.27-3.19-14.41-3.78-14.76-4.35-2.55-12.57-7.82-13.75-8.15a7.82,7.82,0,0,1,.19,1.09c1.07,1.08,2.7,2.74,2.57,2.22,3.58,2.27,9.13,7.07,9,12.12-.08,3.54,2.29,7.31,4.82,10.15H74.17c-1.32,0-3.59.5-4.34-.72-1.12-1.81.67-6.61,1.78-7a4.57,4.57,0,0,1-2.84.31c-1.86,1.22-2.81,4.93-2.23,7.27.2.81,1.39,2,2.14,2,10.36.14,20.72.09,31.05.09C99.76,96.91,99.82,96.76,99.77,96.71Z"/>
          <path class="cls-1" d="M80.78,76.94A11.39,11.39,0,1,1,69.31,65.43,11.54,11.54,0,0,1,80.78,76.94Zm-2.42.14a9,9,0,1,0-9.3,9.07A9.12,9.12,0,0,0,78.36,77.08Z"/>
          <path class="cls-1" d="M70.9,5.47c1.3,12.21-2.66,21.84-12.13,29.35C55,26.6,61.73,10.27,70.9,5.47Zm-11,24.9c5.71-3.84,10.18-14.66,8.6-20.68A28.42,28.42,0,0,0,59.93,30.37Z"/>
          <path class="cls-1" d="M55.91,29.85A28.54,28.54,0,0,1,58.43,2.47c1.12,2.67,2.25,5.06,3.08,7.56A3.83,3.83,0,0,1,61,12.79,35,35,0,0,0,55.91,29.85Z"/>
        </g>
        <g>
          <path class="cls-2" d="M.83,139.46v-3h3V111.67h-3v-3h9.33v3h-3v24.81h3v3Z"/>
          <path class="cls-2" d="M25.56,117.62a9.31,9.31,0,0,1,4.08.91,7,7,0,0,1,3,2.66,7.62,7.62,0,0,1,1.11,4.15v14.12H30.65V126.69c0-4.17-1.86-6.27-5.59-6.27a5.6,5.6,0,0,0-4.88,2.3,10.57,10.57,0,0,0-1.62,6.18v10.56H15.49V118.35h3.07v3.52a8,8,0,0,1,2.86-3.14A7.68,7.68,0,0,1,25.56,117.62Z"/>
          <path class="cls-2" d="M52.76,139.46l-7.4-10.87-2.57,2.48v8.39H39.72V106.7h3.07v20.48L52,118.35h4l-8.52,8.2,8.7,12.91Z"/>
          <path class="cls-3" d="M94.77,117.62a9.32,9.32,0,0,1,4.09.91,7,7,0,0,1,3,2.66,7.62,7.62,0,0,1,1.11,4.15v14.12H99.87V126.69c0-4.17-1.87-6.27-5.59-6.27a5.58,5.58,0,0,0-4.88,2.3,10.57,10.57,0,0,0-1.62,6.18v10.56H84.7V118.35h3.08v3.52a8,8,0,0,1,2.86-3.14A7.67,7.67,0,0,1,94.77,117.62Z"/>
          <path class="cls-3" d="M118.05,117.62A9.65,9.65,0,0,1,123.2,119a9.85,9.85,0,0,1,3.6,3.81,11,11,0,0,1,1.32,5.38c0,.58,0,1-.05,1.32H110.7a9.19,9.19,0,0,0,2.11,5.55,6.58,6.58,0,0,0,5.29,2.3,9.07,9.07,0,0,0,4.49-1,7.76,7.76,0,0,0,2.86-2.83l2.44,1.63a10.58,10.58,0,0,1-3.93,3.67,11.8,11.8,0,0,1-5.77,1.34,10.42,10.42,0,0,1-5.47-1.45,10,10,0,0,1-3.73-4,12.26,12.26,0,0,1-1.36-5.83,12.4,12.4,0,0,1,1.33-5.81,9.85,9.85,0,0,1,3.7-4A10.19,10.19,0,0,1,118.05,117.62Zm7,9.39a8,8,0,0,0-2.21-4.94,6.71,6.71,0,0,0-4.78-1.65,6.51,6.51,0,0,0-4.81,1.88,8.61,8.61,0,0,0-2.36,4.71Z"/>
          <path class="cls-3" d="M133.75,139.46V121.15h-3.61v-2.8h3.61v-7h3.07v7h4.88v2.8h-4.88v18.31Z"/>
          <line class="cls-4" x1="48.6" y1="164.82" x2="49.59" y2="163.69"/>
          <g>
            <path class="cls-5" d="M63.29,135.18a7.62,7.62,0,0,1-1.49-2.12,9.85,9.85,0,0,1-.95-4.43,9.52,9.52,0,0,1,.95-4.34c.46-1,.32-1.23,1.05-1.86"/>
            <path class="cls-5" d="M60.87,120.43a10,10,0,0,0-1.76,2.41,13.33,13.33,0,0,0,0,11.67,10.37,10.37,0,0,0,2.21,2.87"/>
          </g>
          <path class="cls-2" d="M76,118.35v3.15a9.19,9.19,0,0,0-3.23-2.86,8.87,8.87,0,0,0-4.23-1,10.15,10.15,0,0,0-5.38,1.45l-.34.22,2.11,2.11a6.84,6.84,0,0,1,3.61-1,7,7,0,0,1,3.86,1.08,7.19,7.19,0,0,1,2.65,3,10.55,10.55,0,0,1,0,8.75,7.32,7.32,0,0,1-2.65,3,7,7,0,0,1-3.86,1.08,6.79,6.79,0,0,1-3.78-1.08l-.33-.23-1.92,2.19c.23.16.46.32.71.47a10.29,10.29,0,0,0,5.42,1.45,8.62,8.62,0,0,0,4.15-1A9.61,9.61,0,0,0,76,136.35v3.11H79V118.35Z"/>
        </g>
      </g>
    </g>
  </g>
</svg>
