<svg xmlns="http://www.w3.org/2000/svg" xmlns:xlink="http://www.w3.org/1999/xlink" viewBox="0 0 302.3 176.6">
  <defs>
    <style>
      .cls-1, .cls-2 {
        fill: none;
      }

      .cls-2 {
        stroke: #1fb3ae;
        stroke-miterlimit: 10;
        stroke-width: 1.98px;
      }

      .cls-3 {
        fill: url(#Motivo_nuevo_2);
      }
    </style>
    <pattern id="Motivo_nuevo_2" data-name="Motivo nuevo 2" width="367.42" height="484.63" patternTransform="translate(-24.54 10.88)" patternUnits="userSpaceOnUse" viewBox="0 0 367.42 484.63">
      <rect class="cls-1" width="367.42" height="484.63"/>
      <g>
        <polygon class="cls-2" points="327.17 447.22 311.5 455.91 296.14 446.7 296.44 428.78 312.11 420.09 327.47 429.31 327.17 447.22"/>
        <polygon class="cls-2" points="323.03 462.96 333.02 456.91 343.25 462.54 343.49 474.21 333.5 480.26 323.27 474.63 323.03 462.96"/>
        <polygon class="cls-2" points="335.7 438.69 347.84 431.67 359.98 438.69 359.98 452.71 347.84 459.72 335.7 452.71 335.7 438.69"/>
        <polygon class="cls-2" points="378.08 465.69 378.08 483.63 362.55 492.6 347.02 483.63 347.02 465.69 362.55 456.73 378.08 465.69"/>
        <polygon class="cls-2" points="310.28 482.5 296.37 490.92 282.12 483.08 281.78 466.82 295.69 458.4 309.94 466.24 310.28 482.5"/>
      </g>
      <g>
        <polygon class="cls-2" points="10.66 465.69 10.66 483.63 -4.87 492.6 -20.41 483.63 -20.41 465.69 -4.87 456.73 10.66 465.69"/>
        <polygon class="cls-2" points="34.47 440.08 20.55 448.5 6.3 440.66 5.97 424.4 19.88 415.98 34.13 423.82 34.47 440.08"/>
        <polygon class="cls-2" points="98.46 509.38 84.54 517.8 70.3 509.97 69.96 493.71 83.87 485.29 98.12 493.12 98.46 509.38"/>
        <polygon class="cls-2" points="52.79 459.62 52.79 477.55 37.26 486.52 21.73 477.55 21.73 459.62 37.26 450.65 52.79 459.62"/>
      </g>
      <g>
        <polygon class="cls-2" points="105.38 274.54 89.71 283.24 74.35 274.02 74.65 256.11 90.32 247.41 105.68 256.63 105.38 274.54"/>
        <polygon class="cls-2" points="98.89 288.69 108.88 282.64 119.11 288.26 119.35 299.94 109.36 305.99 99.13 300.36 98.89 288.69"/>
        <polygon class="cls-2" points="115.95 259.82 128.09 252.81 140.24 259.82 140.24 273.84 128.09 280.86 115.95 273.84 115.95 259.82"/>
        <polygon class="cls-2" points="158.33 295.09 158.33 313.02 142.8 321.99 127.27 313.02 127.27 295.09 142.8 286.12 158.33 295.09"/>
        <polygon class="cls-2" points="174.72 273.16 160.81 281.58 146.56 273.75 146.22 257.49 160.14 249.07 174.38 256.9 174.72 273.16"/>
        <polygon class="cls-2" points="143.45 204.9 127.79 213.6 112.43 204.38 112.73 186.47 128.39 177.77 143.76 186.99 143.45 204.9"/>
        <polygon class="cls-2" points="139.32 220.64 149.31 214.59 159.54 220.22 159.78 231.89 149.79 237.94 139.56 232.31 139.32 220.64"/>
        <polygon class="cls-2" points="151.99 196.37 164.13 189.36 176.27 196.37 176.27 210.39 164.13 217.4 151.99 210.39 151.99 196.37"/>
        <polygon class="cls-2" points="194.37 223.38 194.37 241.31 178.84 250.28 163.31 241.31 163.31 223.38 178.84 214.41 194.37 223.38"/>
        <polygon class="cls-2" points="218.18 197.76 204.27 206.18 190.02 198.34 189.68 182.09 203.59 173.66 217.84 181.5 218.18 197.76"/>
        <polygon class="cls-2" points="214.72 275.01 199.06 283.71 183.7 274.49 184 256.58 199.66 247.88 215.02 257.1 214.72 275.01"/>
        <polygon class="cls-2" points="207.23 284.19 217.22 278.14 227.45 283.77 227.69 295.44 217.7 301.49 207.47 295.86 207.23 284.19"/>
        <polygon class="cls-2" points="219.9 259.92 232.04 252.91 244.19 259.92 244.19 273.94 232.04 280.95 219.9 273.94 219.9 259.92"/>
        <polygon class="cls-2" points="269.38 290.75 269.38 308.68 253.85 317.65 238.32 308.68 238.32 290.75 253.85 281.78 269.38 290.75"/>
        <polygon class="cls-2" points="282.17 267.07 268.25 275.49 254.01 267.65 253.67 251.39 267.58 242.97 281.83 250.81 282.17 267.07"/>
        <polygon class="cls-2" points="236.5 217.3 236.5 235.23 220.97 244.2 205.44 235.23 205.44 217.3 220.97 208.33 236.5 217.3"/>
        <polygon class="cls-2" points="165.04 288.79 177.19 281.78 189.33 288.79 189.33 302.81 177.19 309.82 165.04 302.81 165.04 288.79"/>
        <polygon class="cls-2" points="126.57 240.18 112.66 248.6 98.41 240.77 98.07 224.51 111.98 216.09 126.23 223.93 126.57 240.18"/>
        <polygon class="cls-2" points="311.46 342.12 295.8 350.82 280.44 341.6 280.74 323.69 296.4 314.99 311.76 324.21 311.46 342.12"/>
        <polygon class="cls-2" points="304.97 356.26 314.96 350.22 325.19 355.85 325.44 367.52 315.45 373.56 305.21 367.94 304.97 356.26"/>
        <polygon class="cls-2" points="322.03 327.4 334.18 320.39 346.32 327.4 346.32 341.42 334.18 348.44 322.03 341.42 322.03 327.4"/>
        <polygon class="cls-2" points="380.81 340.74 366.89 349.16 352.65 341.33 352.31 325.07 366.22 316.64 380.47 324.48 380.81 340.74"/>
        <polygon class="cls-2" points="349.54 272.48 333.88 281.18 318.51 271.96 318.81 254.05 334.48 245.35 349.84 254.57 349.54 272.48"/>
        <polygon class="cls-2" points="345.4 288.22 355.39 282.17 365.62 287.8 365.86 299.47 355.88 305.52 345.64 299.89 345.4 288.22"/>
        <polygon class="cls-2" points="332.65 307.76 318.74 316.19 304.49 308.35 304.15 292.09 318.07 283.67 332.32 291.5 332.65 307.76"/>
        <polygon class="cls-2" points="157.93 328.71 164.18 338.57 158.77 348.91 147.1 349.4 140.85 339.54 146.27 329.19 157.93 328.71"/>
        <polygon class="cls-2" points="187.14 345.16 194.4 357.16 187.65 369.44 173.63 369.74 166.37 357.74 173.12 345.45 187.14 345.16"/>
        <polygon class="cls-2" points="192.03 407.2 183.32 393.47 190.86 379.06 207.1 378.38 215.81 392.12 208.27 406.53 192.03 407.2"/>
        <polygon class="cls-2" points="242.62 371.52 233.6 356.04 242.5 340.49 260.41 340.42 269.43 355.9 260.54 371.45 242.62 371.52"/>
        <polygon class="cls-2" points="226.8 367.71 233.05 377.57 227.64 387.92 215.97 388.4 209.72 378.54 215.13 368.2 226.8 367.71"/>
        <polygon class="cls-2" points="176.2 397.85 183.46 409.84 176.7 422.13 162.69 422.42 155.42 410.43 162.18 398.14 176.2 397.85"/>
        <polygon class="cls-2" points="207 355.37 198.29 341.64 205.83 327.23 222.08 326.56 230.78 340.29 223.25 354.7 207 355.37"/>
      </g>
      <polygon class="cls-2" points="13.38 340.74 -0.53 349.16 -14.78 341.33 -15.12 325.07 -1.2 316.64 13.05 324.48 13.38 340.74"/>
      <g>
        <polygon class="cls-2" points="289.09 32.23 273.43 40.92 258.06 31.7 258.36 13.79 274.03 5.09 289.39 14.31 289.09 32.23"/>
        <polygon class="cls-2" points="282.6 46.37 292.59 40.32 302.82 45.95 303.06 57.62 293.07 63.67 282.84 58.04 282.6 46.37"/>
        <polygon class="cls-2" points="299.66 17.51 311.8 10.5 323.95 17.51 323.95 31.53 311.8 38.54 299.66 31.53 299.66 17.51"/>
        <polygon class="cls-2" points="342.04 52.77 342.04 70.7 326.51 79.67 310.98 70.7 310.98 52.77 326.51 43.8 342.04 52.77"/>
        <polygon class="cls-2" points="358.43 30.85 344.52 39.27 330.27 31.43 329.94 15.17 343.85 6.75 358.1 14.59 358.43 30.85"/>
        <polygon class="cls-2" points="378.08 -18.94 378.08 -1 362.55 7.96 347.02 -1 347.02 -18.94 362.55 -27.9 378.08 -18.94"/>
        <polygon class="cls-2" points="398.44 32.7 382.77 41.39 367.41 32.18 367.71 14.26 383.37 5.57 398.74 14.79 398.44 32.7"/>
        <polygon class="cls-2" points="348.75 46.47 360.9 39.46 373.04 46.47 373.04 60.49 360.9 67.51 348.75 60.49 348.75 46.47"/>
        <polygon class="cls-2" points="310.28 -2.13 296.37 6.29 282.12 -1.55 281.78 -17.81 295.69 -26.23 309.94 -18.39 310.28 -2.13"/>
        <polygon class="cls-2" points="341.64 86.39 347.9 96.25 342.48 106.6 330.82 107.08 324.56 97.22 329.98 86.88 341.64 86.39"/>
        <polygon class="cls-2" points="370.85 102.85 378.12 114.84 371.36 127.13 357.34 127.42 350.08 115.42 356.83 103.14 370.85 102.85"/>
        <polygon class="cls-2" points="375.74 164.89 367.03 151.15 374.57 136.74 390.82 136.07 399.52 149.8 391.99 164.21 375.74 164.89"/>
        <polygon class="cls-2" points="359.91 155.53 367.17 167.53 360.42 179.81 346.4 180.1 339.14 168.11 345.89 155.82 359.91 155.53"/>
      </g>
      <g>
        <polygon class="cls-2" points="10.66 -18.94 10.66 -1 -4.87 7.96 -20.41 -1 -20.41 -18.94 -4.87 -27.9 10.66 -18.94"/>
        <polygon class="cls-2" points="31.01 32.7 15.35 41.39 -0.01 32.18 0.29 14.26 15.95 5.57 31.31 14.79 31.01 32.7"/>
        <polygon class="cls-2" points="23.52 41.87 33.51 35.82 43.74 41.45 43.98 53.12 33.99 59.17 23.76 53.54 23.52 41.87"/>
        <polygon class="cls-2" points="36.19 17.6 48.33 10.59 60.47 17.6 60.47 31.62 48.33 38.63 36.19 31.62 36.19 17.6"/>
        <polygon class="cls-2" points="85.67 48.43 85.67 66.36 70.14 75.33 54.61 66.36 54.61 48.43 70.14 39.46 85.67 48.43"/>
        <polygon class="cls-2" points="98.46 24.75 84.54 33.17 70.3 25.34 69.96 9.08 83.87 0.65 98.12 8.49 98.46 24.75"/>
        <polygon class="cls-2" points="52.79 -25.02 52.79 -7.08 37.26 1.89 21.73 -7.08 21.73 -25.02 37.26 -33.98 52.79 -25.02"/>
        <polygon class="cls-2" points="-18.67 46.47 -6.53 39.46 5.62 46.47 5.62 60.49 -6.53 67.51 -18.67 60.49 -18.67 46.47"/>
        <polygon class="cls-2" points="127.75 99.81 112.09 108.5 96.72 99.28 97.03 81.37 112.69 72.67 128.05 81.89 127.75 99.81"/>
        <polygon class="cls-2" points="121.26 113.95 131.25 107.9 141.48 113.53 141.72 125.2 131.73 131.25 121.5 125.62 121.26 113.95"/>
        <polygon class="cls-2" points="138.32 85.09 150.47 78.08 162.61 85.09 162.61 99.11 150.47 106.12 138.32 99.11 138.32 85.09"/>
        <polygon class="cls-2" points="197.09 98.42 183.18 106.85 168.93 99.01 168.6 82.75 182.51 74.33 196.76 82.17 197.09 98.42"/>
        <polygon class="cls-2" points="165.83 30.17 150.16 38.86 134.8 29.64 135.1 11.73 150.77 3.04 166.13 12.25 165.83 30.17"/>
        <polygon class="cls-2" points="161.69 45.9 171.68 39.86 181.91 45.48 182.15 57.16 172.16 63.2 161.93 57.58 161.69 45.9"/>
        <polygon class="cls-2" points="148.94 65.45 135.03 73.87 120.78 66.03 120.44 49.77 134.35 41.35 148.6 49.19 148.94 65.45"/>
        <polygon class="cls-2" points="3.43 102.85 10.69 114.84 3.93 127.13 -10.08 127.42 -17.35 115.42 -10.59 103.14 3.43 102.85"/>
        <polygon class="cls-2" points="8.31 164.89 -0.4 151.15 7.14 136.74 23.39 136.07 32.1 149.8 24.56 164.21 8.31 164.89"/>
        <polygon class="cls-2" points="58.91 129.21 49.89 113.73 58.79 98.18 76.7 98.11 85.72 113.59 76.83 129.14 58.91 129.21"/>
        <polygon class="cls-2" points="43.09 125.4 49.34 135.26 43.93 145.6 32.26 146.09 26.01 136.23 31.42 125.88 43.09 125.4"/>
        <polygon class="cls-2" points="-7.51 155.53 -0.25 167.53 -7.01 179.81 -21.03 180.1 -28.29 168.11 -21.53 155.82 -7.51 155.53"/>
        <polygon class="cls-2" points="23.29 113.06 14.58 99.32 22.12 84.92 38.37 84.24 47.07 97.97 39.53 112.38 23.29 113.06"/>
      </g>
    </pattern>
  </defs>
  <g id="Capa_2" data-name="Capa 2">
    <g id="Capa_2-2" data-name="Capa 2">
      <rect class="cls-3" width="302.3" height="176.6"/>
    </g>
  </g>
</svg>
