<svg xmlns="http://www.w3.org/2000/svg" viewBox="0 0 233 485.5"><defs><style>.cls-1,.cls-2,.cls-3,.cls-4,.cls-5{fill:none;stroke-miterlimit:10;}.cls-1,.cls-5{stroke:#00afaf;}.cls-1,.cls-2{stroke-width:68px;}.cls-2,.cls-3,.cls-4{stroke:#1a1a1a;}.cls-3{stroke-width:34px;}.cls-4,.cls-5{stroke-width:51px;}</style></defs><g id="Capa_2" data-name="Capa 2"><g id="Capa_1-2" data-name="Capa 1"><path class="cls-1" d="M195,451.25H99.82C63.62,451.25,34,420,34,381.75h0c0-38.23,29.62-69.5,65.82-69.5H195"/><path class="cls-2" d="M195,173.25H99.82c-36.2,0-65.82,31.27-65.82,69.5h0c0,38.23,29.62,69.5,65.82,69.5H195"/><circle class="cls-3" cx="198.5" cy="173.25" r="8.75"/><circle class="cls-4" cx="195.75" cy="312.25" r="8.75"/><path class="cls-1" d="M195,34.25H99.82C63.62,34.25,34,65.52,34,103.75h0c0,38.23,29.62,69.5,65.82,69.5H195"/><circle class="cls-5" cx="198.5" cy="34.25" r="8.75"/><circle class="cls-5" cx="198.75" cy="173.25" r="8.75"/><circle class="cls-5" cx="198.5" cy="451.25" r="8.75"/></g></g></svg>