<?xml version="1.0" standalone="no"?>
<!DOCTYPE svg PUBLIC "-//W3C//DTD SVG 20010904//EN"
 "http://www.w3.org/TR/2001/REC-SVG-20010904/DTD/svg10.dtd">
<svg version="1.0" xmlns="http://www.w3.org/2000/svg"
 width="1024.000000pt" height="1024.000000pt" viewBox="0 0 1024.000000 1024.000000"
 preserveAspectRatio="xMidYMid meet">
<metadata>
Created by potrace 1.16, written by Peter Selinger 2001-2019
</metadata>
<g transform="translate(0.000000,1024.000000) scale(0.100000,-0.100000)"
fill="#000000" stroke="none">
<path d="M0 5120 l0 -5120 5120 0 5120 0 0 5120 0 5120 -5120 0 -5120 0 0
-5120z m5240 4826 c0 -73 3 -148 6 -165 l7 -31 101 -2 101 -2 -104 -5 -104 -6
-3 -37 -4 -38 88 0 c201 -1 506 -30 742 -71 126 -22 306 -66 330 -81 18 -11 8
-9 -130 27 -215 56 -530 96 -856 110 l-161 7 -7 -26 c-4 -15 -6 -72 -5 -127
l2 -99 81 0 c447 -1 1028 -110 1417 -265 120 -49 539 -250 539 -260 0 -3 -23
6 -51 21 -91 45 -340 154 -469 204 -252 97 -501 165 -765 210 -66 11 -121 20
-122 20 -2 0 -3 -13 -3 -29 0 -34 17 -41 101 -41 153 0 567 -112 834 -225 328
-138 887 -452 969 -544 19 -21 19 -21 0 -21 -11 0 -91 47 -178 105 -86 58
-187 121 -224 141 -37 20 -94 53 -127 73 -196 119 -599 289 -849 357 -146 40
-414 95 -510 105 -49 5 -91 11 -95 14 -3 3 0 15 7 25 7 11 12 26 12 33 0 20
-154 38 -378 44 l-194 6 4 -24 3 -24 183 -7 c179 -6 312 -21 342 -39 19 -11
19 -11 -145 6 -77 8 -195 15 -262 15 l-123 0 0 -70 0 -70 93 0 c147 0 482 -35
717 -76 197 -34 533 -132 625 -183 22 -12 31 -19 20 -15 -301 108 -547 172
-805 208 -241 34 -367 45 -520 46 l-125 0 -2 -449 c-1 -439 -1 -449 18 -444
23 6 28 25 32 128 l3 80 2 -97 2 -97 -30 -21 -30 -21 0 -210 c0 -192 1 -209
18 -210 16 -1 16 -2 0 -6 -10 -2 -18 -14 -18 -25 0 -17 4 -20 30 -15 16 4 32
2 35 -3 4 -6 -9 -10 -29 -10 -20 0 -36 -5 -36 -11 0 -7 23 -9 65 -5 36 2 63 1
60 -3 -2 -5 11 -30 30 -57 46 -64 95 -82 95 -35 0 26 -21 43 -37 30 -9 -8 -13
-8 -13 -1 0 6 5 12 11 14 14 5 -2 40 -35 77 -14 16 -16 22 -6 19 21 -6 89
-108 89 -134 1 -24 -17 -44 -40 -44 -9 0 -37 24 -60 53 -56 67 -56 67 -111 67
l-48 0 0 -62 c0 -39 4 -58 9 -50 13 21 71 20 85 -1 8 -13 7 -24 -6 -47 -11
-19 -13 -30 -6 -30 7 0 3 -6 -8 -14 -10 -8 -20 -10 -22 -5 -2 5 -15 9 -28 9
l-24 0 2 -162 c0 -90 3 -148 5 -130 6 45 24 40 22 -6 -3 -36 -5 -39 -34 -40
l-32 -1 8 42 c5 23 8 104 8 181 l-1 138 -38 -37 c-22 -21 -38 -41 -38 -44 1
-3 -2 -13 -5 -21 -4 -8 -8 -73 -10 -145 l-3 -130 -2 138 c-2 107 -5 137 -14
131 -14 -9 9 24 29 41 6 6 28 30 47 53 65 79 38 67 -44 -19 l-79 -84 -2 -135
-2 -135 -8 100 c-13 154 -8 173 59 237 104 98 112 110 112 178 0 33 -2 60 -4
60 -2 0 -23 -7 -47 -15 -52 -19 -74 -37 -111 -94 -15 -25 -28 -38 -28 -29 0 9
18 39 39 66 30 37 52 54 90 68 28 10 51 24 51 32 0 8 -7 11 -17 8 -10 -3 -39
-10 -65 -16 -74 -16 -98 -30 -99 -59 -2 -25 -2 -25 -6 -3 -7 38 21 58 112 78
l85 19 0 212 c0 122 -4 213 -9 213 -5 0 -21 -14 -35 -31 -14 -17 -26 -25 -26
-18 0 7 17 30 37 51 49 50 37 58 -14 11 -40 -37 -41 -40 -48 -126 -4 -48 -5
-115 -4 -150 2 -34 0 -68 -4 -74 -5 -7 -59 -37 -121 -66 l-113 -54 -6 -63 c-4
-35 -7 -83 -7 -108 0 -41 -4 -49 -50 -93 -60 -58 -67 -52 -9 7 42 43 42 43 50
145 5 56 14 109 21 116 12 15 98 60 158 83 66 25 68 29 69 163 1 67 4 131 6
142 12 62 16 75 23 72 5 -1 25 13 46 31 l38 33 -8 287 c-4 158 -7 298 -6 312
0 14 4 83 8 153 l7 128 -139 -6 c-299 -13 -448 -29 -669 -71 -301 -58 -584
-137 -825 -232 -124 -48 -406 -177 -429 -196 -12 -9 -13 -8 -7 3 9 14 243 129
380 185 343 142 829 268 1136 296 69 6 168 15 220 20 52 5 148 10 213 10 l117
0 0 70 0 70 -80 0 c-151 0 -549 -42 -768 -80 -305 -54 -726 -189 -1022 -328
-109 -51 -329 -179 -366 -214 -13 -11 -24 -15 -28 -10 -5 9 124 94 310 205 95
57 325 161 434 197 30 10 102 32 160 50 58 17 116 35 130 41 48 17 287 68 440
93 227 37 412 57 610 64 172 7 175 7 178 30 3 21 1 22 -80 22 -273 0 -717 -58
-1013 -132 -459 -115 -887 -288 -1232 -499 -183 -112 -203 -123 -214 -112 -6
6 -3 15 8 25 27 23 327 199 418 245 120 61 416 187 535 227 509 172 909 248
1428 271 l152 7 0 125 0 125 -142 -7 c-79 -3 -206 -10 -283 -16 -77 -5 -169
-11 -205 -14 l-65 -4 55 9 c70 11 291 27 488 36 l152 7 0 40 0 40 -132 -7
c-73 -3 -178 -9 -233 -12 -55 -4 -98 -4 -95 -1 3 3 108 11 233 18 l227 12 0
164 c0 102 4 163 10 163 6 0 10 -51 10 -134z m1795 -456 c3 -5 -3 -27 -15 -49
-11 -22 -20 -42 -20 -45 0 -3 93 -52 208 -109 352 -177 534 -287 797 -482 138
-103 366 -292 381 -316 17 -28 -8 -13 -62 38 -203 192 -494 402 -809 582 -165
95 -465 246 -507 256 -25 6 -27 4 -44 -49 -10 -31 -21 -56 -26 -56 -19 0 -18
29 1 61 26 43 27 69 1 76 -11 3 -20 9 -20 15 0 5 8 4 19 -2 11 -5 24 -10 29
-10 12 0 43 86 34 94 -3 3 2 6 11 6 9 0 19 -4 22 -10z m-1330 -50 c162 -11
383 -50 595 -104 200 -51 426 -122 435 -136 10 -17 -14 -12 -148 30 -156 50
-412 114 -556 141 -90 16 -224 33 -508 65 -29 3 -53 10 -53 16 0 7 19 8 58 4
31 -4 111 -11 177 -16z m-1053 -429 c6 -10 19 -17 27 -14 11 3 10 -1 -4 -12
-19 -16 -17 -17 37 -10 32 3 72 2 90 -4 18 -5 62 -18 98 -27 121 -31 186 -76
229 -159 30 -59 41 -132 41 -277 0 -127 -1 -130 -29 -172 -29 -42 -141 -145
-141 -129 0 12 83 99 89 93 5 -6 69 80 70 95 1 5 -31 -22 -71 -60 -76 -74 -67
-55 15 31 47 50 48 53 54 125 11 156 -37 317 -112 375 -19 14 -69 37 -112 51
-69 22 -88 24 -163 18 -109 -9 -187 -34 -250 -79 -55 -39 -72 -46 -47 -18 10
10 14 22 10 27 -5 4 -3 5 3 2 6 -3 26 4 45 17 53 35 115 56 172 57 101 2 117
17 20 18 -90 1 -94 0 -176 -42 -47 -24 -105 -60 -129 -80 l-45 -37 -209 2
-209 3 206 2 207 3 43 38 c24 21 79 56 121 78 73 37 78 41 78 72 0 37 22 44
42 13z m232 -102 c21 -6 46 -12 55 -14 37 -8 68 -25 95 -54 17 -17 26 -31 22
-31 -5 0 3 -15 18 -34 14 -19 26 -40 26 -46 0 -6 4 -9 8 -6 10 6 11 -2 18
-164 l6 -135 -61 -63 c-36 -38 -61 -72 -61 -85 0 -12 -5 -29 -10 -37 -7 -11
-8 -5 -3 20 8 45 41 97 87 137 l36 31 0 104 c0 57 -4 118 -10 137 -13 48 -89
170 -115 187 -29 19 -85 35 -85 25 0 -5 12 -11 28 -15 78 -17 151 -153 153
-284 1 -78 -10 -160 -22 -168 -5 -3 -5 10 -1 28 4 18 7 76 7 128 0 80 -4 103
-24 144 -57 116 -131 159 -276 160 -79 1 -98 -3 -153 -28 -68 -31 -123 -85
-147 -143 -10 -23 -16 -69 -16 -126 0 -92 5 -107 55 -168 11 -14 3 -6 -20 17
-32 33 -43 53 -48 90 -9 67 -7 172 3 176 4 2 11 14 15 28 5 17 4 21 -2 11 -17
-23 -174 -31 -492 -22 l-305 8 335 1 c441 3 426 1 481 69 44 55 102 93 184
119 50 16 167 17 219 3z m-36 -104 c63 -19 133 -85 150 -143 28 -91 9 -199
-44 -248 l-33 -32 -1 -164 c-2 -220 -3 -225 -70 -269 l-55 -37 -7 37 c-4 20
-7 56 -8 81 -1 41 -6 49 -51 88 -56 48 -69 51 -69 20 0 -13 20 -42 48 -71 l47
-48 3 -94 c3 -63 0 -95 -7 -95 -7 0 -9 -15 -5 -43 6 -42 5 -44 -26 -57 -31
-13 -34 -12 -52 10 -13 16 -18 32 -13 50 3 14 7 39 9 55 2 17 4 34 5 38 0 5 6
5 12 1 8 -4 7 -9 -2 -15 -10 -6 -8 -8 8 -7 23 2 21 24 -5 46 -14 11 -14 12 0
12 19 0 69 -39 51 -40 -7 0 -13 -5 -13 -11 0 -5 4 -8 9 -4 5 3 12 -3 15 -12 3
-10 4 16 2 59 -3 42 -9 85 -15 96 -11 20 -65 45 -75 35 -13 -14 -4 -34 18 -43
29 -11 55 -50 33 -50 -20 0 -69 56 -72 82 -1 13 -3 96 -4 186 l-1 163 -35 32
c-46 43 -65 93 -65 169 1 122 61 196 185 228 47 12 78 11 133 -5z m1172 -9 c0
5 7 1 14 -9 8 -10 16 -18 18 -17 1 1 59 -1 127 -5 119 -7 125 -9 155 -37 l31
-30 -40 26 c-29 19 -54 26 -95 27 -30 1 -82 4 -115 8 l-60 6 -20 -34 c-27 -46
-37 -47 -59 -6 -31 58 -48 41 -39 -40 l6 -48 98 7 c64 4 99 3 99 -4 0 -8 -156
-17 -192 -11 -5 0 -8 -33 -8 -74 l0 -75 46 0 c25 0 43 -4 39 -9 -3 -5 -22 -8
-43 -5 -29 3 -31 2 -12 -4 25 -8 25 -8 -7 -15 -26 -5 -31 -10 -26 -24 4 -10
11 -21 17 -25 6 -4 11 -11 11 -16 0 -4 16 -22 35 -39 43 -39 33 -56 -11 -19
-17 15 -36 25 -42 23 -12 -4 -50 37 -60 66 -5 12 -1 17 12 17 25 0 28 18 30
152 1 97 -1 119 -19 153 -11 22 -14 31 -5 21 8 -11 15 -17 15 -14 0 4 3 13 6
22 5 13 -1 16 -30 16 l-37 0 27 -37 27 -38 -38 38 c-20 21 -35 40 -33 43 2 2
35 5 73 7 45 3 71 9 73 17 4 10 9 8 18 -5 8 -10 14 -15 14 -9z m1567 -99 c15
-13 60 -45 98 -72 156 -109 418 -326 548 -454 285 -280 455 -498 685 -882 230
-383 421 -919 501 -1404 18 -104 35 -278 57 -552 l6 -73 177 0 c124 0 181 4
189 12 9 9 12 9 12 0 0 -9 29 -12 100 -12 88 0 100 2 101 18 0 11 2 12 6 4 4
-10 8 -10 21 0 14 11 14 11 4 -7 -8 -16 -7 -24 6 -39 16 -18 16 -18 -5 -7 -21
10 -23 9 -24 -11 l-2 -23 -4 23 c-4 21 -9 22 -102 22 -62 0 -101 -4 -109 -12
-9 -9 -12 -9 -12 0 0 9 -59 12 -235 12 l-235 0 -2 -157 -2 -158 -3 158 -4 157
-201 0 c-195 0 -203 -1 -227 -22 -23 -22 -23 -21 3 15 26 34 46 52 31 26 -9
-14 375 -11 393 3 8 7 12 7 12 -1 0 -6 17 -11 41 -11 l42 0 -7 93 c-32 436
-98 805 -201 1121 -159 486 -436 983 -783 1406 -108 131 -440 464 -551 552
-41 33 -95 77 -121 99 -26 22 -92 70 -146 107 -90 61 -122 92 -96 92 6 0 23
-10 39 -23z m215 -63 c360 -242 773 -677 1001 -1055 45 -75 81 -144 55 -105
-169 249 -357 477 -575 696 -199 200 -270 262 -454 393 -115 82 -134 101 -124
117 3 5 8 10 10 10 2 0 41 -25 87 -56z m-3442 -7 c0 -23 24 -125 32 -134 8
-10 6 -13 -6 -13 -9 0 -16 3 -16 8 0 10 -92 2 -106 -9 -8 -6 -13 -3 -17 11 -4
16 -13 20 -46 20 -23 0 -41 -4 -41 -10 0 -5 -7 -10 -15 -10 -8 0 -15 5 -15 10
0 6 -42 10 -105 10 -87 0 -105 -3 -105 -15 0 -13 25 -15 158 -17 l157 -2 -165
-6 c-105 -3 -168 -1 -172 5 -4 6 -51 13 -105 16 l-98 6 108 -1 c158 -2 129 18
-39 25 -76 4 -209 8 -294 9 -122 2 -141 4 -90 10 36 3 148 3 250 -1 304 -13
492 -13 500 1 5 8 9 7 13 -4 5 -12 20 -16 60 -16 46 0 53 3 53 20 0 29 -28 30
-498 33 -230 2 -420 6 -424 9 -5 6 218 5 821 -3 94 -1 159 -5 145 -9 -19 -4
-26 -14 -30 -40 l-6 -35 48 3 48 4 0 42 c0 85 32 80 -481 75 -250 -3 -393 -2
-319 1 147 6 800 12 800 7z m2360 -46 c0 -15 90 -61 119 -61 18 0 22 -3 13 -9
-23 -14 34 -20 128 -14 l85 6 -70 17 c-38 10 -95 20 -125 24 -30 4 -59 11 -65
16 -5 4 -26 13 -45 18 -75 22 13 12 113 -13 181 -44 231 -54 297 -60 97 -9
185 -28 163 -36 -9 -3 -36 -1 -58 4 -22 6 -128 10 -235 11 l-195 1 -65 40
c-35 22 -78 45 -95 52 l-30 11 33 1 c17 1 32 -3 32 -8z m-12 -111 c46 -44 87
-78 90 -76 84 49 204 70 354 64 115 -5 155 -16 338 -87 30 -12 91 -34 135 -48
44 -14 86 -30 94 -37 8 -6 16 -10 18 -8 1 1 10 2 18 2 21 0 19 -13 -6 -29 -20
-12 -21 -11 -17 7 4 15 1 18 -19 16 -13 -1 -36 4 -51 12 -15 7 -56 25 -92 38
-67 26 -60 12 13 -25 42 -22 100 -70 93 -77 -3 -2 4 -14 16 -26 45 -47 156
-244 172 -306 3 -14 -2 -7 -13 15 -52 114 -168 265 -260 342 -121 99 -290 165
-416 161 -45 -1 -46 -2 -10 -5 121 -10 286 -66 299 -100 4 -9 -7 -7 -33 6 -74
38 -199 64 -306 64 -90 0 -204 -16 -230 -31 -5 -4 -19 -8 -29 -9 -24 -4 -129
-67 -146 -88 -7 -9 -25 -24 -40 -35 -26 -18 -26 -18 -25 3 0 30 14 49 31 43 8
-3 13 -1 11 4 -1 5 7 16 18 25 16 13 13 13 -15 -2 -61 -32 -224 -201 -257
-268 -42 -84 -71 -172 -82 -252 -6 -37 -14 -86 -19 -108 -8 -35 -10 -28 -10
50 0 59 3 81 8 65 6 -20 8 -14 9 28 1 70 58 215 117 301 25 36 56 82 69 101
43 63 60 80 72 75 7 -2 15 1 19 7 5 7 2 8 -7 3 -10 -5 -11 -5 -4 3 12 12 131
89 148 95 18 7 -43 67 -68 67 -12 0 -44 11 -70 25 -26 15 -66 29 -89 32 -52 7
-59 13 -16 13 33 0 120 -27 130 -41 3 -3 16 -10 30 -14 25 -8 25 -8 6 14 -11
11 -24 21 -31 21 -6 0 -17 11 -23 25 -6 14 -11 25 -9 25 1 0 40 -36 85 -80z
m-3159 24 c133 -19 171 -29 248 -65 59 -28 69 -29 263 -35 184 -7 200 -6 194
9 -5 14 -23 17 -108 19 l-101 2 105 5 c106 6 228 -3 243 -18 5 -5 -11 -5 -35
0 -60 11 -98 11 -98 -1 0 -6 12 -15 27 -21 36 -13 93 -57 93 -71 0 -6 -18 6
-40 26 l-40 36 -118 0 c-66 0 -160 3 -210 6 -71 5 -92 4 -92 -6 0 -7 7 -10 15
-6 9 3 15 0 15 -9 0 -12 15 -15 65 -15 63 0 65 -1 65 -25 0 -29 11 -30 158
-18 59 4 82 10 82 19 0 17 -20 18 -21 2 0 -10 -2 -10 -6 0 -3 8 -34 12 -105
12 -56 0 -99 2 -97 4 2 3 54 6 114 7 107 3 111 3 136 -23 l26 -26 -139 -7
c-132 -7 -137 -8 -127 -26 9 -19 18 -19 139 -13 l129 7 5 -34 c11 -72 15 -184
6 -164 -5 11 -9 47 -9 80 -2 112 3 108 -125 100 -61 -4 -113 -9 -114 -10 -2
-2 12 -24 31 -49 19 -25 38 -42 42 -38 5 4 5 2 2 -5 -5 -8 45 -98 69 -122 7
-7 44 31 44 46 0 20 18 16 30 -7 8 -15 7 -18 -2 -15 -7 3 -25 -4 -40 -16 -21
-17 -25 -26 -17 -40 5 -10 10 -29 11 -43 3 -31 2 -30 23 -10 19 19 22 17 27
-15 1 -13 -3 -26 -10 -28 -8 -3 -10 1 -5 12 5 15 3 16 -15 6 -19 -10 -22 -8
-28 16 -17 71 -120 226 -201 305 -40 39 -172 128 -189 128 -2 0 -17 9 -33 20
-15 12 -38 23 -52 25 -39 6 -69 17 -69 26 0 4 -15 7 -32 7 -51 -1 -107 5 -103
12 2 4 -16 5 -40 4 -25 -1 -47 2 -50 7 -10 14 -47 11 -39 -3 5 -10 4 -10 -5
-2 -7 6 -33 9 -59 8 -58 -5 -45 3 28 15 32 5 42 9 25 9 -33 1 -231 -35 -202
-37 9 -1 17 -5 17 -11 0 -5 -7 -7 -15 -4 -9 4 -15 0 -16 -7 0 -8 -4 -4 -9 9
-11 26 -29 28 -73 8 -18 -8 -60 -22 -95 -30 -79 -20 -173 -65 -165 -80 3 -6 0
-5 -7 1 -16 15 -18 12 40 40 123 59 332 115 475 126 22 2 44 4 49 5 5 1 56 -5
115 -14z m17 -114 c169 -27 319 -104 427 -219 57 -61 123 -158 113 -168 -2 -2
-15 10 -30 27 -14 17 -30 28 -36 25 -5 -3 -10 2 -11 12 0 10 -3 13 -5 6 -3 -7
-13 -9 -22 -6 -14 5 -15 4 -6 -8 17 -21 74 -127 74 -136 0 -4 -19 24 -42 62
-59 96 -177 212 -258 251 -132 65 -213 81 -387 77 -166 -3 -338 -82 -475 -217
-44 -44 -69 -62 -74 -55 -4 7 -3 9 3 6 6 -4 18 4 27 18 9 13 25 33 37 43 15
15 17 22 8 27 -8 6 -10 4 -4 -6 5 -8 4 -10 0 -6 -15 13 -15 39 1 33 7 -3 13
-2 12 2 -1 4 4 18 11 32 l14 25 -24 -20 c-13 -11 -37 -31 -54 -45 -16 -13 -7
-1 20 28 160 170 427 253 681 212z m-1036 -4 c0 -2 -19 -16 -42 -31 -75 -50
-278 -257 -397 -405 -282 -350 -514 -700 -695 -1045 -21 -38 -34 -61 -30 -50
3 11 10 34 14 50 9 35 124 252 197 370 122 199 353 522 509 712 103 124 301
315 379 365 62 39 65 41 65 34z m4664 -28 c22 -6 46 -16 51 -21 7 -7 3 -7 -10
-2 -11 4 -46 10 -79 13 -47 4 -58 2 -54 -9 3 -10 24 -15 64 -16 59 -2 130 -21
107 -30 -7 -2 -21 0 -32 6 -28 16 -111 14 -111 -2 0 -16 99 -42 248 -65 66
-11 94 -31 157 -115 93 -123 167 -305 164 -407 -1 -22 -8 0 -20 59 -18 93 -83
245 -104 246 -5 1 -42 33 -81 71 -61 61 -82 75 -150 100 -61 23 -95 29 -149
28 -61 -1 -64 0 -25 6 36 6 27 7 -50 8 -54 1 -118 -4 -148 -12 -73 -20 -185
-74 -177 -86 3 -5 0 -7 -9 -4 -24 9 -98 -68 -159 -164 -59 -93 -73 -133 -86
-252 -6 -58 -9 -65 -10 -30 -2 102 47 290 76 290 7 0 10 7 6 17 -5 12 -3 14 7
8 10 -6 12 -4 7 9 -4 9 0 28 9 42 9 13 14 24 10 24 -13 0 -60 -88 -89 -165
-27 -72 -31 -92 -31 -195 0 -119 12 -172 65 -284 22 -46 22 -46 10 -46 -13 0
-58 106 -77 183 -12 48 -21 67 -33 67 -10 0 -12 3 -5 8 6 4 14 45 17 92 3 47
16 119 30 161 24 76 101 204 117 194 5 -3 12 0 16 6 4 8 3 9 -4 5 -7 -4 -12
-3 -12 3 0 6 12 17 28 25 15 8 47 33 72 56 58 54 100 84 100 71 0 -6 21 -1 47
10 26 11 67 23 91 26 l44 6 -32 13 c-23 10 -36 11 -48 3 -15 -9 -15 -10 1 -5
11 4 16 2 11 -5 -3 -6 -17 -8 -30 -5 -14 4 -24 2 -24 -4 0 -5 -7 -10 -15 -10
-9 0 -12 6 -9 18 5 13 4 14 -4 3 -6 -8 -7 -21 -4 -30 5 -14 4 -14 -12 -2 -12
10 -14 17 -6 25 17 17 12 25 -12 19 -16 -4 -20 -2 -13 5 6 6 21 13 35 16 14 3
50 12 80 20 68 18 189 20 244 4z m-1732 -165 c0 -13 4 -21 8 -18 5 3 11 1 15
-4 3 -6 52 -9 118 -7 96 3 101 3 32 -3 l-80 -7 100 -4 100 -4 -82 -3 c-46 -2
-83 -8 -83 -13 0 -5 30 -10 68 -12 l67 -3 -45 -11 -45 -12 65 -2 c36 -1 79 -5
95 -9 28 -6 29 -7 10 -19 -17 -10 -8 -12 58 -11 42 1 81 -1 85 -6 4 -4 -45 -5
-108 -3 -63 3 -104 1 -90 -3 19 -6 14 -8 -25 -8 -95 1 -105 -1 -105 -16 0 -18
11 -18 209 -5 80 5 151 5 159 1 7 -4 -70 -11 -171 -14 -102 -4 -196 -12 -209
-17 -16 -7 24 -9 132 -6 110 3 133 2 80 -4 -41 -4 -115 -8 -164 -9 -75 -1 -87
1 -82 14 6 17 4 18 -18 9 -14 -5 -14 -9 -4 -21 14 -18 19 -393 5 -393 -4 0 -7
84 -6 186 l1 186 -33 34 c-36 37 -64 48 -33 12 19 -21 19 -21 -12 1 -31 23
-70 78 -61 88 3 3 13 -9 21 -25 19 -37 32 -46 42 -31 4 8 3 9 -4 5 -7 -4 -12
-3 -12 2 0 16 -101 163 -116 169 -14 5 -20 33 -6 33 4 0 33 -38 64 -83 32 -46
75 -99 95 -118 21 -18 29 -24 20 -12 -10 12 -20 27 -21 35 -4 23 -36 78 -46
78 -5 0 -7 6 -4 14 3 8 0 17 -7 22 -8 5 -10 3 -4 -6 5 -9 4 -11 -4 -6 -6 4 -9
12 -6 17 4 5 -3 22 -14 38 -12 16 -21 35 -21 42 0 6 10 -3 23 -21 32 -49 48
-50 31 -3 -15 43 -17 73 -7 100 7 17 25 -79 25 -134z m-1823 44 c41 -15 95
-39 120 -54 133 -78 271 -269 254 -353 -6 -30 -23 -42 -23 -16 0 22 -68 149
-99 184 -29 32 -48 43 -35 20 5 -10 4 -10 -6 -1 -7 6 -18 10 -24 9 -6 -2 -8
-1 -3 1 33 19 -36 24 -113 8 -14 -3 -113 -6 -220 -6 -202 -2 -291 11 -330 46
-19 17 -40 20 -40 4 0 -5 -5 -7 -10 -4 -6 4 -7 11 -4 17 4 6 -1 6 -14 -1 -26
-14 -32 -14 -32 0 0 5 6 7 13 3 6 -4 9 -3 4 1 -4 5 5 17 20 27 16 10 24 18 20
18 -15 0 -92 -58 -134 -102 -23 -23 -58 -70 -77 -102 -23 -38 -36 -52 -36 -40
0 11 6 26 13 33 10 11 10 13 0 7 -44 -24 23 79 98 153 79 77 188 139 294 165
96 24 271 16 364 -17z m1455 -54 c-15 -23 -19 -52 -22 -150 l-4 -122 -52 -34
c-28 -18 -79 -46 -114 -62 -35 -15 -67 -36 -72 -45 -5 -10 -12 -66 -16 -126
-6 -108 -7 -109 -42 -147 -20 -20 -42 -35 -48 -33 -12 4 -128 -109 -158 -154
-25 -39 -196 -210 -196 -196 0 6 34 42 75 79 41 38 89 89 107 114 41 61 155
176 166 169 5 -3 25 12 44 32 36 37 36 37 41 144 5 129 8 134 123 189 137 65
134 61 134 196 0 100 3 119 21 144 26 37 38 38 13 2z m3653 -70 c159 -179 322
-402 461 -631 80 -131 292 -543 292 -565 0 -6 -50 88 -111 208 -61 121 -136
263 -166 315 -127 216 -330 494 -483 661 -45 49 -77 89 -72 89 6 0 41 -35 79
-77z m-5135 -166 c54 -26 90 -52 123 -89 44 -48 95 -137 95 -164 0 -6 -30 -33
-66 -59 -64 -48 -94 -86 -94 -123 0 -26 -45 -65 -116 -100 -34 -17 -75 -42
-91 -56 -17 -14 -34 -26 -38 -26 -4 0 -24 13 -44 29 -20 15 -61 41 -91 56 -89
45 -107 61 -125 115 -14 42 -28 60 -86 106 -38 30 -69 57 -69 60 0 23 77 148
108 176 98 88 184 119 323 114 86 -2 103 -6 171 -39z m3562 -18 c37 -32 56
-79 56 -141 0 -26 5 -38 18 -41 9 -3 -4 -5 -30 -6 l-48 -1 0 54 c0 65 -20 94
-70 102 -27 4 -42 1 -63 -16 -24 -19 -27 -28 -27 -81 0 -59 0 -59 -30 -59 -28
0 -30 2 -30 38 1 69 17 116 54 150 30 27 43 32 86 32 41 0 55 -5 84 -31z
m-4704 -188 c0 -5 -3 -11 -8 -13 -4 -1 -29 -29 -55 -60 -27 -32 -52 -56 -56
-55 -11 4 -351 -359 -351 -375 0 -12 -235 -248 -246 -248 -10 0 83 98 156 165
36 32 70 69 77 82 20 39 38 62 109 138 38 40 109 116 158 169 48 52 92 94 96
93 4 -1 29 24 55 56 45 54 65 69 65 48z m4763 -31 l47 0 0 -150 c0 -140 -1
-150 -21 -160 -30 -16 -344 -9 -361 8 -9 9 -14 56 -16 157 l-3 144 78 4 c43 2
112 3 153 1 41 -2 96 -3 123 -4z m-1126 -219 c-4 -97 -9 -243 -13 -326 l-5
-150 87 -41 87 -41 -7 86 c-4 50 -13 92 -21 100 -14 14 -18 -1 -28 -109 -3
-26 -4 -22 -5 15 -1 28 2 65 7 82 5 18 6 35 1 38 -4 3 -4 22 1 42 5 21 9 65 9
98 0 33 5 67 10 75 7 11 8 2 5 -30 -14 -144 -15 -188 -1 -193 9 -4 17 8 25 35
16 53 26 42 11 -12 -14 -54 -2 -70 34 -47 20 13 26 27 29 64 2 27 4 10 4 -37
0 -47 -2 -73 -4 -59 -4 25 -6 26 -34 16 -29 -11 -29 -12 -29 -93 0 -80 0 -82
29 -93 30 -13 83 -49 174 -118 56 -43 79 -55 59 -30 -7 8 -7 18 -2 27 8 12 10
9 11 -10 0 -23 1 -23 9 -5 6 14 9 15 9 5 1 -9 -4 -21 -9 -26 -7 -7 4 -23 34
-50 41 -37 47 -39 62 -25 15 15 15 14 4 -8 -11 -21 -8 -27 20 -56 20 -21 29
-38 25 -46 -5 -7 -4 -10 3 -5 6 3 13 2 17 -4 3 -5 16 -15 28 -21 21 -11 20
-10 -3 16 -14 16 -19 25 -12 21 9 -5 27 6 52 33 22 23 37 33 33 24 -6 -16 -5
-17 13 -3 18 14 18 14 2 -6 -37 -43 -16 -36 34 11 l52 50 -42 -52 c-24 -28
-58 -65 -77 -82 -19 -17 -35 -36 -35 -44 0 -7 25 -37 55 -67 30 -30 55 -57 55
-60 0 -4 -62 55 -138 129 -75 75 -173 160 -217 190 -44 30 -98 68 -120 86 -22
17 -59 42 -82 55 -24 13 -43 28 -43 33 0 5 11 2 25 -7 25 -17 51 -13 39 5 -3
5 -9 7 -13 4 -5 -2 -16 4 -26 15 -42 47 -269 151 -453 210 -57 17 -158 43
-225 55 -67 13 -111 24 -97 24 78 2 425 -91 523 -140 l37 -19 0 184 0 185 -57
4 -58 4 63 -1 c35 -1 62 3 62 9 0 6 -35 9 -90 7 -52 -2 -88 -7 -85 -13 4 -5
13 -9 21 -9 8 0 12 -4 9 -10 -3 -5 1 -10 9 -10 22 0 20 -32 -4 -58 -25 -27
-40 -28 -40 -4 0 14 -2 15 -10 2 -8 -12 -10 -11 -10 7 0 17 -4 21 -17 16 -14
-5 -13 -1 5 19 33 36 29 58 -10 57 -30 -1 -30 -2 -9 -8 40 -11 39 -33 -2 -30
-40 4 -67 -14 -67 -45 0 -15 -3 -17 -9 -8 -7 11 -9 11 -14 -2 -4 -9 -10 -16
-14 -15 -4 1 -10 1 -13 -1 -34 -12 -94 -1 -78 15 4 4 13 3 20 -1 14 -9 48 -13
48 -7 0 3 -6 11 -14 18 -10 10 -48 15 -137 18 l-124 3 131 2 131 2 -16 35 -16
35 -125 -3 -125 -2 -6 -100 -6 -100 1 105 1 105 134 3 134 3 28 30 c24 26 27
34 18 56 -12 33 -4 42 11 13 6 -12 9 -32 6 -44 -4 -18 1 -24 32 -36 42 -16
111 -20 119 -8 2 5 -1 15 -7 23 -9 11 -10 19 -1 28 6 8 8 17 4 20 -3 4 1 7 9
7 23 0 35 -21 31 -56 -2 -31 -1 -32 43 -39 63 -9 103 1 110 29 3 13 4 68 2
124 -2 57 1 98 6 95 5 -4 6 -81 3 -182z m-1057 -347 c0 -10 -64 -31 -115 -38
-107 -15 -408 -103 -425 -125 -3 -3 -12 -7 -20 -9 -8 -2 -50 -21 -93 -43 -43
-21 -82 -39 -88 -39 -7 0 -8 12 -3 33 4 17 11 50 15 72 l8 40 -2 -47 c-1 -27
-2 -48 -1 -48 1 0 32 14 69 31 123 56 375 131 528 159 116 21 127 22 127 14z
m648 -51 c53 -14 106 -26 117 -28 78 -9 177 -52 195 -84 5 -11 22 -26 37 -34
16 -8 67 -36 114 -64 348 -203 532 -368 685 -613 49 -79 94 -145 101 -147 6
-2 13 4 15 14 5 27 60 -84 64 -130 l3 -37 -29 15 c-17 9 -30 19 -30 24 0 4
-22 44 -50 89 -27 45 -46 82 -43 82 4 0 -2 7 -13 16 -10 8 -13 13 -6 9 19 -10
14 4 -19 57 -20 31 -35 45 -39 38 -5 -9 -9 -9 -14 -1 -4 6 -4 16 0 23 4 6 3 8
-3 5 -6 -4 -25 13 -44 36 -18 23 -44 50 -57 61 -14 11 -21 24 -17 34 3 9 3 13
-1 9 -4 -3 -43 28 -88 70 -135 127 -352 279 -526 369 -52 27 -97 50 -99 52 -3
1 1 8 7 14 18 18 14 37 -5 32 -10 -3 -45 4 -78 15 -33 11 -53 21 -45 22 8 1
-5 5 -30 9 -25 4 -85 19 -135 33 -49 14 -119 30 -155 36 l-65 10 79 -5 c43 -3
121 -17 174 -31z m-788 -63 c0 -11 -3 -20 -7 -20 -5 0 -18 -3 -30 -6 -15 -4
-22 -1 -26 13 -4 16 -5 16 -6 -2 -1 -18 -17 -25 -93 -47 -118 -33 -320 -120
-450 -192 -173 -98 -268 -167 -387 -283 -64 -62 -116 -113 -117 -113 0 0 -1 7
-1 15 0 8 4 12 9 9 4 -3 8 4 8 15 0 12 6 21 14 21 8 0 18 5 22 12 5 8 2 9 -11
4 -15 -5 -16 -4 -5 9 7 9 19 14 26 11 8 -3 11 0 8 9 -7 17 133 155 199 197 23
15 50 34 60 42 9 9 22 16 27 16 6 0 10 4 10 9 0 16 188 106 345 166 83 31 170
66 195 78 64 29 150 56 183 56 21 1 27 -4 27 -19z m-2737 -158 c-10 -10 -40
-34 -68 -52 l-49 -34 84 -17 c305 -60 437 -126 614 -309 70 -71 94 -90 110
-86 19 5 19 4 4 -8 -16 -11 -15 -14 3 -42 29 -42 94 -173 108 -216 14 -44 32
-47 101 -23 24 8 45 13 47 11 6 -5 -87 -36 -109 -36 -20 0 -22 -13 -9 -56 12
-38 21 -118 13 -109 -4 4 -13 37 -19 73 -14 77 -16 83 -25 98 -4 6 -9 22 -12
37 -2 14 -18 51 -34 81 -17 30 -29 56 -27 58 2 2 -22 38 -53 79 -55 72 -130
151 -181 187 -13 9 -35 26 -50 38 -108 86 -375 182 -524 188 -59 3 -73 7 -89
25 -16 21 -23 22 -70 16 -77 -11 -261 -71 -353 -116 -44 -21 -113 -64 -153
-94 -40 -30 -78 -55 -83 -55 -6 0 -8 -4 -5 -8 3 -5 -9 -16 -26 -26 -29 -18
-30 -18 -20 1 16 28 89 93 161 142 134 91 352 168 496 174 78 4 97 8 135 32
69 42 90 65 92 99 l1 31 4 -32 c3 -22 -2 -39 -14 -51z m3577 -36 l0 -53 88
-33 c191 -72 505 -271 542 -345 8 -16 18 -32 21 -35 4 -3 37 -43 73 -90 37
-47 88 -112 114 -144 98 -125 80 -113 -31 19 -114 137 -193 214 -303 295 -147
110 -195 141 -207 133 -6 -4 -7 -1 -2 7 6 10 4 12 -8 7 -9 -3 -19 -1 -23 5 -5
7 -2 8 6 3 9 -5 11 -4 6 4 -6 9 -11 9 -21 1 -7 -6 -20 -8 -29 -4 -9 3 -24 3
-33 -1 -10 -5 -23 -9 -30 -11 -6 -1 -22 -12 -35 -24 l-23 -21 30 11 c16 6 26
8 22 4 -3 -4 1 -13 11 -21 15 -13 14 -13 -6 -3 -47 23 -30 3 26 -30 63 -37
194 -137 257 -195 l40 -37 -45 34 c-82 62 -190 138 -196 138 -3 0 -12 7 -20
15 -18 18 -50 20 -60 4 -4 -8 -13 -4 -26 12 -18 24 -18 24 -1 -14 10 -23 19
-33 23 -25 7 17 46 22 56 7 5 -9 2 -10 -10 -6 -11 4 -15 3 -11 -4 4 -6 13 -8
20 -5 9 3 15 -4 17 -17 2 -17 9 -21 28 -19 19 1 21 0 10 -7 -8 -6 -12 -12 -10
-14 3 -2 21 -14 40 -27 19 -14 44 -33 55 -43 11 -10 35 -27 53 -38 17 -12 32
-23 32 -25 0 -8 -36 14 -86 52 -26 20 -72 50 -102 66 -45 25 -58 28 -78 19
-18 -8 -24 -18 -24 -45 0 -28 5 -36 29 -45 16 -7 46 -11 67 -9 33 2 38 6 36
23 -3 17 -1 18 10 7 7 -7 13 -18 13 -25 0 -6 11 -17 23 -23 13 -6 29 -18 35
-25 10 -11 9 -11 -5 0 -14 11 -20 11 -31 -1 -8 -7 -16 -20 -19 -28 -4 -11 -11
-6 -24 17 -20 34 -39 43 -91 43 -32 0 -33 -1 -33 -44 0 -25 5 -57 10 -72 7
-18 7 -29 1 -34 -19 -11 -81 -141 -81 -169 0 -31 90 -158 143 -203 35 -30 64
-33 174 -22 l61 7 21 77 c11 43 21 84 21 92 0 8 -18 22 -41 32 -22 10 -38 20
-35 23 3 3 11 1 18 -4 7 -6 23 -13 36 -16 16 -4 22 -1 22 11 0 10 6 5 16 -13
11 -22 12 -34 4 -50 -5 -11 -19 -51 -29 -88 l-19 -68 30 -57 30 -57 -36 40
c-20 22 -36 46 -36 53 0 8 -7 11 -17 8 -10 -2 -52 -7 -93 -11 -89 -7 -105 -15
-96 -43 8 -24 129 -207 159 -239 19 -21 22 -22 38 -7 16 15 17 13 8 -23 -7
-32 -2 -56 28 -148 20 -60 42 -116 49 -124 7 -8 44 -22 81 -32 51 -13 60 -18
36 -18 -18 -1 -55 7 -82 18 l-50 19 -14 -22 c-7 -11 -34 -66 -60 -121 l-48
-100 35 -100 c19 -55 40 -99 46 -97 8 2 8 -3 0 -17 -5 -11 -10 -40 -10 -65 0
-25 -3 -46 -7 -46 -5 0 -6 25 -5 56 3 46 -3 75 -34 160 -30 81 -42 103 -54 99
-8 -4 -58 -20 -110 -37 -56 -18 -102 -39 -112 -51 -14 -18 -20 -20 -43 -9 -23
11 -31 9 -70 -18 -26 -18 -63 -60 -92 -103 -26 -41 -54 -82 -61 -93 -7 -10 -5
-3 4 16 21 44 105 170 113 170 4 0 20 12 37 28 16 15 33 28 37 29 4 2 18 10
32 19 19 12 28 14 38 5 10 -8 43 -2 130 26 l117 36 36 76 c20 42 47 99 61 128
l25 51 -36 109 c-20 59 -40 114 -45 121 -6 10 -69 21 -195 35 l-187 20 -27
-20 c-15 -12 -26 -29 -25 -39 24 -179 11 -279 -51 -403 l-36 -70 35 -21 c19
-12 35 -23 35 -26 0 -5 -51 17 -67 28 -7 6 -21 -5 -40 -34 -83 -123 -109 -190
-87 -229 20 -36 17 -48 -5 -16 l-18 28 -6 -53 c-4 -29 -7 -69 -7 -89 0 -42
-29 -75 -81 -89 -43 -13 -341 -13 -394 0 -52 12 -65 32 -65 99 -1 134 -24 217
-88 313 -21 33 -27 36 -41 26 -14 -12 -14 -11 -3 4 12 15 11 22 -8 48 -39 55
-89 175 -101 245 -6 37 -9 99 -6 136 l6 68 -99 32 c-55 17 -105 29 -112 25 -7
-3 -49 -34 -93 -69 l-80 -64 3 -74 c4 -79 12 -96 133 -296 l43 -72 125 -36
c87 -26 127 -33 129 -25 2 6 15 23 28 38 l25 27 -26 -39 c-14 -21 -25 -42 -25
-46 0 -4 -57 10 -127 31 -70 21 -128 37 -130 36 -11 -12 -49 -205 -42 -218 5
-10 3 -23 -5 -34 -12 -16 -14 -16 -34 13 -27 37 -28 52 -3 52 20 0 37 40 61
147 l12 52 -84 140 c-45 77 -92 144 -103 150 -18 8 -18 10 -2 10 16 1 17 9 11
79 -6 76 -6 78 19 89 14 6 57 39 96 73 l72 61 92 -30 c51 -17 99 -31 107 -31
20 0 63 113 62 161 -1 20 -15 73 -32 118 -16 45 -30 91 -30 102 0 10 -3 19 -7
19 -8 0 -68 -46 -116 -89 -28 -26 -50 -36 -80 -38 -94 -8 -373 -56 -384 -66
-18 -17 -30 -87 -22 -122 35 -150 69 -261 85 -272 10 -7 13 -13 7 -13 -7 0
-15 6 -20 13 -4 7 -12 -33 -18 -93 -10 -96 -9 -108 8 -140 l19 -35 -25 30
c-20 23 -24 37 -19 60 3 17 6 80 7 140 0 97 -4 123 -34 221 l-33 112 -62 -24
c-33 -13 -67 -32 -73 -41 -12 -15 -13 -15 -13 -1 0 11 24 26 71 45 43 17 74
36 80 48 4 11 29 75 53 142 39 106 55 135 116 212 40 51 90 102 117 119 62 40
110 91 116 122 4 22 4 21 6 -6 0 -17 4 -34 7 -37 4 -4 41 12 84 35 74 41 80
46 140 141 34 54 60 101 57 104 -4 3 -26 -3 -49 -15 -24 -11 -85 -32 -135 -48
l-93 -28 -2 -46 -1 -45 -4 43 c-4 40 -6 42 -36 43 -31 1 -31 1 8 10 109 25
268 86 259 100 -3 5 1 6 9 4 7 -3 22 4 33 16 17 20 17 22 2 16 -10 -4 -18 -2
-18 3 0 6 7 10 15 10 17 0 19 9 5 30 -6 9 -5 17 3 22 8 5 6 8 -6 8 -10 0 -15
5 -12 10 20 32 -71 -8 -154 -69 -65 -47 -131 -86 -131 -77 0 2 22 18 49 35 27
17 62 44 77 59 16 15 45 37 64 49 19 13 30 23 25 23 -6 0 -16 -5 -23 -12 -9
-9 -15 -8 -25 6 -12 16 -14 16 -14 2 0 -9 5 -16 10 -16 6 0 7 -3 4 -6 -4 -4
-13 -1 -22 6 -23 19 -87 -2 -188 -63 -83 -50 -62 -23 30 40 153 105 168 116
151 110 -11 -4 -18 -1 -18 5 0 8 -6 6 -16 -4 -13 -13 -23 -14 -42 -7 -20 8
-23 7 -14 -3 8 -10 4 -13 -15 -15 -15 0 -30 -8 -34 -16 -5 -8 -36 -32 -69 -53
-33 -21 -60 -41 -60 -45 0 -4 -7 -9 -15 -13 -26 -10 -17 0 53 57 97 81 152
131 121 112 -14 -8 -35 -13 -45 -9 -13 4 -15 3 -6 -3 9 -7 2 -14 -25 -27 -21
-10 -55 -31 -78 -48 -36 -27 -35 -25 8 15 29 26 44 47 38 51 -16 10 -45 -8
-150 -91 -132 -106 -219 -191 -293 -285 -34 -44 -71 -90 -81 -102 -17 -20 -18
-20 -8 -1 15 33 94 137 137 180 21 22 38 44 36 48 -1 5 2 6 8 2 5 -3 10 1 10
9 0 9 4 16 8 16 12 0 57 40 46 41 -5 0 -1 3 8 7 10 4 50 37 90 74 105 95 126
112 198 154 36 20 67 40 70 44 16 20 140 79 235 111 61 21 104 38 96 38 -52 3
-354 -123 -491 -205 -29 -17 -36 -19 -20 -6 106 87 367 198 590 251 135 32
214 41 381 41 143 0 303 -18 396 -46 20 -6 23 -2 29 43 6 46 8 49 30 45 22 -4
24 -9 24 -56z m-3842 -167 c-3 -31 -5 -32 -113 -64 -126 -36 -216 -76 -295
-130 -30 -20 -47 -28 -37 -17 10 11 15 22 10 24 -4 3 -3 3 4 2 16 -4 26 13 13
21 -6 4 -7 11 -4 17 5 8 1 9 -12 5 -15 -6 -14 -3 5 13 12 11 28 17 34 13 5 -3
7 -1 4 4 -15 24 280 142 356 143 37 0 38 -1 35 -31z m387 -101 c44 -11 112
-36 150 -55 123 -61 259 -177 270 -231 2 -9 7 -26 11 -36 6 -15 4 -17 -6 -11
-10 6 -12 4 -7 -8 3 -10 5 -17 4 -17 -1 0 -41 37 -88 83 -161 154 -323 223
-534 228 -226 5 -485 -94 -632 -242 -24 -23 -43 -37 -43 -31 0 6 7 17 15 25 8
8 11 18 7 22 -4 5 -1 5 6 1 8 -5 12 0 12 13 0 34 126 139 231 191 193 97 398
120 604 68z m6067 -58 c-4 -58 -3 -60 25 -71 15 -6 40 -13 55 -16 23 -5 28 -1
34 23 10 44 28 53 77 42 23 -5 50 -17 61 -27 18 -18 18 -20 -8 -57 -14 -21
-26 -43 -26 -48 0 -19 54 -66 74 -66 23 1 76 42 76 60 0 19 19 10 26 -12 3
-13 13 -30 20 -39 8 -9 19 -31 24 -48 9 -32 8 -33 -36 -53 -54 -23 -59 -33
-44 -88 l11 -43 64 7 63 6 3 -37 c2 -21 3 -50 1 -65 -3 -27 -5 -28 -67 -28
-69 0 -66 2 -80 -67 -6 -31 -5 -33 55 -63 61 -31 62 -34 34 -70 -55 -67 -68
-80 -73 -73 -3 5 -23 19 -43 32 l-38 23 -30 -22 c-54 -39 -56 -64 -8 -116 19
-21 18 -21 -22 -58 -23 -21 -49 -36 -58 -34 -9 2 -28 20 -42 41 -24 38 -25 38
-70 32 -25 -4 -48 -9 -52 -12 -5 -2 -8 -28 -8 -56 0 -68 -10 -82 -49 -74 -25
5 -31 3 -32 -11 -1 -16 -2 -16 -6 1 -3 10 -14 17 -29 17 -23 0 -24 3 -24 59
l0 59 -44 11 c-63 16 -63 16 -85 -35 -18 -39 -24 -45 -43 -39 -13 4 -31 9 -42
12 -29 8 -56 36 -56 58 0 11 9 33 20 50 l19 30 -36 37 c-21 21 -42 38 -48 38
-6 0 -26 -15 -44 -34 l-33 -34 -30 30 c-29 29 -48 66 -48 93 0 7 21 24 48 38
49 26 51 30 30 90 -14 40 -16 41 -96 37 -51 -2 -53 -1 -66 32 -17 43 -27 108
-16 108 5 0 14 -26 20 -57 7 -32 14 -62 15 -68 4 -11 8 103 5 124 -1 12 1 13
13 2 9 -7 36 -11 69 -9 52 3 53 4 59 38 3 19 8 41 10 49 3 9 -14 23 -44 38
-41 20 -47 27 -42 46 10 33 35 86 43 91 5 3 31 -7 59 -21 l51 -26 35 29 c41
34 43 41 21 88 -9 19 -14 41 -11 50 9 22 50 46 89 52 33 6 35 4 47 -35 13 -45
31 -51 101 -31 35 10 35 10 35 67 l0 58 60 5 c33 3 65 4 70 3 6 -2 9 -29 7
-63z m-718 45 c-4 -8 -12 -15 -18 -15 -7 0 -20 -15 -29 -32 -17 -33 -17 -33
-10 -4 6 28 6 29 -13 10 -24 -25 -44 -69 -43 -97 0 -21 1 -21 9 -2 5 11 9 15
9 9 1 -7 18 -12 40 -12 33 -1 41 3 44 21 2 12 4 7 3 -12 -2 -29 -1 -31 11 -15
8 11 13 13 13 5 0 -11 3 -11 15 -1 8 7 15 8 15 3 0 -13 32 -13 49 1 11 8 15 8
18 -2 3 -6 9 -9 15 -6 6 4 8 1 6 -7 -3 -8 -11 -13 -17 -11 -6 1 -11 -3 -11 -9
0 -6 -7 -17 -15 -25 -8 -9 -15 -12 -15 -7 0 5 5 14 11 20 9 9 -3 12 -45 12
-45 0 -56 -4 -57 -17 0 -12 -3 -11 -9 6 -16 39 -30 24 -32 -35 l-2 -58 -3 56
-4 56 -84 -1 -85 0 -2 -60 -2 -61 -3 63 c-3 54 -7 62 -23 62 -18 0 -20 -7 -20
-65 l0 -65 80 0 c76 0 80 1 81 23 l2 22 4 -23 c4 -22 8 -23 66 -17 34 4 65 9
69 11 5 3 8 1 8 -5 0 -15 -20 -24 -51 -23 -26 1 -29 -3 -31 -31 l-1 -32 -4 30
-4 30 -117 -3 -117 -3 3 75 c3 66 1 76 -13 76 -13 0 -15 3 -7 13 5 6 12 21 16
32 4 14 4 12 2 -6 -2 -24 0 -25 38 -23 23 2 62 3 89 3 41 1 47 4 47 21 0 12 7
35 16 51 18 35 54 74 54 58 0 -6 12 -1 28 10 33 25 33 25 26 6z m-5374 -116
c185 -51 369 -198 451 -360 55 -110 74 -198 73 -354 0 -133 -2 -145 -35 -239
-18 -55 -39 -101 -46 -104 -7 -2 0 31 18 83 87 258 43 521 -121 721 -54 66
-165 149 -254 190 -165 75 -413 71 -581 -11 -84 -41 -155 -92 -155 -111 0 -8
-5 -14 -11 -14 -5 0 -7 6 -3 13 4 6 -14 -8 -39 -32 -26 -25 -45 -47 -42 -49 2
-2 -7 -14 -19 -26 -63 -58 -115 -242 -76 -266 8 -5 7 -9 -3 -13 -23 -9 -37 41
-26 94 17 83 20 93 30 105 7 9 5 16 -8 23 -17 10 -17 10 2 11 17 0 18 2 5 11
-12 9 -11 10 8 6 12 -3 22 -4 22 -2 0 2 3 10 6 18 3 8 -2 17 -12 21 -12 5 -15
2 -10 -9 3 -9 2 -13 -3 -10 -6 3 -9 14 -8 24 1 17 3 17 23 4 22 -14 24 -12 48
26 14 22 52 66 83 96 69 67 227 148 318 164 33 6 71 13 85 15 51 9 208 -5 280
-25z m-114 -69 c8 0 14 -8 14 -17 0 -14 2 -15 9 -5 6 10 13 11 35 1 20 -9 23
-15 14 -21 -9 -6 -6 -7 8 -3 52 14 269 -113 232 -136 -11 -7 -10 -9 1 -9 11 0
11 -3 1 -15 -16 -20 -6 -19 14 1 9 9 16 11 16 4 0 -6 5 -8 10 -5 6 3 10 2 10
-4 0 -5 -4 -12 -9 -15 -5 -3 -11 -15 -14 -26 -3 -11 -1 -18 4 -14 11 6 11 2 3
-20 -6 -16 -26 -23 -22 -8 3 14 -14 62 -22 62 -5 0 -12 -5 -16 -12 -4 -7 -3
-8 4 -4 7 4 12 2 12 -3 0 -18 -5 -26 -12 -23 -5 1 -8 -4 -8 -10 0 -9 -2 -10
-8 -2 -4 7 -21 9 -39 7 -24 -4 -33 -10 -33 -24 0 -27 23 -33 83 -21 36 7 53 7
56 0 2 -6 7 -5 12 3 7 11 9 11 9 -2 0 -12 7 -15 28 -11 26 4 26 4 7 -11 -19
-14 -19 -16 -2 -22 21 -9 23 -25 2 -25 -13 0 -19 16 -17 40 0 3 -16 4 -36 1
-23 -3 -29 -6 -17 -8 31 -6 48 -13 44 -18 -3 -2 -21 0 -42 5 -36 8 -64 -4 -30
-13 14 -4 13 -5 -4 -6 -13 0 -23 3 -23 7 0 10 -52 30 -68 24 -7 -2 -10 -8 -6
-13 3 -5 0 -9 -5 -9 -6 0 -12 8 -12 18 -1 16 -2 16 -6 0 -2 -10 -8 -18 -13
-18 -5 0 -7 7 -4 15 4 10 0 15 -10 15 -14 0 -15 -4 -6 -21 10 -18 19 -20 65
-17 45 2 55 0 59 -14 3 -13 14 -18 36 -18 18 0 29 4 25 10 -7 11 5 14 56 11
25 -2 38 2 42 13 4 9 11 16 17 16 6 0 5 -8 -2 -21 -11 -17 -20 -20 -55 -16
-29 3 -43 1 -43 -7 0 -8 14 -11 38 -9 20 1 29 0 20 -3 -10 -3 -18 -12 -18 -20
0 -10 -13 -14 -47 -13 -39 1 -43 2 -23 9 14 4 22 9 18 10 -21 6 -34 5 -45 -3
-9 -6 -13 -5 -13 2 0 7 -5 9 -10 6 -6 -4 -7 -11 -4 -17 4 -7 2 -8 -5 -4 -6 4
-9 12 -6 17 4 5 -2 12 -11 16 -16 6 -16 7 2 14 14 6 9 8 -18 8 -31 1 -38 -3
-38 -18 0 -11 6 -22 13 -24 6 -3 0 -6 -15 -6 -22 -1 -25 2 -21 20 7 27 -11 39
-59 39 -46 0 -53 -11 -28 -43 11 -14 20 -31 20 -38 0 -8 -5 -6 -13 5 -7 10
-25 19 -40 19 -15 1 -27 6 -27 11 0 4 9 6 20 3 11 -3 20 -1 20 4 0 5 -8 9 -17
9 -15 0 -16 2 -3 10 13 8 12 10 -2 10 -10 0 -18 -3 -18 -8 0 -4 -10 -13 -21
-21 -19 -11 -21 -11 -16 3 4 10 1 16 -9 16 -10 0 -14 -6 -11 -15 4 -8 2 -17
-3 -20 -6 -4 -10 4 -10 15 0 16 -4 20 -16 16 -9 -3 -20 -6 -25 -6 -5 0 -9 -5
-9 -11 0 -6 9 -8 21 -4 13 4 19 3 16 -2 -4 -6 -31 -13 -62 -16 -30 -3 -62 -13
-71 -21 -14 -15 -11 -16 38 -17 l53 -1 -45 -14 c-44 -14 -45 -14 -7 -10 20 3
37 1 37 -4 0 -4 -17 -13 -37 -19 -38 -10 -38 -10 -5 -7 38 3 54 -11 20 -18
-13 -3 -32 -7 -43 -9 -11 -3 -3 -5 18 -6 20 0 37 -5 37 -11 0 -5 -15 -7 -32
-5 l-33 5 35 -12 35 -12 -35 -6 -35 -7 35 -8 35 -9 -50 -12 -50 -12 49 -1 c68
-1 51 -12 -21 -13 -50 0 -54 -2 -28 -9 17 -5 51 -7 78 -5 26 2 47 -1 47 -5 0
-10 -170 -12 -194 -3 -9 3 -13 10 -10 15 3 5 -12 10 -33 10 l-38 2 35 7 c33 7
31 8 -20 10 -47 2 -51 3 -25 10 l30 8 -35 2 c-29 1 -32 3 -15 10 16 7 12 9
-19 9 -49 1 -40 12 17 22 38 6 36 7 -25 8 -74 1 -95 20 -25 22 24 1 31 3 17 6
-14 2 -36 7 -50 10 -21 6 -18 8 20 13 l45 7 -42 1 c-53 2 -57 19 -5 25 36 4
36 4 -7 5 -51 2 -46 19 11 32 l33 8 -42 1 c-41 1 -63 20 -25 22 10 0 12 3 5 6
-24 9 -13 23 17 23 17 0 30 4 30 9 0 5 8 12 18 14 12 3 11 5 -6 6 -13 0 -20 6
-17 11 10 16 -33 12 -60 -6 -14 -9 -25 -23 -25 -30 0 -8 -7 -14 -15 -14 -9 0
-12 6 -9 15 4 10 0 15 -12 15 -16 0 -16 2 4 16 12 8 22 22 22 30 0 8 5 14 10
14 14 0 13 -13 -2 -29 -11 -11 -10 -13 2 -9 9 3 14 16 13 32 -2 27 -1 27 22
12 15 -10 42 -14 76 -13 47 2 54 5 57 23 4 28 45 46 76 34 13 -5 26 -6 29 -4
3 3 8 1 12 -5 3 -7 -2 -11 -14 -11 -23 0 -29 -15 -8 -22 6 -2 26 -4 44 -4 27
1 30 -1 22 -17 -7 -12 -6 -17 3 -15 7 2 12 -3 10 -11 -2 -8 3 -18 10 -23 10
-6 10 -10 -2 -18 -12 -8 -10 -10 10 -11 23 -1 22 -2 -5 -8 l-30 -7 27 -7 c40
-11 75 6 72 35 -1 12 -3 28 -3 35 -1 6 -16 16 -35 23 -27 8 -33 15 -29 30 3
11 13 20 22 21 12 0 11 2 -4 9 -17 7 -17 9 -2 9 18 1 25 21 6 21 -5 0 -7 5 -4
10 4 6 -9 11 -32 12 -21 1 -49 2 -63 3 -21 1 -25 6 -23 31 l2 29 -11 -29 c-8
-22 -8 -31 1 -34 14 -5 15 -32 1 -32 -5 0 -10 4 -10 9 0 5 -10 7 -22 4 -18 -4
-20 -2 -8 6 12 8 12 11 -3 17 -12 4 -22 0 -30 -10 -7 -10 -17 -16 -22 -14 -6
2 -12 -1 -15 -7 -10 -22 -34 -44 -42 -39 -5 3 -18 -2 -29 -12 -21 -19 -27 -6
-6 15 6 6 13 16 13 22 3 22 5 23 14 9 5 -8 12 -11 16 -7 4 3 2 12 -4 20 -9 10
-1 16 36 27 38 11 42 14 23 18 -13 2 -27 -2 -32 -10 -5 -8 -11 -9 -17 -3 -6 6
-3 17 9 29 11 11 19 14 19 8 0 -7 5 -12 11 -12 6 0 9 7 6 14 -4 9 2 17 14 21
25 8 39 -3 19 -15 -12 -8 -12 -10 2 -15 21 -8 41 3 35 18 -2 7 0 20 5 31 7 12
7 16 0 12 -7 -4 -8 3 -2 24 9 32 5 35 -38 24 -21 -6 -21 -7 -5 -20 16 -12 12
-13 -27 -8 -50 7 -65 14 -32 14 16 0 22 6 22 23 0 15 3 18 8 9 6 -8 22 -10 55
-6 53 8 61 15 52 44 -5 17 -13 20 -43 16 -30 -5 -32 -4 -12 3 39 14 60 12 60
-4 0 -9 7 -18 15 -21 8 -4 15 -15 15 -25 0 -10 6 -19 13 -19 8 0 8 -3 -2 -9
-16 -11 -26 -51 -12 -51 20 0 41 13 35 21 -3 5 3 9 13 9 14 0 15 2 4 9 -10 6
-12 22 -9 54 4 37 2 47 -11 50 -24 6 37 30 71 28 15 -1 29 3 33 8 3 6 25 0 52
-14 25 -14 52 -25 59 -25z m-780 -162 c-89 -145 -139 -284 -151 -423 -16 -182
-30 -197 -22 -25 6 144 28 233 87 355 36 76 81 135 102 135 6 0 -2 -19 -16
-42z m2064 -302 c0 -1 -10 -26 -21 -56 -42 -109 -77 -259 -112 -490 -3 -14 -5
-5 -6 20 -1 32 -4 41 -11 30 -6 -9 -7 5 -3 43 4 40 2 61 -8 73 -11 14 -10 15
6 12 15 -2 20 8 31 57 31 137 47 187 56 173 6 -9 7 -3 4 17 -3 17 1 43 9 60 9
17 13 22 10 12 -15 -55 -13 -67 4 -27 22 49 29 87 11 60 -5 -8 -10 -10 -10 -4
0 15 7 21 25 21 8 0 15 -1 15 -1z m-2809 -310 c-6 -62 -11 -160 -11 -219 l0
-107 108 0 c106 0 243 -9 251 -16 2 -2 -21 -4 -52 -4 -47 0 -57 -3 -58 -17 0
-11 -3 -13 -6 -5 -3 9 -38 12 -124 12 l-119 0 -1 -37 c-1 -21 -5 -105 -9 -188
l-6 -150 -2 188 -2 187 -121 0 c-92 0 -120 3 -117 13 3 8 39 13 121 15 l117 3
0 37 c0 66 20 356 27 397 12 74 15 5 4 -109z m979 54 c25 -8 25 -8 -5 -11 -24
-1 -21 -3 15 -8 25 -3 44 -10 42 -14 -1 -4 4 -15 13 -23 31 -31 17 -35 -92
-29 -60 3 -118 8 -130 11 -27 5 -30 21 -5 27 12 3 10 5 -8 7 -19 2 -15 5 15
10 l40 7 -37 2 c-21 0 -38 5 -38 11 0 6 30 8 78 6 58 -4 66 -3 32 3 l-45 8 50
1 c28 0 61 -4 75 -8z m1930 -791 c0 -30 46 -225 69 -290 43 -125 151 -345 197
-399 11 -13 10 -18 -5 -27 -17 -11 -24 -4 -62 53 -71 106 -89 138 -79 144 5 3
-10 54 -34 113 -48 117 -122 397 -112 422 8 21 26 9 26 -16z m4570 -165 c36
-8 96 -30 135 -49 73 -36 179 -120 170 -136 -4 -5 0 -6 8 -3 9 3 29 -16 55
-50 47 -62 57 -86 15 -34 -41 49 -53 60 -53 51 0 -5 5 -14 12 -21 8 -8 8 -12
1 -12 -6 0 -16 6 -23 14 -6 8 -19 12 -27 9 -12 -5 -14 -3 -8 8 8 12 6 12 -9 0
-14 -12 -17 -12 -14 -1 2 8 -2 14 -9 15 -6 0 -15 3 -19 8 -4 4 -14 7 -23 7
-14 -1 -14 -2 0 -10 9 -5 29 -26 45 -47 21 -28 9 -20 -46 30 -81 74 -178 135
-154 95 5 -8 2 -9 -12 -4 -46 18 -143 36 -194 36 -87 0 -255 -50 -296 -89 -11
-10 -30 -22 -42 -25 -12 -4 -52 -36 -90 -72 -37 -35 -68 -64 -69 -64 -7 0 -2
9 17 30 11 13 20 28 20 34 0 6 -7 3 -14 -6 -15 -20 -31 -25 -20 -6 4 7 3 8 -5
4 -6 -4 -24 -33 -40 -64 -16 -31 -37 -66 -45 -77 -16 -19 -16 -19 -7 5 5 14
18 42 30 63 11 21 21 44 21 51 0 8 6 17 13 20 6 3 -1 2 -18 -1 -16 -3 -32 -10
-34 -16 -2 -5 -12 -16 -22 -25 -10 -9 -15 -20 -12 -25 3 -6 1 -7 -6 -3 -12 8
-11 11 32 75 24 35 27 45 16 53 -11 8 -10 9 3 4 12 -3 37 14 81 57 34 34 43
44 19 22 -24 -22 -40 -32 -37 -23 6 15 73 73 85 73 3 0 37 17 76 37 40 21 107
47 150 57 98 24 254 27 344 5z m-2517 -188 c3 -7 9 -6 21 3 16 13 16 12 4 -13
-11 -25 -10 -30 7 -43 54 -39 57 -42 15 -21 l-45 24 -83 -80 c-45 -43 -80 -81
-77 -84 3 -3 0 -11 -6 -19 -9 -9 -8 -17 0 -27 22 -26 -38 -47 -152 -53 -113
-6 -203 7 -238 36 -21 17 -15 17 149 13 176 -5 222 0 222 21 0 9 -39 12 -153
12 -172 0 -227 8 -227 32 0 9 -8 22 -17 30 -16 12 -15 12 7 1 18 -9 77 -13
210 -13 170 0 188 2 225 22 34 18 135 113 135 126 0 3 -7 22 -15 43 -14 34
-14 37 -1 20 9 -10 17 -24 19 -30z m2227 -236 c0 -100 3 -120 15 -120 8 0 15
5 15 11 0 5 4 8 9 4 5 -3 17 3 27 12 17 17 17 17 11 -9 -11 -42 59 -136 169
-226 l94 -76 0 -72 c0 -116 4 -114 -233 -117 -258 -3 -237 -25 -237 250 l0
204 29 17 30 17 -2 98 c-2 87 0 100 17 113 11 8 28 14 38 14 16 0 18 -11 18
-120z m-6009 -40 c22 -12 49 -60 49 -87 0 -29 -42 -72 -77 -79 -27 -5 -37 -1
-63 24 -40 41 -41 83 -1 123 31 30 59 36 92 19z m3646 -46 c1 -5 -14 -20 -34
-34 -35 -24 -43 -25 -177 -25 -144 1 -214 15 -224 45 -4 10 4 11 39 4 24 -5
107 -9 184 -9 116 1 145 4 165 18 25 18 41 18 47 1z m-23 -105 c-9 -18 -144
-31 -243 -25 -129 7 -151 13 -151 37 0 17 5 18 43 12 23 -5 96 -8 163 -8 93 0
126 4 145 16 22 15 24 15 35 -5 6 -12 9 -24 8 -27z m-4 -63 c0 -13 -7 -27 -16
-30 -26 -10 -336 -6 -356 5 -10 5 -18 15 -18 23 0 10 35 12 163 8 98 -2 172 0
187 6 37 15 40 14 40 -12z m-2426 -87 c17 -4 61 -15 98 -24 37 -10 65 -21 62
-26 -3 -5 2 -6 10 -3 9 3 16 2 16 -4 0 -6 8 -9 18 -8 39 6 273 -154 272 -187
-1 -7 -6 -5 -14 6 -7 9 -17 17 -21 17 -5 0 0 -9 10 -20 10 -11 20 -18 23 -15
8 8 32 -16 26 -26 -3 -5 0 -9 6 -9 6 0 8 -5 5 -11 -4 -6 3 -13 15 -16 13 -3
19 -11 16 -20 -3 -8 -2 -12 3 -9 8 5 30 -15 44 -40 4 -7 1 -17 -7 -23 -11 -9
-19 -3 -39 31 -14 24 -35 53 -47 66 -11 12 -18 27 -14 34 4 6 3 8 -3 5 -5 -3
-38 21 -73 53 -119 110 -293 178 -526 204 -65 7 -239 -16 -321 -42 -67 -22
-169 -71 -211 -100 -55 -39 -69 -43 -83 -25 -10 12 -10 15 -1 9 7 -4 12 -2 12
6 0 11 2 10 9 0 6 -10 10 -8 14 8 4 15 11 21 21 17 9 -4 15 -1 13 6 -4 21 199
114 297 135 96 21 308 27 370 11z m17 -93 c104 -22 215 -74 303 -140 44 -34
81 -65 83 -71 3 -11 -43 -36 -52 -27 -3 3 -5 12 -5 21 0 9 -16 29 -36 44 -33
27 -37 28 -53 13 -20 -18 -31 -20 -31 -7 0 5 9 11 21 14 12 3 18 10 15 16 -4
6 -14 7 -23 4 -11 -4 -14 -3 -9 5 10 17 -5 14 -29 -4 -20 -16 -20 -16 3 -9 13
4 22 2 22 -4 0 -6 -8 -11 -17 -11 -14 0 -15 -2 -4 -9 7 -5 11 -13 8 -18 -9
-15 39 -56 55 -47 7 4 10 3 5 -1 -4 -5 1 -18 10 -29 13 -15 8 -13 -18 6 -158
117 -328 166 -519 148 -105 -9 -181 -33 -279 -85 -75 -40 -54 -19 27 27 57 33
95 78 47 56 -17 -8 -32 -8 -47 -2 -26 11 -58 7 -58 -7 0 -5 -7 -9 -15 -9 -9 0
-27 -7 -40 -16 -14 -9 -25 -12 -25 -7 0 10 163 103 215 123 103 40 322 52 446
26z m-45 -175 c38 -10 89 -27 114 -38 101 -45 232 -168 281 -264 21 -41 25
-63 8 -39 -8 11 -9 8 -4 -15 5 -26 2 -24 -25 18 -17 27 -28 53 -24 58 3 5 2 8
-3 7 -4 -1 -42 32 -84 74 -156 155 -345 209 -557 158 -124 -30 -231 -91 -310
-179 -24 -26 -29 -29 -17 -9 9 14 15 35 13 45 -2 12 3 18 14 17 10 -1 16 2 13
6 -9 14 77 80 150 116 129 63 297 81 431 45z m-1589 -90 c77 -174 241 -474
292 -533 6 -7 27 -38 45 -69 25 -43 29 -56 17 -54 -9 1 -15 10 -15 19 1 8 -2
13 -7 11 -11 -8 -34 36 -31 60 2 15 1 16 -6 7 -7 -11 -11 -10 -17 5 -5 10 -7
24 -6 32 1 7 -2 10 -8 7 -20 -13 -267 432 -263 477 0 10 -4 15 -10 11 -6 -4
-8 1 -3 16 4 14 3 20 -3 16 -5 -3 -13 5 -16 19 -4 14 -11 25 -17 25 -6 0 -7 5
-4 10 11 17 26 0 52 -59z m2989 -191 c52 0 103 -20 147 -58 44 -38 81 -55 195
-87 103 -30 61 -29 -50 0 -126 34 -130 34 -133 13 -4 -23 13 -35 97 -69 84
-33 79 -39 -7 -9 -56 19 -125 33 -125 25 0 -3 12 -12 28 -20 15 -9 19 -14 10
-11 -9 3 -18 0 -20 -6 -4 -12 16 -138 28 -176 9 -32 -34 -75 -60 -60 -13 7
-24 3 -49 -20 -146 -137 -180 -166 -148 -125 34 44 109 113 123 113 10 0 41
60 31 60 -5 0 -2 4 5 8 7 5 15 25 19 44 5 33 -5 62 -55 161 -2 4 0 7 5 7 10 0
64 -112 66 -137 1 -18 37 -28 37 -10 0 37 -25 153 -34 159 -18 13 -29 9 -22
-8 5 -13 1 -12 -22 3 -15 10 -38 24 -52 31 -14 7 -45 31 -70 52 -25 22 -86 70
-137 107 -98 72 -121 102 -28 37 31 -21 69 -47 86 -56 16 -10 41 -25 54 -34
22 -15 25 -15 25 -1 0 9 8 21 18 26 11 7 13 13 6 18 -6 5 -41 28 -77 52 -37
24 -67 45 -67 47 0 3 33 -14 73 -36 41 -22 87 -40 103 -40z m-1473 -67 c3 -29
12 -52 23 -60 11 -8 20 -10 22 -4 2 7 10 6 21 -1 14 -8 27 -5 65 17 l47 28 24
-23 c39 -37 40 -66 5 -107 -18 -20 -29 -42 -26 -50 3 -8 6 -19 6 -24 0 -5 26
-9 59 -9 52 0 59 -2 65 -22 7 -30 -4 -101 -18 -110 -6 -4 -24 -8 -41 -8 -38 0
-50 -9 -60 -39 -6 -20 0 -30 35 -60 l42 -36 -32 -43 c-17 -24 -37 -45 -46 -49
-8 -3 -31 7 -51 23 l-36 27 -46 -25 c-32 -19 -49 -36 -57 -60 -10 -32 -12 -33
-72 -36 -59 -3 -62 -2 -63 20 -1 13 -1 26 0 30 1 10 -51 45 -84 58 -25 10 -32
7 -59 -19 -31 -30 -31 -30 -59 -12 -16 10 -38 33 -51 52 l-23 34 43 34 c24 18
44 39 44 45 -1 26 -37 55 -80 63 l-45 9 -3 62 -3 62 53 0 c84 0 104 28 58 81
-36 42 -37 72 -5 104 32 33 40 32 91 -11 36 -29 53 -38 42 -21 -5 7 24 47 32
42 5 -3 11 4 15 15 4 11 11 18 16 15 5 -4 9 8 9 24 l0 31 69 0 68 0 6 -47z
m5676 -515 c-7 -13 -15 -25 -18 -28 -3 -3 -23 -32 -45 -64 -54 -83 -359 -382
-491 -481 -60 -46 -140 -108 -176 -138 -86 -70 -291 -212 -449 -310 -302 -188
-720 -368 -1045 -452 -331 -85 -741 -145 -990 -145 l-125 0 0 -282 c0 -155 -2
-279 -4 -277 -5 5 -16 297 -16 440 l0 116 -172 6 c-240 8 -446 37 -753 107
-234 54 -546 157 -739 244 -39 18 -98 43 -131 56 -33 13 -64 27 -69 31 -11 10
68 -14 114 -34 159 -71 492 -188 690 -241 300 -81 690 -142 950 -148 l115 -3
0 137 c0 75 3 132 7 125 4 -7 8 -67 8 -134 l0 -123 93 0 c177 0 573 46 772 89
277 61 391 94 590 171 515 201 901 434 1394 844 93 77 341 327 417 420 43 53
79 96 81 96 2 0 -2 -10 -8 -22z m-1724 -42 c57 -30 69 -32 61 -10 -10 27 14 4
30 -29 l15 -32 -20 25 c-20 25 -21 25 -21 3 0 -15 -10 -28 -29 -38 -16 -8 -42
-30 -58 -48 -15 -19 -68 -68 -118 -109 -49 -41 -108 -93 -130 -114 -38 -37
-41 -44 -41 -95 0 -92 -60 -149 -157 -149 -121 0 -182 156 -93 237 33 30 41
33 102 33 l66 0 66 63 c37 35 107 101 155 147 49 47 99 92 112 100 l24 16 -27
29 c-15 16 -18 22 -7 13 11 -8 42 -27 70 -42z m-1895 -108 c76 -26 156 -83
184 -132 34 -59 60 -176 51 -231 -8 -58 -56 -149 -102 -197 -44 -45 -132 -93
-197 -108 -138 -31 -322 72 -360 201 -32 105 -16 228 39 302 l20 27 -1 -32
c-1 -18 -6 -32 -10 -31 -5 1 -7 -23 -6 -52 2 -30 -1 -62 -7 -72 -9 -14 -10
-11 -5 17 4 29 3 32 -6 17 -17 -27 -6 -139 20 -192 43 -90 154 -155 264 -155
73 0 179 53 239 120 70 78 88 160 63 285 -3 11 -5 32 -5 47 -2 59 -117 138
-238 163 -163 34 -339 -59 -388 -205 -23 -70 -21 -193 5 -270 12 -34 19 -64
17 -67 -11 -10 -59 110 -67 168 -20 135 24 260 115 332 115 92 236 113 375 65z"/>
<path d="M4735 8730 c-69 -15 -105 -61 -105 -134 0 -55 18 -103 50 -131 17
-16 35 -20 81 -19 71 1 100 19 128 77 25 52 26 74 5 127 -23 56 -97 94 -159
80z"/>
<path d="M5718 6503 c20 -8 14 -22 -8 -16 -11 3 -27 0 -35 -7 -8 -7 -23 -9
-36 -5 l-22 7 22 -23 c27 -29 27 -38 -1 -33 -13 2 -17 1 -9 -2 8 -4 22 -13 32
-22 9 -8 62 -34 116 -58 l98 -43 8 27 c4 15 5 36 2 47 -6 25 -102 98 -117 89
-6 -4 -8 -2 -5 3 7 10 -34 44 -50 42 -4 0 -2 -3 5 -6z"/>
<path d="M5595 6380 c-46 -18 -48 -35 -12 -92 19 -29 43 -61 54 -70 20 -19
102 -42 196 -56 l57 -9 0 44 c0 24 -5 53 -11 64 -10 19 -67 49 -203 108 -54
23 -53 23 -81 11z"/>
<path d="M4985 6365 c-5 -2 -32 -6 -58 -10 -63 -8 -106 -46 -163 -144 -46 -79
-52 -96 -31 -88 6 2 23 8 37 12 22 7 23 6 11 -9 -7 -9 -19 -16 -26 -16 -7 0
-18 -12 -24 -28 -10 -24 -7 -38 26 -112 21 -47 43 -87 48 -88 17 -6 114 31
120 45 3 9 0 11 -8 6 -23 -14 19 40 44 56 20 13 22 13 13 1 -13 -17 -15 -52
-3 -44 5 2 6 11 2 19 -3 8 0 15 7 15 7 0 10 7 6 16 -3 9 3 28 14 44 11 15 20
30 20 33 0 3 -15 14 -32 26 -22 13 -27 21 -16 21 40 0 68 103 32 117 -13 5
-12 9 7 29 33 35 19 37 -20 3 -19 -16 -35 -29 -37 -29 -10 0 0 13 38 49 32 31
45 38 55 30 26 -22 13 2 -14 26 -29 25 -31 26 -48 20z"/>
<path d="M5497 6319 c-18 -10 -18 -12 -1 -30 26 -29 25 -44 -4 -46 -19 -1 -22
1 -11 9 12 8 12 9 -1 5 -10 -2 -16 -19 -18 -50 -2 -26 -7 -47 -13 -47 -5 0 -2
-16 6 -36 18 -43 19 -58 4 -48 -8 4 -8 0 0 -15 14 -25 22 -28 15 -3 -5 14 -3
14 10 -2 9 -11 16 -23 16 -28 0 -4 5 -8 12 -8 9 0 9 3 0 12 -7 7 -12 16 -12
21 0 5 9 -2 21 -17 13 -16 30 -26 47 -26 15 -1 63 -7 107 -15 43 -8 81 -12 83
-10 2 2 -26 45 -64 97 -49 68 -65 86 -62 65 4 -20 2 -25 -5 -18 -5 5 -10 24
-9 42 1 35 -17 59 -43 59 -12 0 -15 5 -11 16 9 25 -12 56 -34 49 -15 -5 -18
-2 -15 14 2 12 3 21 2 21 -1 0 -10 -5 -20 -11z"/>
<path d="M5668 6174 c-4 -3 10 -31 29 -62 87 -137 118 -158 152 -102 22 36 46
108 39 115 -15 16 -211 59 -220 49z"/>
<path d="M4603 6040 c-34 -16 -73 -44 -87 -61 -20 -23 -30 -28 -39 -21 -17 14
-81 -14 -130 -57 -60 -53 -139 -169 -173 -254 -18 -45 -32 -82 -31 -83 1 -2
52 6 112 17 61 10 146 23 190 29 49 7 90 18 107 30 15 11 31 20 35 20 12 0
172 149 183 171 8 15 3 37 -20 96 -32 81 -67 143 -78 143 -4 0 -35 -13 -69
-30z"/>
<path d="M5713 5886 c52 -52 120 -109 155 -129 61 -36 97 -47 90 -28 -8 23
-132 164 -147 168 -9 2 -21 14 -26 26 -13 28 -46 43 -112 50 l-52 6 92 -93z"/>
<path d="M5717 5694 c-50 -82 -57 -97 -45 -111 8 -11 9 -14 1 -10 -22 14 -8
-37 34 -120 l41 -81 22 23 c14 15 19 28 14 37 -6 10 -5 10 9 -1 16 -13 364
-57 374 -48 9 9 -177 273 -211 300 -20 15 -69 45 -108 67 l-73 39 -58 -95z"/>
<path d="M5710 5312 c0 -6 -10 -14 -21 -17 -14 -5 -17 -10 -10 -14 8 -5 8 -15
-1 -38 -11 -28 -13 -30 -24 -15 -12 15 -12 14 -7 -5 3 -13 -2 -38 -10 -55 -8
-18 -18 -42 -21 -53 -5 -18 -1 34 4 60 7 31 -1 57 -15 51 -8 -3 -15 0 -15 6 0
7 -10 -2 -23 -19 -19 -26 -26 -29 -42 -21 -14 8 -12 2 8 -19 15 -16 27 -35 27
-42 0 -8 -9 -2 -20 11 -27 35 -55 41 -68 14 -15 -34 -33 -117 -27 -127 4 -5 2
-9 -3 -9 -5 0 -13 -20 -19 -45 -11 -50 -10 -51 60 -59 25 -3 37 -1 37 8 0 7
15 50 34 97 27 66 32 87 23 98 -9 12 -9 13 1 7 8 -5 12 -1 13 11 1 10 5 5 8
-12 5 -20 2 -42 -10 -66 -16 -32 -59 -139 -59 -146 0 -2 9 -3 20 -3 11 0 20
-4 20 -9 0 -4 18 -8 39 -8 37 0 40 2 66 54 15 30 33 74 42 96 15 44 20 177 9
237 -7 34 -16 53 -16 32z"/>
<path d="M4760 5196 c0 -129 39 -245 124 -364 43 -60 91 -157 101 -202 5 -19
11 -75 14 -125 7 -102 11 -107 104 -119 l47 -6 0 80 c0 64 -3 81 -17 90 -17
11 -17 11 0 6 15 -5 17 1 12 67 -6 73 -21 199 -31 250 -5 26 -9 28 -47 25 -25
-2 -41 -8 -40 -14 3 -18 -31 -5 -44 15 -12 19 3 111 26 161 11 25 11 24 6 -5
-3 -16 -11 -52 -19 -80 -12 -44 -12 -52 2 -66 22 -20 59 -4 57 25 -2 14 -1 15
2 4 2 -10 13 -18 24 -18 15 0 18 5 13 24 -14 57 -31 96 -39 89 -4 -5 -5 -3 -2
4 12 19 -18 128 -35 131 -9 2 -30 -12 -47 -30 -24 -25 -30 -39 -25 -58 15 -61
21 -125 13 -128 -15 -6 -10 -39 6 -46 22 -8 18 -26 -6 -26 -11 0 -18 3 -16 8
5 8 -18 33 -25 27 -2 -2 -4 4 -4 15 0 10 3 17 7 14 4 -2 12 3 19 11 10 12 10
27 0 75 -7 33 -16 60 -19 60 -4 0 -29 -22 -56 -50 -27 -27 -52 -50 -56 -50 -3
0 19 25 49 55 30 30 59 55 64 55 4 0 8 5 8 11 0 5 -4 8 -9 5 -4 -3 -14 13 -21
34 -18 55 -38 70 -56 45 -18 -24 -18 -16 1 29 8 20 11 36 6 36 -5 0 -11 -9
-14 -20 -3 -13 -10 -18 -21 -14 -8 3 -15 9 -14 12 2 20 -4 30 -22 35 -19 5
-20 0 -20 -77z"/>
<path d="M5116 5168 c5 -8 -2 -9 -24 -5 -25 5 -32 3 -32 -9 0 -21 38 -171 52
-206 19 -50 72 -25 81 37 3 24 4 21 6 -13 l1 -43 97 3 96 3 23 90 c12 50 23
102 23 118 1 28 -13 37 -22 15 -4 -10 -6 -10 -6 0 -1 6 -5 12 -10 12 -5 0 -7
-9 -4 -20 3 -12 0 -20 -7 -20 -6 0 -14 8 -17 18 -2 10 -13 19 -24 19 -18 2
-20 -3 -15 -30 3 -18 3 -26 0 -19 -9 19 -24 14 -17 -5 6 -16 5 -16 -11 -4 -12
10 -14 17 -6 25 18 18 11 36 -15 36 -17 0 -25 -5 -25 -17 0 -16 2 -16 11 -3 9
13 10 13 6 -2 -3 -9 3 -27 13 -40 12 -17 16 -29 9 -39 -7 -12 -9 -12 -9 1 0 8
-14 35 -31 60 -28 39 -31 41 -25 16 6 -26 5 -27 -9 -13 -8 9 -15 19 -15 24 0
4 -13 9 -29 9 -23 1 -31 -3 -34 -20 -3 -17 -5 -15 -6 7 -1 17 -7 27 -17 27 -9
0 -12 -5 -8 -12z"/>
<path d="M5405 4898 c-3 -7 -11 -42 -19 -78 -10 -52 -11 -66 0 -68 7 -2 20
-15 29 -30 l16 -27 -20 23 c-29 34 -38 27 -45 -35 -13 -112 -19 -303 -9 -303
5 0 33 7 61 15 58 17 57 16 67 128 7 85 42 180 100 273 25 40 45 74 45 78 0 3
-10 5 -22 5 -13 -1 -37 2 -54 6 -28 6 -31 5 -41 -32 l-12 -38 6 43 c4 34 2 42
-11 42 -9 0 -16 -6 -16 -12 0 -9 -3 -9 -9 1 -12 19 -60 25 -66 9z"/>
<path d="M5170 4795 c-9 -10 -10 -32 -5 -70 5 -44 10 -55 25 -55 10 0 21 8 26
18 6 13 9 10 13 -17 4 -24 15 -40 36 -52 35 -21 45 -23 45 -9 0 6 -6 10 -14
10 -9 0 -14 12 -14 35 0 44 16 46 20 3 5 -51 26 -45 34 9 10 69 10 108 0 110
-5 1 -12 6 -15 11 -8 13 -51 25 -51 15 0 -5 -6 -18 -14 -28 -13 -18 -14 -18
-9 8 5 25 3 27 -30 27 -19 0 -40 -7 -47 -15z"/>
<path d="M5275 4580 c4 -14 2 -20 -9 -20 -10 0 -13 6 -10 15 4 8 1 15 -6 15
-6 0 -8 -4 -5 -10 4 -6 -6 -11 -22 -11 l-28 -1 30 -7 c21 -4 26 -9 17 -15 -7
-4 -24 -5 -38 -2 -19 5 -24 3 -24 -14 0 -12 7 -20 18 -20 15 0 15 2 2 11 -12
9 -12 10 3 5 10 -3 28 -1 39 5 14 8 23 8 31 0 8 -8 7 -11 -3 -11 -8 0 -28 -7
-44 -15 -15 -8 -32 -12 -37 -9 -5 3 -4 -7 1 -21 6 -17 6 -24 0 -20 -6 4 -7 -6
-3 -26 4 -21 2 -34 -8 -40 -9 -5 15 -9 64 -9 l77 0 0 31 c0 16 -4 28 -9 24 -5
-3 -12 -1 -16 5 -3 5 1 10 9 10 12 0 16 11 16 44 0 25 -5 48 -12 52 -6 4 -8 3
-4 -4 10 -16 -10 -24 -23 -8 -9 10 -8 16 4 26 19 16 19 26 -1 34 -12 4 -14 1
-9 -14z"/>
<path d="M8138 6316 c-74 -30 -124 -74 -170 -148 -61 -98 -66 -239 -12 -338
119 -218 432 -253 597 -66 10 12 30 46 45 76 35 74 36 196 3 283 -32 81 -116
166 -194 195 -81 31 -192 30 -269 -2z m206 -61 c27 -8 58 -22 68 -31 38 -35
86 -222 61 -237 -5 -3 -15 16 -22 43 -9 35 -24 59 -52 85 -49 44 -63 46 -22 3
18 -18 37 -46 42 -61 18 -46 11 -147 -9 -147 -5 0 -4 16 1 36 18 64 -15 147
-68 175 -15 8 -31 17 -34 22 -11 15 -103 12 -94 -3 3 -5 1 -10 -4 -10 -6 0
-11 -9 -11 -21 0 -12 -11 -34 -25 -51 -18 -21 -25 -41 -25 -71 0 -86 48 -131
136 -129 32 1 62 6 68 12 5 5 15 10 20 10 6 0 0 -7 -13 -17 -15 -10 -45 -17
-83 -17 -58 -1 -61 1 -100 42 -38 42 -40 45 -35 100 2 31 7 68 11 82 3 14 4
19 0 12 -3 -6 -10 -10 -15 -6 -13 8 -39 -58 -39 -100 0 -49 15 -84 52 -117 17
-16 28 -33 24 -36 -10 -11 -72 56 -91 98 -18 38 -45 53 -45 24 0 -26 -16 -16
-28 18 -18 51 -15 88 15 147 66 133 182 186 317 145z"/>
<path d="M7886 4008 c-19 -27 -20 -42 -4 -67 9 -14 8 -27 -5 -60 -10 -23 -17
-46 -17 -51 0 -6 31 -10 71 -10 78 0 79 1 42 73 -10 20 -11 32 -3 46 16 31 12
59 -12 75 -31 22 -54 20 -72 -6z"/>
<path d="M2758 3118 c-38 -22 -68 -81 -68 -134 0 -13 -4 -26 -10 -29 -5 -3
-10 2 -10 11 0 10 -3 14 -6 11 -12 -12 25 -93 57 -125 62 -63 150 -63 221 0
86 76 77 198 -21 259 -55 35 -110 38 -163 7z"/>
</g>
</svg>
